Merriweather-DisplaySemiCndBoldItalic.ufo
<glyph name="exclam" format="2">
  <advance width="448.8679784195494"/>
  <unicode hex="0021"/>
  <outline>
    <contour>
      <point x="258.00729927007296" y="1772.4766740717232" type="line"/>
      <point x="165.14185972707077" y="446.2675341161536" type="line"/>
      <point x="252.27991113932086" y="446.2675341161536" type="line"/>
      <point x="546.8597270707712" y="1772.4766740717232" type="line"/>
    </contour>
    <contour>
      <point x="32.34433513170423" y="106.21294827039034" type="curve" smooth="yes"/>
      <point x="31.6017137416693" y="28.010790225325295"/>
      <point x="83.50555379244683" y="-21.314503332275468"/>
      <point x="143.54934941288477" y="-21.314503332275468" type="curve" smooth="yes"/>
      <point x="226.07584893684546" y="-21.314503332275468"/>
      <point x="297.4709615994922" y="39.279276420184075"/>
      <point x="298.19073310060304" y="150.18089495398286" type="curve" smooth="yes"/>
      <point x="298.83052999047925" y="218.78324341478898"/>
      <point x="258.59663598857503" y="277.4509679466836"/>
      <point x="179.64519200253886" y="277.4509679466836" type="curve" smooth="yes"/>
      <point x="102.93367185020628" y="277.4509679466836"/>
      <point x="33.16693113297366" y="207.95652173913044"/>
    </contour>
  </outline>
</glyph>
<glyph name="numbersign" format="2">
  <advance width="1222.525230085687"/>
  <unicode hex="0023"/>
  <outline>
    <contour>
      <point x="344.9130434782609" y="413.0" type="line"/>
      <point x="280.9130434782609" y="0.0" type="line"/>
      <point x="362.05172960964774" y="0.0" type="line"/>
      <point x="427.05172960964774" y="413.0" type="line"/>
      <point x="741.7946683592511" y="413.0" type="line"/>
      <point x="678.7946683592511" y="0.0" type="line"/>
      <point x="759.933354490638" y="0.0" type="line"/>
      <point x="822.933354490638" y="413.0" type="line"/>
      <point x="1084.8463979688988" y="413.0" type="line"/>
      <point x="1109.8029197080293" y="594.695652173913" type="line"/>
      <point x="851.8898762297683" y="594.695652173913" type="line"/>
      <point x="908.2811805775945" y="928.304347826087" type="line"/>
      <point x="1155.8898762297683" y="928.304347826087" type="line"/>
      <point x="1180.8463979688988" y="1108.0" type="line"/>
      <point x="933.933354490638" y="1108.0" type="line"/>
      <point x="1003.9333544906378" y="1539.0" type="line"/>
      <point x="921.7946683592511" y="1539.0" type="line"/>
      <point x="851.7946683592511" y="1108.0" type="line"/>
      <point x="538.0517296096477" y="1108.0" type="line"/>
      <point x="606.0517296096477" y="1539.0" type="line"/>
      <point x="524.9130434782609" y="1539.0" type="line"/>
      <point x="456.9130434782609" y="1108.0" type="line"/>
      <point x="204.0" y="1108.0" type="line"/>
      <point x="179.04347826086956" y="928.304347826087" type="line"/>
      <point x="428.95652173913044" y="928.304347826087" type="line"/>
      <point x="374.95652173913044" y="594.695652173913" type="line"/>
      <point x="133.95652173913044" y="594.695652173913" type="line"/>
      <point x="109.0" y="413.0" type="line"/>
    </contour>
    <contour>
      <point x="770.7511900983815" y="594.695652173913" type="line"/>
      <point x="455.0952078705173" y="594.695652173913" type="line"/>
      <point x="511.09520787051724" y="928.304347826087" type="line"/>
      <point x="826.1424944462076" y="928.304347826087" type="line"/>
    </contour>
  </outline>
</glyph>
<glyph name="dollar" format="2">
  <advance width="1084.685814027293"/>
  <unicode hex="0024"/>
  <outline>
    <contour>
      <point x="366.161536020311" y="-252.88828943192635" type="line"/>
      <point x="476.6962868930499" y="-252.66391621707393" type="line"/>
      <point x="514.9692161218661" y="-22.564265312599176" type="line"/>
      <point x="805.7778483021262" y="2.5138051412250078"/>
      <point x="979.8127578546492" y="196.17169152649953"/>
      <point x="979.8127578546492" y="439.2415106315455" type="curve" smooth="yes"/>
      <point x="979.8127578546492" y="643.4684227229451"/>
      <point x="856.5760076166297" y="736.5496667724532"/>
      <point x="719.7648365598224" y="832.5280863218026" type="curve"/>
      <point x="551.3430656934306" y="943.2837194541416"/>
      <point x="465.0225325293558" y="1026.758172008886"/>
      <point x="466.30212630910825" y="1167.1942240558553" type="curve" smooth="yes"/>
      <point x="467.21612186607433" y="1317.5353855918756"/>
      <point x="564.5376071088544" y="1433.3662329419233"/>
      <point x="687.7737226277372" y="1433.3662329419233" type="curve" smooth="yes"/>
      <point x="744.6927959377974" y="1433.5906061567755"/>
      <point x="811.2012059663599" y="1409.9184385909234"/>
      <point x="837.3351317042209" y="1378.944144715963" type="curve"/>
      <point x="846.2640431609013" y="1147.1669311329738" type="line"/>
      <point x="1000.1164709615996" y="1147.1669311329738" type="line"/>
      <point x="1056.8981275785466" y="1429.9339892097748" type="line"/>
      <point x="1010.8111710568073" y="1444.5192002538874"/>
      <point x="894.8502062837194" y="1492.5001586797844"/>
      <point x="772.4455728340208" y="1502.1472548397335" type="curve"/>
      <point x="809.0783878133926" y="1725.6439225642653" type="line"/>
      <point x="698.2421453506823" y="1725.4195493494128" type="line"/>
      <point x="663.1450333227546" y="1501.8168835290385" type="line"/>
      <point x="389.20977467470647" y="1490.2145350682324"/>
      <point x="202.17010472865758" y="1310.6705807680103"/>
      <point x="202.17010472865758" y="1053.5039669946048" type="curve" smooth="yes"/>
      <point x="202.17010472865758" y="829.8248175182482"/>
      <point x="346.0444303395747" y="730.1018724214535"/>
      <point x="462.6296413836877" y="651.8905109489051" type="curve"/>
      <point x="605.5610917169151" y="556.9101872421454"/>
      <point x="699.5223738495715" y="478.4982545223738"/>
      <point x="699.5223738495715" y="326.34433513170427" type="curve" smooth="yes"/>
      <point x="699.5223738495715" y="174.0764836559822"/>
      <point x="606.343383052999" y="49.79784195493494"/>
      <point x="451.6921612186608" y="49.79784195493494" type="curve" smooth="yes"/>
      <point x="380.19263725801335" y="49.79784195493494"/>
      <point x="316.0355442716598" y="75.61853379879403"/>
      <point x="269.9730244366868" y="120.68454458901937" type="curve"/>
      <point x="268.77213582989526" y="368.0384005077753" type="line"/>
      <point x="116.5318946366233" y="368.0384005077753" type="line"/>
      <point x="54.226912091399555" y="67.31831164709615" type="line"/>
      <point x="98.24595366550302" y="51.02443668676611"/>
      <point x="231.38495715645828" y="-9.323389400190417"/>
      <point x="404.1973976515392" y="-21.91018724214535" type="curve"/>
    </contour>
  </outline>
</glyph>
<glyph name="percent" format="2">
  <advance width="1647.0269755633133"/>
  <unicode hex="0025"/>
  <outline>
    <contour>
      <point x="410.46429704855603" y="710.0650587115201" type="curve" smooth="yes"/>
      <point x="615.6851793081562" y="710.0650587115201"/>
      <point x="787.7956204379561" y="906.983814662012"/>
      <point x="787.7956204379561" y="1165.6337670580767" type="curve" smooth="yes"/>
      <point x="787.7956204379561" y="1331.6125039669946"/>
      <point x="711.3411615360203" y="1451.0177721358298"/>
      <point x="541.8644874642971" y="1451.0177721358298" type="curve" smooth="yes"/>
      <point x="325.73722627737226" y="1451.0177721358298"/>
      <point x="158.32846715328466" y="1256.7607108854331"/>
      <point x="158.32846715328466" y="1008.2437321485244" type="curve" smooth="yes"/>
      <point x="158.32846715328466" y="828.0590288797208"/>
      <point x="251.30212630910825" y="710.0650587115201"/>
    </contour>
    <contour>
      <point x="429.6344017772136" y="770.9098698825769" type="curve" smooth="yes"/>
      <point x="374.47984766740717" y="770.9098698825769"/>
      <point x="346.710250714059" y="837.1472548397335"/>
      <point x="346.710250714059" y="968.5379244684227" type="curve" smooth="yes"/>
      <point x="346.710250714059" y="1205.4550936210726"/>
      <point x="423.9933354490638" y="1391.8714693748018"/>
      <point x="514.3059346239289" y="1391.8714693748018" type="curve" smooth="yes"/>
      <point x="569.4865122183435" y="1391.8714693748018"/>
      <point x="597.2373849571565" y="1328.0498254522374"/>
      <point x="597.2373849571565" y="1198.9063789273246" type="curve" smooth="yes"/>
      <point x="597.2373849571565" y="969.6302761028244"/>
      <point x="524.1466201205966" y="770.9098698825769"/>
    </contour>
    <contour>
      <point x="1229.3700412567437" y="1533.840050777531" type="line"/>
      <point x="362.7581720088861" y="-26.802919708029194" type="line"/>
      <point x="465.2237384957157" y="-26.802919708029194" type="line"/>
      <point x="1332.5728340209455" y="1534.0644239923836" type="line"/>
    </contour>
    <contour>
      <point x="1151.1323389400193" y="55.261821643922566" type="curve" smooth="yes"/>
      <point x="1354.2789590606158" y="55.261821643922566"/>
      <point x="1530.0726753411614" y="251.78927324658838"/>
      <point x="1530.0726753411614" y="520.1002856236115" type="curve" smooth="yes"/>
      <point x="1530.0726753411614" y="681.9276420184068"/>
      <point x="1455.5350682323071" y="796.2488099016185"/>
      <point x="1290.1453506823232" y="796.2488099016185" type="curve" smooth="yes"/>
      <point x="1074.1174230403046" y="796.2488099016185"/>
      <point x="907.318311647096" y="600.4436686766105"/>
      <point x="907.318311647096" y="346.0517296096478" type="curve" smooth="yes"/>
      <point x="907.318311647096" y="170.7715011107585"/>
      <point x="996.2402411932718" y="55.261821643922566"/>
    </contour>
    <contour>
      <point x="1180.3995556966042" y="116.50650587115203" type="curve" smooth="yes"/>
      <point x="1117.413836877182" y="116.50650587115203"/>
      <point x="1082.9676293240243" y="200.06632814979372"/>
      <point x="1082.9676293240243" y="332.42145350682324" type="curve" smooth="yes"/>
      <point x="1082.9676293240243" y="555.4376388448112"/>
      <point x="1156.6020311012376" y="736.8054585845764"/>
      <point x="1252.909869882577" y="736.8054585845764" type="curve" smooth="yes"/>
      <point x="1314.2259600126945" y="736.8054585845764"/>
      <point x="1351.1542367502382" y="657.6524912726119"/>
      <point x="1351.1542367502382" y="522.8317994287528" type="curve" smooth="yes"/>
      <point x="1351.1542367502382" y="305.69120913995556"/>
      <point x="1277.9730244366867" y="116.50650587115203"/>
    </contour>
  </outline>
</glyph>
<glyph name="ampersand" format="2">
  <advance width="1390.471596318629"/>
  <unicode hex="0026"/>
  <outline>
    <contour>
      <point x="521.1472548397335" y="-17.609647730879086" type="curve" smooth="yes"/>
      <point x="679.8349730244367" y="-17.609647730879086"/>
      <point x="787.2357981593145" y="9.638210092034276"/>
      <point x="865.3598857505553" y="54.6724849254205" type="curve"/>
      <point x="932.4630276102823" y="14.04792129482704"/>
      <point x="1000.216756585211" y="-16.19168517930816"/>
      <point x="1102.6724849254206" y="-16.19168517930816" type="curve" smooth="yes"/>
      <point x="1173.8759124087592" y="-16.19168517930816"/>
      <point x="1268.172960964773" y="-3.209139955569661"/>
      <point x="1298.8041891463026" y="15.82354807997461" type="curve"/>
      <point x="1302.3998730561727" y="76.65566486829579" type="line"/>
      <point x="1264.544589019359" y="78.915582354808"/>
      <point x="1213.3370358616312" y="94.344969850841"/>
      <point x="1167.8076801015552" y="126.98730561726437" type="curve"/>
      <point x="1137.583624246271" y="138.76515391939068"/>
      <point x="1109.64106632815" y="163.93049825452238"/>
      <point x="1080.8257695969533" y="201.634719136782" type="curve"/>
      <point x="1191.7534116153602" y="305.82640431609013"/>
      <point x="1279.3779752459536" y="463.47540463344967"/>
      <point x="1282.4550936210726" y="610.3300539511266" type="curve" smooth="yes"/>
      <point x="1283.4807997461123" y="644.6845445890193"/>
      <point x="1282.6061567756267" y="666.9238337035862"/>
      <point x="1281.8759124087592" y="680.799428752777" type="curve"/>
      <point x="1291.1437638844811" y="679.8863852745161"/>
      <point x="1303.9117740399874" y="679.9508092668993"/>
      <point x="1314.5896540780705" y="679.9508092668993" type="curve" smooth="yes"/>
      <point x="1339.3103776578862" y="679.9508092668993"/>
      <point x="1377.9511266264678" y="686.7035861631228"/>
      <point x="1412.3925737860998" y="706.0434782608696" type="curve"/>
      <point x="1412.6908917803871" y="787.8070453824183" type="line"/>
      <point x="1379.9914312916535" y="766.4246271025072"/>
      <point x="1320.112027927642" y="767.7108854331958"/>
      <point x="1285.7591240875913" y="767.7108854331958" type="curve" smooth="yes"/>
      <point x="1178.739447794351" y="767.7108854331958"/>
      <point x="1147.4992066010789" y="788.8540145985401"/>
      <point x="1054.7432561091716" y="788.8540145985401" type="curve" smooth="yes"/>
      <point x="1009.5785464931768" y="788.8540145985401"/>
      <point x="977.5677562678516" y="777.3110123770232"/>
      <point x="963.0745794985719" y="761.6766105998097" type="curve"/>
      <point x="962.18343383053" y="682.9466835925103" type="line"/>
      <point x="984.5490320533164" y="700.104728657569"/>
      <point x="1015.5810853697238" y="701.4595366550302"/>
      <point x="1049.223103776579" y="701.4595366550302" type="curve" smooth="yes"/>
      <point x="1072.7933989209773" y="701.4595366550302"/>
      <point x="1093.9533481434466" y="698.5106315455412"/>
      <point x="1106.3208505236435" y="693.1900983814662" type="curve"/>
      <point x="1113.6756585211044" y="678.2357981593145"/>
      <point x="1119.4443033957475" y="629.3405268168835"/>
      <point x="1119.4443033957475" y="567.0888606791495" type="curve" smooth="yes"/>
      <point x="1119.4443033957475" y="426.92668993970165"/>
      <point x="1069.470009520787" y="330.8876547127896"/>
      <point x="1013.2967311964455" y="269.3122818152967" type="curve"/>
      <point x="924.442399238337" y="371.00095207870515"/>
      <point x="790.749920660108" y="591.851475721993"/>
      <point x="670.6366232941924" y="794.9387496033005" type="curve"/>
      <point x="853.1570929863535" y="887.5252300856871"/>
      <point x="1080.436686766106" y="1008.6874008251348"/>
      <point x="1080.436686766106" y="1231.090130117423" type="curve" smooth="yes"/>
      <point x="1080.436686766106" y="1385.867026340844"/>
      <point x="980.4519200253886" y="1506.6264677880038"/>
      <point x="761.6959695334815" y="1506.6264677880038" type="curve" smooth="yes"/>
      <point x="498.33481434465256" y="1506.6264677880038"/>
      <point x="291.31259917486506" y="1346.2377023167246"/>
      <point x="291.31259917486506" y="1076.6480482386544" type="curve" smooth="yes"/>
      <point x="291.31259917486506" y="968.7369089178038"/>
      <point x="338.83941605839414" y="839.5366550301492"/>
      <point x="403.0193589336719" y="719.2478578229134" type="curve"/>
      <point x="205.6934306569343" y="651.156775626785"/>
      <point x="43.35290384005077" y="522.1456680418916"/>
      <point x="43.35290384005077" y="312.5985401459854" type="curve" smooth="yes"/>
      <point x="43.35290384005077" y="98.78768644874643"/>
      <point x="224.99968264043162" y="-17.609647730879086"/>
    </contour>
    <contour>
      <point x="611.691526499524" y="55.184385909235175" type="curve" smooth="yes"/>
      <point x="419.2354807997461" y="55.184385909235175"/>
      <point x="291.85020628371944" y="176.73405268168835"/>
      <point x="291.85020628371944" y="374.59600126943826" type="curve" smooth="yes"/>
      <point x="291.85020628371944" y="525.6496350364964"/>
      <point x="347.63249761980325" y="600.4563630593462"/>
      <point x="432.6474135195176" y="663.9885750555379" type="curve"/>
      <point x="558.9495398286259" y="429.75563313233897"/>
      <point x="682.4928594097113" y="252.14535068232306"/>
      <point x="800.235480799746" y="114.34592192954617" type="curve"/>
      <point x="740.8422722945097" y="79.41066328149793"/>
      <point x="686.2630910821962" y="55.184385909235175"/>
    </contour>
    <contour>
      <point x="644.7829260552205" y="845.6801015550618" type="curve"/>
      <point x="588.0206283719455" y="948.1025071405902"/>
      <point x="554.0682323072041" y="1050.0038083148206"/>
      <point x="554.0682323072041" y="1164.845128530625" type="curve" smooth="yes"/>
      <point x="554.0682323072041" y="1346.8794033640115"/>
      <point x="633.3316407489685" y="1437.7200888606792"/>
      <point x="740.3097429387497" y="1437.7200888606792" type="curve" smooth="yes"/>
      <point x="821.5547445255474" y="1437.7200888606792"/>
      <point x="862.655030149159" y="1370.9657251666138"/>
      <point x="862.655030149159" y="1257.3052999047918" type="curve" smooth="yes"/>
      <point x="862.655030149159" y="1074.272929228816"/>
      <point x="758.1180577594414" y="930.4738178356077"/>
    </contour>
  </outline>
</glyph>
<glyph name="quotesingle" format="2">
  <advance width="535.8105363376706"/>
  <unicode hex="0027"/>
  <outline>
    <contour>
      <point x="304.10663281497943" y="1664.5395112662648" type="line"/>
      <point x="262.66772453189463" y="893.7403998730562" type="line"/>
      <point x="351.2008886067915" y="893.7403998730562" type="line"/>
      <point x="549.8048238654395" y="1664.5395112662648" type="line"/>
    </contour>
  </outline>
</glyph>
<glyph name="parenleft" format="2">
  <advance width="833.6090130117423"/>
  <unicode hex="0028"/>
  <outline>
    <contour>
      <point x="155.4151063154554" y="570.3106950174548" type="curve" smooth="yes"/>
      <point x="155.4151063154554" y="17.14249444620755"/>
      <point x="467.27070771183753" y="-218.9158997143764"/>
      <point x="556.6125039669946" y="-273.2297683275151" type="curve"/>
      <point x="626.7064423992384" y="-236.01301174230403" type="line"/>
      <point x="552.6524912726119" y="-168.95969533481434"/>
      <point x="398.9673119644558" y="104.4087591240876"/>
      <point x="398.9673119644558" y="534.5979054268487" type="curve" smooth="yes"/>
      <point x="398.9673119644558" y="988.4646144081245"/>
      <point x="552.4903205331641" y="1409.0723579815933"/>
      <point x="891.7451602665822" y="1627.7486512218343" type="curve"/>
      <point x="831.959377975246" y="1669.5944144715963" type="line"/>
      <point x="428.08663916217074" y="1493.1935893367186"/>
      <point x="155.4151063154554" y="1077.0028562361153"/>
    </contour>
  </outline>
</glyph>
<glyph name="asterisk" format="2">
  <advance width="1090.7810218978102"/>
  <unicode hex="002A"/>
  <outline>
    <contour>
      <point x="156.80863218026022" y="1043.1237702316726" type="line"/>
      <point x="248.94922246905745" y="824.9178038717866" type="line"/>
      <point x="516.5166613773405" y="1043.9009838146621" type="line"/>
      <point x="592.7476991431291" y="1111.8172008886067" type="line"/>
      <point x="557.0456997778483" y="1014.6121866074262" type="line"/>
      <point x="461.1723262456363" y="680.0615677562678" type="line"/>
      <point x="700.4198667089812" y="678.6702634084418" type="line"/>
      <point x="676.8413202158046" y="1005.9669946048874" type="line"/>
      <point x="667.1707394477944" y="1109.2567438908281" type="line"/>
      <point x="729.1564582672169" y="1040.3881307521422" type="line"/>
      <point x="954.2304030466518" y="826.1497937162804" type="line"/>
      <point x="1085.0526816883528" y="1026.7803871786734" type="line"/>
      <point x="788.0066645509362" y="1138.7350047603934" type="line"/>
      <point x="703.9479530307839" y="1166.0133291018724" type="line"/>
      <point x="797.5509362107268" y="1193.1059980958426" type="line"/>
      <point x="1121.355442716598" y="1304.7112027927642" type="line"/>
      <point x="1029.397651539194" y="1516.3973341796254" type="line"/>
      <point x="757.7273881307522" y="1296.0456997778483" type="line"/>
      <point x="677.198032370676" y="1225.4535068232306" type="line"/>
      <point x="715.2142177086639" y="1327.7413519517613" type="line"/>
      <point x="810.3503649635037" y="1661.7562678514757" type="line"/>
      <point x="572.4141542367503" y="1664.5388765471278" type="line"/>
      <point x="590.3801967629324" y="1336.3865439543001" type="line"/>
      <point x="604.040622024754" y="1228.7895906061567" type="line"/>
      <point x="537.5522056490003" y="1300.0714059028878" type="line"/>
      <point x="314.42811805775943" y="1515.0053951126629" type="line"/>
      <point x="181.37162805458584" y="1309.6918438590924" type="line"/>
      <point x="478.7819739765154" y="1198.0101555061885" type="line"/>
      <point x="568.0203110123771" y="1171.507457949857" type="line"/>
      <point x="469.83052999047925" y="1144.8248175182482" type="line"/>
    </contour>
  </outline>
</glyph>
<glyph name="plus" format="2">
  <advance width="1122.9006664550936"/>
  <unicode hex="002B"/>
  <outline>
    <contour>
      <point x="483.05426848619487" y="341.98159314503334" type="line"/>
      <point x="452.4709615994922" y="131.4297048556014" type="line"/>
      <point x="568.5890193589337" y="131.4297048556014" type="line"/>
      <point x="599.5379244684227" y="341.98159314503334" type="line"/>
      <point x="624.0479212948269" y="537.6708981275785" type="line"/>
      <point x="785.8216439225642" y="536.0942557918121" type="line"/>
      <point x="971.5712472231037" y="536.0942557918121" type="line"/>
      <point x="983.3535385591875" y="640.0409393843224" type="line"/>
      <point x="802.1282132656298" y="640.0409393843224" type="line"/>
      <point x="635.2408759124088" y="637.5731513805141" type="line"/>
      <point x="666.1669311329737" y="834.7369089178039" type="line"/>
      <point x="695.2986353538558" y="1039.9346239289114" type="line"/>
      <point x="578.9977784830213" y="1039.9346239289114" type="line"/>
      <point x="549.546175817201" y="834.7369089178039" type="line"/>
      <point x="524.9333544906378" y="637.5731513805141" type="line"/>
      <point x="335.5534750872739" y="640.0409393843224" type="line"/>
      <point x="170.53443351317043" y="640.0409393843224" type="line"/>
      <point x="158.6721675658521" y="536.0942557918121" type="line"/>
      <point x="319.24690574420816" y="536.0942557918121" type="line"/>
      <point x="511.32307204062204" y="537.6708981275785" type="line"/>
    </contour>
  </outline>
</glyph>
<glyph name="comma" format="2">
  <advance width="411.8432243732149"/>
  <unicode hex="002C"/>
  <outline>
    <contour>
      <point x="15.059663598857501" y="115.23452872104093" type="line"/>
      <point x="13.98540145985401" y="76.79784195493494" type="line"/>
      <point x="64.60012694382735" y="65.5245953665503"/>
      <point x="101.7042208822596" y="-21.2887972072358"/>
      <point x="101.7042208822596" y="-104.73849571564583" type="curve" smooth="yes"/>
      <point x="101.7042208822596" y="-197.01808949539827"/>
      <point x="58.59536655030149" y="-344.69819105046014"/>
      <point x="-43.621390034909545" y="-406.76896223421136" type="curve"/>
      <point x="-44.900031735956844" y="-423.88448111710574" type="line"/>
      <point x="-14.459854014598537" y="-465.16978736908914" type="line"/>
      <point x="154.76229768327516" y="-394.6426531259918"/>
      <point x="295.66137734052677" y="-215.44938114884167"/>
      <point x="295.66137734052677" y="-17.927642018406853" type="curve" smooth="yes"/>
      <point x="295.66137734052677" y="94.26816883529038"/>
      <point x="244.06823230720406" y="211.20533164074897"/>
      <point x="143.9324024119327" y="250.8073627419867" type="curve"/>
    </contour>
  </outline>
</glyph>
<glyph name="hyphen" format="2">
  <advance width="939.6385274516027"/>
  <unicode hex="002D"/>
  <outline>
    <contour>
      <point x="802.5309425579181" y="637.5093621072674" type="line"/>
      <point x="171.19168517930817" y="637.5093621072674" type="line"/>
      <point x="155.9470009520787" y="532.008886067915" type="line"/>
      <point x="787.2862583306886" y="532.008886067915" type="line"/>
    </contour>
  </outline>
</glyph>
<glyph name="period" format="2">
  <advance width="397.34655664868296"/>
  <unicode hex="002E"/>
  <outline>
    <contour>
      <point x="17.017772135829894" y="102.11012377023167" type="curve" smooth="yes"/>
      <point x="16.19517613456046" y="26.472231037765788"/>
      <point x="65.61472548397334" y="-21.314503332275468"/>
      <point x="124.11996191685179" y="-21.314503332275468" type="curve" smooth="yes"/>
      <point x="203.56934306569343" y="-21.314503332275468"/>
      <point x="272.9130434782609" y="37.22786417010473"/>
      <point x="273.63281497937163" y="144.02665820374483" type="curve" smooth="yes"/>
      <point x="274.19263725801335" y="210.5775944144716"/>
      <point x="235.57727705490316" y="267.1939066962869"/>
      <point x="159.19009838146619" y="267.1939066962869" type="curve" smooth="yes"/>
      <point x="85.0428435417328" y="267.1939066962869"/>
      <point x="17.840368137099333" y="200.26372580133292"/>
    </contour>
  </outline>
</glyph>
<glyph name="one" format="2">
  <advance width="786.6239289114567"/>
  <unicode hex="0031"/>
  <anchor x="437.6271025071406" y="1660.0" name="top"/>
  <outline>
    <contour>
      <point x="14.719136781973974" y="55.04157410345921" type="line"/>
      <point x="7.638527451602665" y="0.0" type="line"/>
      <point x="687.6309108219614" y="0.0" type="line"/>
      <point x="694.1859727070771" y="55.04157410345921" type="line"/>
      <point x="502.37797524595373" y="85.7991113932085" type="line"/>
      <point x="691.7445255474453" y="1470.4141542367502" type="line"/>
      <point x="547.3030783878133" y="1506.2887972072358" type="line"/>
      <point x="442.8298952713424" y="1413.2129482703904"/>
      <point x="295.36877181847035" y="1322.9930180894955"/>
      <point x="127.47603935258648" y="1273.4084417645192" type="curve"/>
      <point x="140.317359568391" y="1201.4151063154557" type="line"/>
      <point x="225.8844811171057" y="1212.625515709299"/>
      <point x="325.95271342430976" y="1236.9622342113614"/>
      <point x="382.8495715645827" y="1255.4420818787687" type="curve"/>
      <point x="223.10663281497935" y="85.63916217073944" type="line"/>
    </contour>
  </outline>
</glyph>
<glyph name="two" format="2">
  <advance width="1033.7813392573787"/>
  <unicode hex="0032"/>
  <outline>
    <contour>
      <point x="20.920977467470642" y="0.0" type="line"/>
      <point x="878.3221199619169" y="0.0" type="line"/>
      <point x="975.8613138686131" y="391.58521104411295" type="line"/>
      <point x="900.1783560774358" y="417.2843541732783" type="line"/>
      <point x="802.4328784512852" y="246.85369723897176" type="line"/>
      <point x="141.38019676293237" y="157.1551888289432" type="line"/>
      <point x="502.4074896858141" y="395.7254839733418"/>
      <point x="994.6731196445573" y="758.9593779752458"/>
      <point x="994.6731196445573" y="1141.7391304347827" type="curve" smooth="yes"/>
      <point x="994.6731196445573" y="1368.5966359885751"/>
      <point x="825.9444620755315" y="1500.2383370358616"/>
      <point x="601.1993018089495" y="1500.2383370358616" type="curve" smooth="yes"/>
      <point x="401.38337035861633" y="1500.2383370358616"/>
      <point x="213.47318311647095" y="1385.0276102824498"/>
      <point x="137.52649952396067" y="1275.6131386861314" type="curve"/>
      <point x="170.01904157410345" y="1216.5296731196445" type="line"/>
      <point x="251.50650587115203" y="1296.1098064106632"/>
      <point x="359.8416375753729" y="1354.3024436686767"/>
      <point x="473.50841002856237" y="1354.3024436686767" type="curve" smooth="yes"/>
      <point x="626.425261821644" y="1354.3024436686767"/>
      <point x="705.3951126626469" y="1255.2545223738496"/>
      <point x="704.8467153284672" y="1103.3075214217708" type="curve" smooth="yes"/>
      <point x="703.2015233259283" y="774.893684544589"/>
      <point x="289.59124087591243" y="337.68803554427166"/>
      <point x="-24.147889558870197" y="117.03237067597588" type="curve"/>
    </contour>
  </outline>
</glyph>
<glyph name="three" format="2">
  <advance width="935.0361789907965"/>
  <unicode hex="0033"/>
  <outline>
    <contour>
      <point x="243.50206283719456" y="-15.088543319581087" type="curve" smooth="yes"/>
      <point x="570.0076166296413" y="-15.088543319581087"/>
      <point x="885.9051094890511" y="189.70517296096477"/>
      <point x="885.9051094890511" y="480.82386543954306" type="curve" smooth="yes"/>
      <point x="885.9051094890511" y="688.3678197397651"/>
      <point x="714.3979688987622" y="798.640431609013"/>
      <point x="445.17994287527773" y="760.7137416693114" type="curve"/>
      <point x="735.5017454776262" y="845.3281497937163"/>
      <point x="908.7131069501745" y="1039.6975563313235"/>
      <point x="908.7131069501745" y="1220.3414788955886" type="curve" smooth="yes"/>
      <point x="908.7131069501745" y="1385.8549666772453"/>
      <point x="774.4941288479847" y="1496.3843224373215"/>
      <point x="570.6293240241193" y="1496.3843224373215" type="curve" smooth="yes"/>
      <point x="376.72897492859414" y="1496.3843224373215"/>
      <point x="216.42875277689623" y="1403.9565217391307"/>
      <point x="117.29419231989843" y="1307.2681688352905" type="curve"/>
      <point x="144.06791494763567" y="1245.8076801015552" type="line"/>
      <point x="230.4820691843859" y="1312.0710885433193"/>
      <point x="338.7914947635671" y="1353.8914630276104"/>
      <point x="440.4506505871152" y="1352.4290701364648" type="curve" smooth="yes"/>
      <point x="556.9016185337988" y="1350.6010790225325"/>
      <point x="624.9035226912091" y="1287.58774992066"/>
      <point x="624.9035226912091" y="1169.5458584576324" type="curve" smooth="yes"/>
      <point x="624.9035226912091" y="1003.3341796255156"/>
      <point x="474.45794985718817" y="829.6956521739131"/>
      <point x="225.94446207553156" y="761.541415423675" type="curve"/>
      <point x="214.63567121548712" y="682.2903840050776" type="line"/>
      <point x="244.69787369089178" y="691.6816883529038"/>
      <point x="292.12916534433515" y="706.9901618533798"/>
      <point x="323.5985401459854" y="716.9901618533798" type="curve"/>
      <point x="518.6775626785147" y="724.8676610599811"/>
      <point x="583.7933989209774" y="604.8797207235799"/>
      <point x="583.7933989209774" y="472.70422088225956" type="curve" smooth="yes"/>
      <point x="583.7933989209774" y="238.4960330053951"/>
      <point x="396.2392891145668" y="82.86766105998095"/>
      <point x="182.00063471913677" y="82.86766105998095" type="curve" smooth="yes"/>
      <point x="104.2992700729927" y="82.86766105998095"/>
      <point x="47.246905744208185" y="91.9330371310695"/>
      <point x="-0.4712789590606121" y="108.66486829577913" type="curve"/>
      <point x="-18.172960964773086" y="34.548079974611234" type="line"/>
      <point x="49.352269120913995" y="4.802919708029197"/>
      <point x="129.98857505553792" y="-15.088543319581087"/>
    </contour>
  </outline>
</glyph>
<glyph name="four" format="2">
  <advance width="1099.1536020311012"/>
  <unicode hex="0034"/>
  <outline>
    <contour>
      <point x="575.237702316725" y="0.0" type="line"/>
      <point x="844.193906696287" y="0.0" type="line"/>
      <point x="891.0066645509362" y="331.7216756585211" type="line"/>
      <point x="1054.5093621072674" y="331.53887654712787" type="line"/>
      <point x="1074.2411932719772" y="496.06537607108856" type="line"/>
      <point x="911.6810536337671" y="481.770231672485" type="line"/>
      <point x="968.9070136464615" y="879.0" type="line"/>
      <point x="722.4389082830846" y="832.0" type="line"/>
      <point x="643.2484925420501" y="464.3294192319899" type="line"/>
      <point x="146.7603935258648" y="421.8670263408442" type="line"/>
      <point x="200.49603300539513" y="474.13614725483967"/>
      <point x="245.10092034274834" y="524.4138368771819"/>
      <point x="287.07394477943507" y="572.5201523325928" type="curve"/>
      <point x="403.67914947635666" y="716.934306569343"/>
      <point x="693.2538876547128" y="1171.4379562043796"/>
      <point x="807.0101555061885" y="1396.306886702634" type="curve"/>
      <point x="593.6017137416693" y="1500.9130434782608" type="line"/>
      <point x="523.3005395112662" y="1500.9130434782608" type="line"/>
      <point x="383.3240241193272" y="1142.925420501428"/>
      <point x="184.32148524278008" y="687.007299270073"/>
      <point x="24.334814344652493" y="436.75944144715965" type="curve"/>
      <point x="83.94192319898444" y="331.53887654712787" type="line"/>
      <point x="622.5572834020945" y="331.7216756585211" type="line"/>
    </contour>
  </outline>
</glyph>
<glyph name="five" format="2">
  <advance width="978.4912726118692"/>
  <unicode hex="0035"/>
  <outline>
    <contour>
      <point x="33.92161218660742" y="89.49761980323706" type="curve"/>
      <point x="23.875595049190736" y="18.339257378609965" type="line"/>
      <point x="75.16756585211044" y="-5.577911774039988"/>
      <point x="151.82100920342748" y="-21.464297048556013"/>
      <point x="236.30053951126624" y="-21.464297048556013" type="curve" smooth="yes"/>
      <point x="618.3586163122818" y="-21.464297048556013"/>
      <point x="923.0679149476356" y="236.83211678832117"/>
      <point x="923.0679149476356" y="557.1764519200253" type="curve" smooth="yes"/>
      <point x="923.0679149476356" y="793.7451602665819"/>
      <point x="785.5401459854015" y="918.4474769914314"/>
      <point x="573.6705807680103" y="918.4474769914314" type="curve" smooth="yes"/>
      <point x="436.8768644874643" y="918.4474769914314"/>
      <point x="296.8914630276103" y="856.793081561409"/>
      <point x="197.65629958743256" y="779.574738178356" type="curve"/>
      <point x="364.0114249444621" y="1246.2481751824816" type="line"/>
      <point x="941.401777213583" y="1245.8825769596954" type="line"/>
      <point x="1003.0707711837512" y="1513.391304347826" type="line"/>
      <point x="912.8908283084735" y="1513.391304347826" type="line"/>
      <point x="888.0231672484925" y="1486.0" type="line"/>
      <point x="254.1837511900984" y="1486.0" type="line"/>
      <point x="99.47286575690259" y="748.7994287527769" type="line"/>
      <point x="155.7004125674389" y="706.9317676927959" type="line"/>
      <point x="233.37892732465883" y="750.2592827673753"/>
      <point x="298.8314820691844" y="786.086004443034"/>
      <point x="413.4182799111393" y="786.086004443034" type="curve" smooth="yes"/>
      <point x="558.7549984132022" y="786.086004443034"/>
      <point x="643.8241827991113" y="685.9317676927959"/>
      <point x="641.5804506505872" y="517.4271659790543" type="curve" smooth="yes"/>
      <point x="638.6635988575056" y="258.72389717549987"/>
      <point x="441.88067280228495" y="64.32941923198983"/>
      <point x="178.74420818787686" y="64.32941923198983" type="curve" smooth="yes"/>
      <point x="120.87940336401141" y="64.32941923198983"/>
      <point x="74.05934623928911" y="76.3976515391939"/>
    </contour>
  </outline>
</glyph>
<glyph name="six" format="2">
  <advance width="1107.5652173913045"/>
  <unicode hex="0036"/>
  <outline>
    <contour>
      <point x="531.6245636305935" y="-26.078070453824182" type="curve" smooth="yes"/>
      <point x="840.5658521104411" y="-26.078070453824182"/>
      <point x="1075.2291336083783" y="257.3332275468105"/>
      <point x="1075.2291336083783" y="586.7473817835609" type="curve" smooth="yes"/>
      <point x="1075.2291336083783" y="821.462710250714"/>
      <point x="935.97238971755" y="960.4436686766105"/>
      <point x="726.8946366232942" y="960.4436686766105" type="curve" smooth="yes"/>
      <point x="596.0647413519517" y="960.4436686766105"/>
      <point x="458.2649952396065" y="887.3249761980323"/>
      <point x="394.08029197080293" y="772.7933989209774" type="curve"/>
      <point x="447.45604569977786" y="1048.2818152967313"/>
      <point x="657.6274198667089" y="1381.2713424309743"/>
      <point x="949.9117740399873" y="1465.2700729927008" type="curve"/>
      <point x="926.6052046969215" y="1526.8962234211363" type="line"/>
      <point x="453.202158045065" y="1456.097429387496"/>
      <point x="76.93240241193273" y="1026.32148524278"/>
      <point x="76.93240241193273" y="526.918121231355" type="curve" smooth="yes"/>
      <point x="76.93240241193273" y="230.49412884798477"/>
      <point x="235.0910821961282" y="-26.078070453824182"/>
    </contour>
    <contour>
      <point x="543.9638210092033" y="43.800063471913674" type="curve" smooth="yes"/>
      <point x="417.6013963821009" y="45.5950491907331"/>
      <point x="360.46905744208186" y="194.24880990161853"/>
      <point x="360.46905744208186" y="436.8838463979689" type="curve" smooth="yes"/>
      <point x="360.46905744208186" y="550.915582354808"/>
      <point x="368.2922881624881" y="600.2180260234846"/>
      <point x="381.02887972072364" y="682.091716915265" type="curve"/>
      <point x="433.3748016502698" y="769.4141542367502"/>
      <point x="531.6226594731831" y="825.7997461123452"/>
      <point x="611.1904157410347" y="825.7997461123452" type="curve" smooth="yes"/>
      <point x="721.6359885750555" y="825.7997461123452"/>
      <point x="792.0003173595684" y="715.1190098381466"/>
      <point x="792.0003173595684" y="525.7016820057124" type="curve" smooth="yes"/>
      <point x="792.0003173595684" y="262.85782291336085"/>
      <point x="691.9822278641701" y="43.800063471913674"/>
    </contour>
  </outline>
</glyph>
<glyph name="seven" format="2">
  <advance width="1016.5449063789273"/>
  <unicode hex="0037"/>
  <outline>
    <contour>
      <point x="944.425261821644" y="1254.4389082830849" type="line"/>
      <point x="225.25230085687082" y="0.8974928594097111" type="line"/>
      <point x="523.4049508092669" y="-1.391304347826087" type="line"/>
      <point x="1093.6112345287208" y="1438.3859092351636" type="line"/>
      <point x="1061.3760710885433" y="1486.0" type="line"/>
      <point x="201.46683592510317" y="1486.0" type="line"/>
      <point x="131.09742938749602" y="1045.2510314185974" type="line"/>
      <point x="216.302761028245" y="1030.84417645192" type="line"/>
      <point x="312.1796255157093" y="1254.5188828943192" type="line"/>
    </contour>
  </outline>
</glyph>
<glyph name="eight" format="2">
  <advance width="1086.736274198667"/>
  <unicode hex="0038"/>
  <outline>
    <contour>
      <point x="472.91431291653447" y="-20.670898127578546" type="curve" smooth="yes"/>
      <point x="787.7588067280228" y="-20.670898127578546"/>
      <point x="1006.5061885115837" y="174.39892097746744"/>
      <point x="1008.3748016502699" y="403.26626467788003" type="curve" smooth="yes"/>
      <point x="1009.730561726436" y="589.9397016820056"/>
      <point x="879.4020945731514" y="711.9758806728023"/>
      <point x="724.6439225642653" y="822.4735004760394" type="curve"/>
      <point x="918.8794033640114" y="886.1351951761345"/>
      <point x="1050.961916851793" y="1025.7788003808316"/>
      <point x="1052.1348778165661" y="1200.1536020311012" type="curve" smooth="yes"/>
      <point x="1053.3078387813393" y="1391.5518882894319"/>
      <point x="876.5318946366234" y="1503.121866074262"/>
      <point x="668.4681053633767" y="1503.121866074262" type="curve" smooth="yes"/>
      <point x="397.3357664233576" y="1503.121866074262"/>
      <point x="189.2754681053634" y="1320.7502380196763"/>
      <point x="187.77245318946368" y="1085.973341796255" type="curve" smooth="yes"/>
      <point x="187.1123452872104" y="947.2259600126944"/>
      <point x="264.71659790542685" y="824.3256109171691"/>
      <point x="385.35671215487145" y="721.3687718184703" type="curve"/>
      <point x="170.95715645826724" y="663.8219612821326"/>
      <point x="38.85972707077119" y="526.2665820374484"/>
      <point x="39.2253252935576" y="341.01682005712473" type="curve" smooth="yes"/>
      <point x="39.773722627737236" y="109.36083782926055"/>
      <point x="263.42367502380193" y="-20.670898127578546"/>
    </contour>
    <contour>
      <point x="675.1009203427483" y="861.4582672167566" type="curve"/>
      <point x="532.9479530307839" y="953.5036496350365"/>
      <point x="432.4982545223739" y="1051.1301174230402"/>
      <point x="432.31545541098063" y="1198.9257378609966" type="curve" smooth="yes"/>
      <point x="432.13265629958744" y="1355.577277054903"/>
      <point x="540.745160266582" y="1436.9022532529355"/>
      <point x="659.0561726436052" y="1436.9022532529355" type="curve" smooth="yes"/>
      <point x="773.7784830212631" y="1436.9022532529355"/>
      <point x="856.5134877816565" y="1338.091716915265"/>
      <point x="855.1577277054903" y="1194.6340844176452" type="curve" smooth="yes"/>
      <point x="854.3148206918438" y="1064.6861313868612"/>
      <point x="782.3694065376071" y="930.0828308473501"/>
    </contour>
    <contour>
      <point x="488.39701682005716" y="48.89495398286259" type="curve" smooth="yes"/>
      <point x="349.3446524912726" y="48.89495398286259"/>
      <point x="250.6718502062837" y="175.58489368454462"/>
      <point x="250.80894953982863" y="338.7251666137734" type="curve" smooth="yes"/>
      <point x="250.94604887337348" y="493.46842272294515"/>
      <point x="308.8308473500476" y="621.9117740399873"/>
      <point x="427.8178356077436" y="685.3160901301173" type="curve"/>
      <point x="583.1040939384322" y="572.5617264360519"/>
      <point x="744.1567756267851" y="464.1602665820375"/>
      <point x="744.3395747381783" y="306.21612186607433" type="curve" smooth="yes"/>
      <point x="744.5223738495715" y="142.1437638844811"/>
      <point x="643.0533164074897" y="48.89495398286259"/>
    </contour>
  </outline>
</glyph>
<glyph name="nine" format="2">
  <advance width="1097.2392891145669"/>
  <unicode hex="0039"/>
  <outline>
    <contour>
      <point x="224.99968264043162" y="-50.74198667089813" type="line"/>
      <point x="721.4649317676927" y="20.22405585528403"/>
      <point x="1082.6766105998097" y="467.5096794668359"/>
      <point x="1082.6766105998097" y="964.7204062202476" type="curve" smooth="yes"/>
      <point x="1082.6766105998097" y="1261.7953030783876"/>
      <point x="936.6502697556331" y="1502.543002221517"/>
      <point x="626.7991113932085" y="1502.383052999048" type="curve" smooth="yes"/>
      <point x="342.8222786417011" y="1502.2231037765787"/>
      <point x="99.05553792446844" y="1273.7432561091719"/>
      <point x="99.05553792446844" y="933.9450967946684" type="curve" smooth="yes"/>
      <point x="99.05553792446844" y="696.4122500793399"/>
      <point x="239.4373214852428" y="509.89273246588385"/>
      <point x="442.9923833703586" y="509.89273246588385" type="curve" smooth="yes"/>
      <point x="568.7121548714695" y="509.89273246588385"/>
      <point x="690.0431609013012" y="589.7746747064425"/>
      <point x="748.7876864487464" y="702.2761028245002" type="curve"/>
      <point x="700.1082196128212" y="415.60203110123774"/>
      <point x="493.0412567438908" y="89.35131704220882"/>
      <point x="199.20184068549668" y="12.974293874960331" type="curve"/>
    </contour>
    <contour>
      <point x="556.5087273881308" y="642.5877499206601" type="curve" smooth="yes"/>
      <point x="456.17232624563627" y="642.5877499206601"/>
      <point x="388.73246588384643" y="768.5512535702951"/>
      <point x="388.73246588384643" y="963.2015233259282" type="curve" smooth="yes"/>
      <point x="388.73246588384643" y="1227.521104411298"/>
      <point x="475.6591558235481" y="1433.065693430657"/>
      <point x="624.6667724531894" y="1434.1875595049191" type="curve" smooth="yes"/>
      <point x="749.8527451602666" y="1435.5337987940336"/>
      <point x="793.484608060933" y="1258.1789907965724"/>
      <point x="791.913995556966" y="1063.970802919708" type="curve" smooth="yes"/>
      <point x="791.4652491272612" y="955.0288797207236"/>
      <point x="777.5007933989211" y="868.1574103459219"/>
      <point x="759.1288479847667" y="790.0717232624564" type="curve"/>
      <point x="711.0879086004444" y="694.1269438273564"/>
      <point x="625.7610282450016" y="642.5877499206601"/>
    </contour>
  </outline>
</glyph>
<glyph name="less" format="2">
  <advance width="1075.0742621390036"/>
  <unicode hex="003C"/>
  <outline>
    <contour>
      <point x="118.80323706759758" y="624.1624880990162" type="line"/>
      <point x="107.36369406537607" y="540.8349730244366" type="line"/>
      <point x="858.50491907331" y="92.823865439543" type="line"/>
      <point x="873.915582354808" y="214.47762615042845" type="line"/>
      <point x="257.4039987305618" y="577.7584893684544" type="line"/>
      <point x="975.6486829577912" y="942.0466518565535" type="line"/>
      <point x="992.6017137416694" y="1075.6997778483021" type="line"/>
    </contour>
  </outline>
</glyph>
<glyph name="equal" format="2">
  <advance width="1058.8441764519202"/>
  <unicode hex="003D"/>
  <outline>
    <contour>
      <point x="206.19168517930817" y="895.0066645509362" type="line"/>
      <point x="192.36369406537608" y="788.1910504601714" type="line"/>
      <point x="941.5147572199302" y="788.1910504601714" type="line"/>
      <point x="955.5026975563313" y="895.0066645509362" type="line"/>
    </contour>
    <contour>
      <point x="135.9860361789908" y="381.9615994922247" type="line"/>
      <point x="122.34084417645192" y="275.1459854014599" type="line"/>
      <point x="871.491907331006" y="275.1459854014599" type="line"/>
      <point x="885.4798476674072" y="381.9615994922247" type="line"/>
    </contour>
  </outline>
</glyph>
<glyph name="question" format="2">
  <advance width="862.198032370676"/>
  <unicode hex="003F"/>
  <outline>
    <contour>
      <point x="259.7807045382418" y="436.0501428118058" type="curve"/>
      <point x="271.40907648365595" y="434.0501428118058" type="line"/>
      <point x="347.47730879086004" y="459.83338622659477" type="line"/>
      <point x="339.0485560139638" y="496.3551253570296"/>
      <point x="332.7870517296097" y="566.3805141225008"/>
      <point x="333.8838463979689" y="638.630593462393" type="curve" smooth="yes"/>
      <point x="335.0606156775627" y="747.627419866709"/>
      <point x="411.79435099968265" y="798.2224690574421"/>
      <point x="500.564900031736" y="851.0615677562679" type="curve" smooth="yes"/>
      <point x="611.6524912726118" y="916.0450650587115"/>
      <point x="723.7870517296095" y="985.6077435734687"/>
      <point x="812.3224373214853" y="1093.873373532212" type="curve" smooth="yes"/>
      <point x="864.1770866391622" y="1155.358616312282"/>
      <point x="912.7791177403999" y="1250.6975563313233"/>
      <point x="912.7791177403999" y="1369.1037765788637" type="curve" smooth="yes"/>
      <point x="912.7791177403999" y="1566.7115201523327"/>
      <point x="805.7080291970802" y="1755.8276737543636"/>
      <point x="508.5817200888607" y="1755.8276737543636" type="curve" smooth="yes"/>
      <point x="339.16439225642654" y="1755.8276737543636"/>
      <point x="229.16185337987943" y="1690.0072992700732"/>
      <point x="204.05426848619484" y="1667.6594731831165" type="curve"/>
      <point x="181.45572834020948" y="1572.5756902570613" type="line"/>
      <point x="214.84957156458267" y="1590.4925420501427"/>
      <point x="293.40939384322434" y="1617.8781339257378"/>
      <point x="387.6861313868613" y="1617.8781339257378" type="curve" smooth="yes"/>
      <point x="562.199619168518" y="1617.8781339257378"/>
      <point x="655.620120596636" y="1501.2567438908284"/>
      <point x="654.3405268168835" y="1310.1920025388765" type="curve" smooth="yes"/>
      <point x="653.8949539828625" y="1251.3478260869565"/>
      <point x="637.6547127895906" y="1169.489368454459"/>
      <point x="614.2218343383053" y="1130.1018724214537" type="curve"/>
      <point x="566.3662329419233" y="1058.6026658203746"/>
      <point x="504.440812440495" y="1001.2408759124089"/>
      <point x="425.51951761345606" y="949.9714376388448" type="curve" smooth="yes"/>
      <point x="307.17803871786737" y="870.6543954300222"/>
      <point x="206.47857822913357" y="799.1006029831799"/>
      <point x="206.47857822913357" y="672.7042208822596" type="curve" smooth="yes"/>
      <point x="206.47857822913357" y="583.2989527134243"/>
      <point x="234.96033005395114" y="483.51126626467783"/>
    </contour>
    <contour>
      <point x="217.6029831799429" y="106.21294827039034" type="curve" smooth="yes"/>
      <point x="216.78038717867344" y="28.010790225325295"/>
      <point x="268.76420184068553" y="-21.314503332275468"/>
      <point x="328.8079974611234" y="-21.314503332275468" type="curve" smooth="yes"/>
      <point x="411.3344969850842" y="-21.314503332275468"/>
      <point x="482.72960964773085" y="39.279276420184075"/>
      <point x="483.44938114884167" y="150.18089495398286" type="curve" smooth="yes"/>
      <point x="484.00920342748327" y="218.78324341478898"/>
      <point x="443.8552840368137" y="277.4509679466836"/>
      <point x="364.90384005077755" y="277.4509679466836" type="curve" smooth="yes"/>
      <point x="288.19231989844496" y="277.4509679466836"/>
      <point x="218.4255791812123" y="207.95652173913044"/>
    </contour>
  </outline>
</glyph>
<glyph name="at" format="2">
  <advance width="1754.1723262456364"/>
  <unicode hex="0040"/>
  <outline>
    <contour>
      <point x="63.78260869565217" y="316.6429704855601" type="curve" smooth="yes"/>
      <point x="63.78260869565217" y="-189.3484608060933"/>
      <point x="366.0244366867661" y="-500.0"/>
      <point x="788.4630276102824" y="-500.0" type="curve" smooth="yes"/>
      <point x="963.6464614408126" y="-500.0"/>
      <point x="1122.9873056172644" y="-448.80704538241827"/>
      <point x="1221.0491907331007" y="-365.35766423357666" type="curve"/>
      <point x="1201.776896223421" y="-306.4160583941606" type="line"/>
      <point x="1118.2624563630593" y="-376.5461758172009"/>
      <point x="955.9013011742304" y="-432.8740082513488"/>
      <point x="805.3732148524279" y="-432.36115518882895" type="curve" smooth="yes"/>
      <point x="446.62488099016184" y="-431.33544906378927"/>
      <point x="200.08346556648684" y="-125.82989527134244"/>
      <point x="200.08346556648684" y="347.5629958743256" type="curve" smooth="yes"/>
      <point x="200.08346556648684" y="885.5442716597905"/>
      <point x="547.0990161853379" y="1387.094890510949"/>
      <point x="1020.9946048873373" y="1387.094890510949" type="curve" smooth="yes"/>
      <point x="1305.03744842907" y="1387.094890510949"/>
      <point x="1590.3208505236432" y="1203.5096794668361"/>
      <point x="1590.3208505236432" y="793.2672167565853" type="curve" smooth="yes"/>
      <point x="1590.3208505236432" y="403.49603300539513"/>
      <point x="1380.3002221516979" y="84.78356077435735"/>
      <point x="1279.4249444620757" y="84.78356077435735" type="curve" smooth="yes"/>
      <point x="1248.6093303713108" y="84.78356077435735"/>
      <point x="1233.9669946048875" y="108.59727070771183"/>
      <point x="1233.8870199936528" y="162.22691209139956" type="curve" smooth="yes"/>
      <point x="1233.5671215487146" y="197.09901618533797"/>
      <point x="1236.603935258648" y="249.98857505553792"/>
      <point x="1245.4820691843859" y="319.6499523960647" type="curve" smooth="yes"/>
      <point x="1267.4084417645192" y="492.50714059028877"/>
      <point x="1326.6236115518882" y="811.1577277054904"/>
      <point x="1372.6401142494447" y="968.3376705807681" type="curve"/>
      <point x="1176.3087908600444" y="937.1491589971438" type="line"/>
      <point x="1117.3281497937164" y="967.9371628054587"/>
      <point x="1030.88162488099" y="988.7813392573786"/>
      <point x="957.2843541732782" y="988.7813392573786" type="curve" smooth="yes"/>
      <point x="637.6429704855601" y="988.7813392573786"/>
      <point x="448.4992066010791" y="656.0933037131069"/>
      <point x="448.33925737860994" y="357.57695969533484" type="curve" smooth="yes"/>
      <point x="447.9965090447477" y="97.89939701682006"/>
      <point x="587.6490003173595" y="-34.74389082830847"/>
      <point x="691.005712472231" y="-34.74389082830847" type="curve" smooth="yes"/>
      <point x="863.0168200571247" y="-34.74389082830847"/>
      <point x="969.405902887972" y="164.78324341478893"/>
      <point x="1074.559504919073" y="400.8682957791177" type="curve"/>
      <point x="1035.2935576007617" y="254.86639162170738"/>
      <point x="1027.2380196762933" y="164.03713106950175"/>
      <point x="1027.2380196762933" y="112.68422722945095" type="curve" smooth="yes"/>
      <point x="1027.2380196762933" y="21.946366232941923"/>
      <point x="1065.37670580768" y="-28.98920977467471"/>
      <point x="1144.9758806728023" y="-28.98920977467471" type="curve" smooth="yes"/>
      <point x="1396.2592827673755" y="-28.98920977467471"/>
      <point x="1712.8657569025704" y="310.6927959377975"/>
      <point x="1712.8657569025704" y="823.5804506505871" type="curve" smooth="yes"/>
      <point x="1712.8657569025704" y="1239.3551253570295"/>
      <point x="1399.9435099968264" y="1454.7591240875913"/>
      <point x="1074.8724214535068" y="1454.7591240875913" type="curve" smooth="yes"/>
      <point x="543.4992066010791" y="1454.7591240875913"/>
      <point x="63.78260869565217" y="987.9752459536654"/>
    </contour>
    <contour>
      <point x="683.3944779435101" y="385.3256109171692" type="curve" smooth="yes"/>
      <point x="683.9073310060298" y="703.1351951761345"/>
      <point x="798.0920342748334" y="915.6153602031102"/>
      <point x="940.1421770866391" y="915.6153602031102" type="curve" smooth="yes"/>
      <point x="1018.2840368137099" y="915.6153602031102"/>
      <point x="1087.9898444938115" y="878.3725801332911"/>
      <point x="1139.2488099016186" y="815.2611869247858" type="curve"/>
      <point x="1078.3367185020627" y="507.88225960012693"/>
      <point x="919.7035861631227" y="121.97365915582355"/>
      <point x="794.9755633132339" y="121.97365915582355" type="curve" smooth="yes"/>
      <point x="728.3630593462393" y="121.97365915582355"/>
      <point x="683.9073310060298" y="214.61155188828945"/>
    </contour>
  </outline>
</glyph>
<glyph name="A" format="2">
  <advance width="1145.9447794351"/>
  <unicode hex="0041"/>
  <anchor x="450.38844811171055" y="0.0" name="bottom"/>
  <anchor x="947.0853697238971" y="0.0" name="ogonek"/>
  <anchor x="721.056807362742" y="1486.0" name="top"/>
  <outline>
    <contour>
      <point x="-145.85782291336082" y="0.0" type="line"/>
      <point x="270.36718502062837" y="-0.512853062519835" type="line"/>
      <point x="276.36115518882895" y="50.72802284988892" type="line"/>
      <point x="108.28943192637259" y="82.79942875277689" type="line"/>
      <point x="553.018724214535" y="1189.9663598857508" type="line"/>
      <point x="632.1735956839099" y="1410.973976515392" type="line"/>
      <point x="587.5499841320216" y="1394.9793716280547" type="line"/>
      <point x="612.5483973341796" y="1140.5874325610916" type="line"/>
      <point x="753.4379562043796" y="81.51761345604571" type="line"/>
      <point x="611.7035861631228" y="52.26658203744843" type="line"/>
      <point x="606.5436369406538" y="0.0" type="line"/>
      <point x="1173.0961599492223" y="0.0" type="line"/>
      <point x="1178.2916534433514" y="52.26658203744843" type="line"/>
      <point x="1057.5531577277056" y="82.20311012377023" type="line"/>
      <point x="847.9749285940972" y="1492.3932085052365" type="line"/>
      <point x="592.729609647731" y="1491.3675023801968" type="line"/>
      <point x="-10.42780069819105" y="83.72929228816248" type="line"/>
      <point x="-141.3452872104094" y="51.24087591240876" type="line"/>
    </contour>
    <contour>
      <point x="205.57791177404" y="469.30847350047605" type="line"/>
      <point x="856.2078705172961" y="469.30847350047605" type="line"/>
      <point x="858.1729609647731" y="550.2446842272294" type="line"/>
      <point x="232.7032688035544" y="550.2446842272294" type="line"/>
    </contour>
  </outline>
</glyph>
<glyph name="B" format="2">
  <advance width="1197.9086004443036"/>
  <unicode hex="0042"/>
  <anchor x="523.746747064424" y="0.0" name="bottom"/>
  <anchor x="731.3300539511266" y="1486.0" name="top"/>
  <outline>
    <contour>
      <point x="173.65344335131707" y="1486.0" type="line"/>
      <point x="167.13392573786098" y="1434.576324976198" type="line"/>
      <point x="292.19231989844496" y="1402.3344969850843" type="line"/>
      <point x="111.10250714059029" y="83.19422405585529" type="line"/>
      <point x="-21.371310695017456" y="52.44938114884164" type="line"/>
      <point x="-27.970802919708028" y="0.0" type="line"/>
      <point x="252.78133925737862" y="0.0" type="line" smooth="yes"/>
      <point x="337.8905109489051" y="0.0"/>
      <point x="423.7258013329102" y="-18.39828625833069"/>
      <point x="521.7210409393844" y="-18.39828625833069" type="curve" smooth="yes"/>
      <point x="888.7127895906061" y="-18.39828625833069"/>
      <point x="1138.3900349095525" y="133.1231355125357"/>
      <point x="1138.3900349095525" y="454.43256109171693" type="curve" smooth="yes"/>
      <point x="1138.3900349095525" y="644.9736591558236"/>
      <point x="1021.3443351317043" y="762.9638210092036"/>
      <point x="818.1732783243416" y="777.364328784513" type="curve"/>
      <point x="1039.0717232624563" y="825.056807362742"/>
      <point x="1159.02761028245" y="971.418914630276"/>
      <point x="1159.02761028245" y="1185.6432878451285" type="curve" smooth="yes"/>
      <point x="1159.02761028245" y="1347.564900031736"/>
      <point x="1063.5801332910187" y="1501.840050777531"/>
      <point x="730.4462075531577" y="1501.840050777531" type="curve" smooth="yes"/>
      <point x="633.0441129800064" y="1501.840050777531"/>
      <point x="557.675341161536" y="1486.3655982227863"/>
      <point x="468.48682957791175" y="1486.0" type="curve" smooth="yes"/>
    </contour>
    <contour>
      <point x="382.34973024436687" y="29.957156458267214" type="line"/>
      <point x="480.20437956204375" y="746.6635988575056" type="line"/>
      <point x="391.1662964138369" y="719.8286258330688" type="line"/>
      <point x="457.09108219612824" y="721.7584893684545"/>
      <point x="536.647730879086" y="726.0180894953983"/>
      <point x="612.3871786734369" y="726.0180894953983" type="curve" smooth="yes"/>
      <point x="766.4389082830847" y="726.0180894953983"/>
      <point x="846.7883211678832" y="646.8778165661695"/>
      <point x="846.5639479530307" y="459.781656616947" type="curve" smooth="yes"/>
      <point x="846.3395747381783" y="196.00698191050458"/>
      <point x="738.3966994604887" y="51.68232307204062"/>
      <point x="527.1894636623294" y="51.68232307204062" type="curve" smooth="yes"/>
      <point x="460.8873373532212" y="51.68232307204062"/>
      <point x="387.80894953982863" y="69.99460488733736"/>
      <point x="366.1666137734053" y="87.08219612821328" type="curve"/>
    </contour>
    <contour>
      <point x="484.60107902253253" y="776.275150745795" type="line"/>
      <point x="578.2887972072359" y="1457.5388765471278" type="line"/>
      <point x="530.6496350364964" y="1406.7131069501745" type="line"/>
      <point x="563.1167883211679" y="1418.8162488099017"/>
      <point x="641.3789273246589" y="1431.1107584893684"/>
      <point x="685.1580450650588" y="1431.1107584893684" type="curve" smooth="yes"/>
      <point x="832.0688670263407" y="1431.1107584893684"/>
      <point x="886.4509679466836" y="1337.4598540145985"/>
      <point x="886.2265947318311" y="1174.595049190733" type="curve" smooth="yes"/>
      <point x="885.7778483021264" y="921.4890510948906"/>
      <point x="746.7569025706124" y="801.2024754046334"/>
      <point x="624.6366232941923" y="801.8755950491908" type="curve" smooth="yes"/>
      <point x="555.0326880355442" y="802.3243414788956"/>
      <point x="478.37829260552206" y="799.6067914947636"/>
      <point x="427.6004443033957" y="801.9939701682006" type="curve"/>
    </contour>
  </outline>
</glyph>
<glyph name="C" format="2">
  <advance width="1113.8622659473183"/>
  <unicode hex="0043"/>
  <anchor x="594.739447794351" y="0.0" name="bottom"/>
  <anchor x="745.9390669628689" y="1486.0" name="top"/>
  <outline>
    <contour>
      <point x="565.5639479530308" y="-20.327197715011106" type="curve" smooth="yes"/>
      <point x="798.1421770866391" y="-20.327197715011106"/>
      <point x="897.9733417962551" y="57.01586797841955"/>
      <point x="973.4385909235164" y="73.71405902887972" type="curve"/>
      <point x="1035.9914312916535" y="432.3951126626468" type="line"/>
      <point x="891.1117105680736" y="432.3951126626468" type="line"/>
      <point x="872.6404316090131" y="358.30815614090767"/>
      <point x="819.4779435099969" y="203.26943827356396"/>
      <point x="794.9701682005714" y="153.93525864804823" type="curve"/>
      <point x="755.6236115518883" y="86.67661059980958"/>
      <point x="668.9727070771183" y="54.41637575372897"/>
      <point x="602.5341161536021" y="54.41637575372897" type="curve" smooth="yes"/>
      <point x="415.3932085052365" y="54.41637575372897"/>
      <point x="365.5172960964773" y="334.39162170739445"/>
      <point x="369.10726753411615" y="583.2262773722628" type="curve" smooth="yes"/>
      <point x="373.5947318311647" y="1011.8536972389718"/>
      <point x="511.6033005395113" y="1433.9638210092035"/>
      <point x="768.0330053951127" y="1433.9638210092035" type="curve" smooth="yes"/>
      <point x="828.2529355760076" y="1433.9638210092035"/>
      <point x="866.13805141225" y="1416.6010790225325"/>
      <point x="895.6620120596635" y="1393.9200253887655" type="curve"/>
      <point x="915.5277689622343" y="1038.991113932085" type="line"/>
      <point x="1088.0856870834657" y="1038.991113932085" type="line"/>
      <point x="1152.3970168200572" y="1448.1196445572832" type="line"/>
      <point x="1061.9742938749603" y="1451.8882894319263"/>
      <point x="971.6007616629641" y="1504.4170104728657"/>
      <point x="777.3237067597588" y="1504.4170104728657" type="curve" smooth="yes"/>
      <point x="333.746747064424" y="1504.4170104728657"/>
      <point x="67.28943192637259" y="1085.209457315138"/>
      <point x="67.28943192637259" y="604.2868930498254" type="curve" smooth="yes"/>
      <point x="67.28943192637259" y="288.56553475087276"/>
      <point x="175.41764519200254" y="-20.327197715011106"/>
    </contour>
  </outline>
</glyph>
<glyph name="D" format="2">
  <advance width="1294.9000317359569"/>
  <unicode hex="0044"/>
  <anchor x="328.7125001586798" y="748.0" name="bar"/>
  <anchor x="581.7638844811171" y="0.0" name="bottom"/>
  <anchor x="799.8333862265948" y="1486.0" name="top"/>
  <outline>
    <contour>
      <point x="173.65344335131707" y="1486.0" type="line"/>
      <point x="167.13392573786098" y="1434.576324976198" type="line"/>
      <point x="292.19231989844496" y="1402.3344969850843" type="line"/>
      <point x="111.10250714059029" y="83.19422405585529" type="line"/>
      <point x="-21.371310695017456" y="52.44938114884164" type="line"/>
      <point x="-27.970802919708028" y="0.0" type="line"/>
      <point x="252.73722627737226" y="0.0" type="line" smooth="yes"/>
      <point x="330.97524595366554" y="0.0"/>
      <point x="447.1866074262139" y="-19.814344652491272"/>
      <point x="533.1434465249127" y="-19.814344652491272" type="curve" smooth="yes"/>
      <point x="1016.6048873373531" y="-19.814344652491272"/>
      <point x="1290.8917803871786" y="379.6985084100286"/>
      <point x="1292.4623928911458" y="907.3732148524277" type="curve" smooth="yes"/>
      <point x="1293.5842589654078" y="1230.1117105680735"/>
      <point x="1144.122500793399" y="1503.391304347826"/>
      <point x="742.6105998095843" y="1503.0257061250397" type="curve" smooth="yes"/>
      <point x="643.1361472548398" y="1502.8429070136465"/>
      <point x="544.9917486512218" y="1486.5255474452554"/>
      <point x="444.1336083782926" y="1486.0" type="curve"/>
    </contour>
    <contour>
      <point x="386.42494446207553" y="23.502380196762928" type="line"/>
      <point x="582.1869247857823" y="1454.0057124722312" type="line"/>
      <point x="531.2834020945733" y="1381.652491272612" type="line"/>
      <point x="569.6572516661377" y="1412.3348143446526"/>
      <point x="625.6394795303078" y="1432.6908917803871"/>
      <point x="698.5223738495715" y="1432.6908917803871" type="curve" smooth="yes"/>
      <point x="925.7010472865757" y="1432.6908917803871"/>
      <point x="990.8857505553792" y="1230.1326562995873"/>
      <point x="990.8857505553792" y="895.7816566169471" type="curve" smooth="yes"/>
      <point x="990.8857505553792" y="477.10123770231667"/>
      <point x="843.3313233894003" y="50.744842907013656"/>
      <point x="533.232941923199" y="50.744842907013656" type="curve" smooth="yes"/>
      <point x="445.1240875912409" y="50.744842907013656"/>
      <point x="394.55506188511583" y="81.1272611869248"/>
      <point x="351.6264677880038" y="101.60456997778483" type="curve"/>
    </contour>
  </outline>
</glyph>
<glyph name="E" format="2">
  <advance width="1108.1986670898125"/>
  <unicode hex="0045"/>
  <anchor x="542.5721993018088" y="0.0" name="bottom"/>
  <anchor x="771.6781973976515" y="0.0" name="ogonek"/>
  <anchor x="681.5572834020946" y="1486.0" name="top"/>
  <anchor x="163.40653760710885" y="1486.0" name="topleft"/>
  <outline>
    <contour>
      <point x="-27.970802919708028" y="0.0" type="line"/>
      <point x="961.8730561726435" y="0.0" type="line"/>
      <point x="1061.6908917803871" y="418.8295779117741" type="line"/>
      <point x="933.7959377975246" y="437.2094573151381" type="line"/>
      <point x="768.0260234846081" y="100.01110758489368" type="line"/>
      <point x="392.5401459854014" y="73.69089178038718" type="line"/>
      <point x="482.42811805775943" y="727.0288797207237" type="line"/>
      <point x="857.5468105363376" y="706.7768962234211" type="line"/>
      <point x="879.912408759124" y="835.8378292605521" type="line"/>
      <point x="493.32592827673756" y="808.621707394478" type="line"/>
      <point x="577.0498254522374" y="1418.046334496985" type="line"/>
      <point x="885.561726436052" y="1394.6147254839734" type="line"/>
      <point x="954.2186607426214" y="1129.9339892097748" type="line"/>
      <point x="1067.8714693748018" y="1129.9339892097748" type="line"/>
      <point x="1090.3582989527135" y="1486.0" type="line"/>
      <point x="173.65344335131707" y="1486.0" type="line"/>
      <point x="167.13392573786098" y="1434.576324976198" type="line"/>
      <point x="292.19231989844496" y="1402.3344969850843" type="line"/>
      <point x="111.10250714059029" y="83.19422405585529" type="line"/>
      <point x="-21.371310695017456" y="52.44938114884164" type="line"/>
    </contour>
  </outline>
</glyph>
<glyph name="F" format="2">
  <advance width="1030.2440495080928"/>
  <unicode hex="0046"/>
  <anchor x="696.5084100285624" y="1486.0" name="top"/>
  <outline>
    <contour>
      <point x="-28.290701364646143" y="0.0" type="line"/>
      <point x="627.3256109171691" y="0.0" type="line"/>
      <point x="633.3094255791813" y="52.81497937162804" type="line"/>
      <point x="394.9444620755316" y="91.98984449381149" type="line"/>
      <point x="481.94414471596315" y="723.0072992700731" type="line"/>
      <point x="860.8194224055854" y="701.475721993018" type="line"/>
      <point x="886.9923833703587" y="828.500793398921" type="line"/>
      <point x="492.84195493494127" y="804.7829260552206" type="line"/>
      <point x="576.8898762297683" y="1417.0076166296415" type="line"/>
      <point x="893.8302126309109" y="1394.2075531577275" type="line"/>
      <point x="943.5744208187876" y="1127.557600761663" type="line"/>
      <point x="1068.2389717549984" y="1127.557600761663" type="line"/>
      <point x="1096.6655030149159" y="1486.0" type="line"/>
      <point x="173.65344335131707" y="1486.0" type="line"/>
      <point x="166.97397651539197" y="1434.576324976198" type="line"/>
      <point x="292.03237067597587" y="1402.3344969850843" type="line"/>
      <point x="110.94255791812124" y="83.19422405585529" type="line"/>
      <point x="-21.531259917486512" y="52.44938114884164" type="line"/>
    </contour>
  </outline>
</glyph>
<glyph name="G" format="2">
  <advance width="1225.2688035544272"/>
  <unicode hex="0047"/>
  <anchor x="840.3193871786734" y="396.04030466518566" name="bar"/>
  <anchor x="617.5401459854014" y="0.0" name="bottom"/>
  <anchor x="812.5001586797841" y="1486.0" name="top"/>
  <outline>
    <contour>
      <point x="578.8955887019994" y="-19.814344652491272" type="curve" smooth="yes"/>
      <point x="739.7150111075849" y="-19.814344652491272"/>
      <point x="844.2205649000317" y="21.49539828625833"/>
      <point x="940.9387496033005" y="49.28371945414155" type="curve" smooth="yes"/>
      <point x="994.92700729927" y="65.47572199301808"/>
      <point x="1033.5906061567755" y="77.40526816883529"/>
      <point x="1077.8041891463026" y="78.07838781339257" type="curve"/>
      <point x="1166.2027927642018" y="721.3529038400508" type="line"/>
      <point x="711.2748333862266" y="721.3529038400508" type="line"/>
      <point x="702.6042526182165" y="656.8210092034275" type="line"/>
      <point x="880.7588067280228" y="627.1180577594414" type="line"/>
      <point x="813.6721675658521" y="117.19708029197079" type="line"/>
      <point x="760.656616947001" y="79.34370041256743"/>
      <point x="693.3300539511266" y="55.192319898444936"/>
      <point x="615.0545858457632" y="55.192319898444936" type="curve" smooth="yes"/>
      <point x="406.880672802285" y="55.192319898444936"/>
      <point x="371.0971120279276" y="342.17581720088856"/>
      <point x="371.0971120279276" y="586.8162488099016" type="curve" smooth="yes"/>
      <point x="371.0971120279276" y="1031.51475721993"/>
      <point x="507.3113297365916" y="1432.1850206283718"/>
      <point x="793.3405268168834" y="1432.2649952396064" type="curve" smooth="yes"/>
      <point x="878.5376071088543" y="1432.2649952396064"/>
      <point x="927.5871152015234" y="1399.608695652174"/>
      <point x="957.2332592827673" y="1372.3697238971754" type="curve"/>
      <point x="975.7445255474452" y="1110.6515391939065" type="line"/>
      <point x="1152.5074579498573" y="1110.6515391939065" type="line"/>
      <point x="1208.6267851475723" y="1444.7505553792448" type="line"/>
      <point x="1182.019358933672" y="1446.2503966994605"/>
      <point x="1159.8740082513489" y="1449.8016502697558"/>
      <point x="1137.138686131387" y="1454.602983179943" type="curve"/>
      <point x="1062.0564900031736" y="1471.8784512853063"/>
      <point x="974.1142494446207" y="1504.4170104728657"/>
      <point x="802.0561726436051" y="1504.4170104728657" type="curve" smooth="yes"/>
      <point x="319.03681370993337" y="1504.4170104728657"/>
      <point x="68.17391304347827" y="1093.0666455093622"/>
      <point x="68.17391304347827" y="603.1545541098064" type="curve" smooth="yes"/>
      <point x="68.17391304347827" y="295.74547762615043"/>
      <point x="192.23611551888288" y="-19.814344652491272"/>
    </contour>
  </outline>
</glyph>
<glyph name="H" format="2">
  <advance width="1347.089495398286"/>
  <unicode hex="0048"/>
  <anchor x="613.8838463979689" y="0.0" name="bottom"/>
  <anchor x="1236.8156140907647" y="0.0" name="bottomright"/>
  <anchor x="817.1399555696604" y="1486.0" name="top"/>
  <outline>
    <contour>
      <point x="-27.970802919708028" y="0.0" type="line"/>
      <point x="528.0485560139639" y="0.0" type="line"/>
      <point x="535.5937797524595" y="52.44938114884164" type="line"/>
      <point x="392.870199936528" y="83.19422405585529" type="line"/>
      <point x="573.9600126943828" y="1402.3344969850843" type="line"/>
      <point x="715.7740399873056" y="1434.576324976198" type="line"/>
      <point x="721.7807045382418" y="1486.0" type="line"/>
      <point x="173.65344335131707" y="1486.0" type="line"/>
      <point x="167.13392573786098" y="1434.576324976198" type="line"/>
      <point x="292.19231989844496" y="1402.3344969850843" type="line"/>
      <point x="111.10250714059029" y="83.19422405585529" type="line"/>
      <point x="-21.371310695017456" y="52.44938114884164" type="line"/>
    </contour>
    <contour>
      <point x="433.8736908917804" y="721.8517930815615" type="line"/>
      <point x="999.3291018724215" y="721.8517930815615" type="line"/>
      <point x="999.877499206601" y="802.7124722310379" type="line"/>
      <point x="434.42208822596" y="802.7124722310379" type="line"/>
    </contour>
    <contour>
      <point x="696.6940653760711" y="0.0" type="line"/>
      <point x="1236.2059663598857" y="0.0" type="line"/>
      <point x="1243.7511900983816" y="52.44938114884164" type="line"/>
      <point x="1124.1107584893684" y="83.19422405585529" type="line"/>
      <point x="1305.2005712472233" y="1402.3344969850843" type="line"/>
      <point x="1429.42208822596" y="1434.576324976198" type="line"/>
      <point x="1435.428752776896" y="1486.0" type="line"/>
      <point x="899.9219295461758" y="1486.0" type="line"/>
      <point x="893.4024119327198" y="1434.576324976198" type="line"/>
      <point x="1023.4328784512854" y="1402.3344969850843" type="line"/>
      <point x="842.3430656934306" y="83.19422405585529" type="line"/>
      <point x="703.2935576007617" y="52.44938114884164" type="line"/>
    </contour>
  </outline>
</glyph>
<glyph name="I" format="2">
  <advance width="647.3189463662329"/>
  <unicode hex="0049"/>
  <anchor x="257.42430974293876" y="0.0" name="bottom"/>
  <anchor x="451.39257378609966" y="-164.0" name="btm"/>
  <anchor x="264.78229133608374" y="0.0" name="ogonek"/>
  <anchor x="458.46683592510317" y="1486.0" name="top"/>
  <anchor x="193.7991113932085" y="1486.0" name="topleft"/>
  <outline>
    <contour>
      <point x="-26.745794985718817" y="0.0" type="line"/>
      <point x="536.9190733100602" y="0.0" type="line"/>
      <point x="544.6242462710251" y="52.44938114884164" type="line"/>
      <point x="400.9711202792764" y="83.19422405585529" type="line"/>
      <point x="582.060933037131" y="1402.3344969850843" type="line"/>
      <point x="722.7530942557919" y="1434.576324976198" type="line"/>
      <point x="728.6797841954934" y="1486.0" type="line"/>
      <point x="174.24055855284035" y="1486.0" type="line"/>
      <point x="167.56109171691526" y="1434.576324976198" type="line"/>
      <point x="300.2932402411933" y="1402.3344969850843" type="line"/>
      <point x="119.20342748333863" y="83.19422405585529" type="line"/>
      <point x="-19.986353538559186" y="52.44938114884164" type="line"/>
    </contour>
  </outline>
</glyph>
<glyph name="J" format="2">
  <advance width="610.6585211044113"/>
  <unicode hex="004A"/>
  <anchor x="218.5030149158997" y="-164.0" name="btm"/>
  <anchor x="438.5814027292923" y="1486.0" name="top"/>
  <outline>
    <contour>
      <point x="-135.5642653125992" y="-316.6077435734687" type="line"/>
      <point x="153.1840685496668" y="-261.9393843224373"/>
      <point x="328.39162170739445" y="-115.62773722627739"/>
      <point x="384.97810218978105" y="109.19454141542367" type="curve" smooth="yes"/>
      <point x="440.7715011107585" y="328.9273246588385"/>
      <point x="489.1434465249127" y="776.6756585211044"/>
      <point x="561.5464931767693" y="1401.372580133291" type="curve"/>
      <point x="699.4487464297049" y="1434.3935258648048" type="line"/>
      <point x="705.6382100920342" y="1486.0" type="line"/>
      <point x="156.0460171374167" y="1486.0" type="line"/>
      <point x="149.34370041256747" y="1434.3935258648048" type="line"/>
      <point x="280.09266899397016" y="1402.1288479847667" type="line"/>
      <point x="235.92002538876545" y="977.7445255474454"/>
      <point x="178.39733417962552" y="474.58330688670264"/>
      <point x="117.88543319581085" y="124.89971437638846" type="curve" smooth="yes"/>
      <point x="87.97238971754999" y="-46.66359885750555"/>
      <point x="4.165979054268487" y="-192.099016185338"/>
      <point x="-166.72675341161533" y="-258.9546175817201" type="curve"/>
    </contour>
  </outline>
</glyph>
<glyph name="K" format="2">
  <advance width="1294.2576959695334"/>
  <unicode hex="004B"/>
  <anchor x="722.1589971437638" y="0.0" name="bottom"/>
  <anchor x="852.4477943509996" y="1486.0" name="top"/>
  <outline>
    <contour>
      <point x="-27.970802919708028" y="0.0" type="line"/>
      <point x="529.4741351951761" y="0.0" type="line"/>
      <point x="536.9393843224374" y="51.64963503649635" type="line"/>
      <point x="393.9758806728023" y="82.7143763884481" type="line"/>
      <point x="574.9857188194225" y="1402.3344969850843" type="line"/>
      <point x="716.7997461123454" y="1434.576324976198" type="line"/>
      <point x="722.8064106632814" y="1486.0" type="line"/>
      <point x="173.65344335131707" y="1486.0" type="line"/>
      <point x="167.13392573786098" y="1434.576324976198" type="line"/>
      <point x="292.19231989844496" y="1402.3344969850843" type="line"/>
      <point x="111.10250714059029" y="83.19422405585529" type="line"/>
      <point x="-21.371310695017456" y="52.44938114884164" type="line"/>
    </contour>
    <contour>
      <point x="425.31609013011746" y="514.592510314186" type="line"/>
      <point x="1214.7778483021261" y="1402.366232941923" type="line"/>
      <point x="1345.6490003173597" y="1434.0279276420183" type="line"/>
      <point x="1352.831164709616" y="1486.0" type="line"/>
      <point x="943.9105046017138" y="1486.0" type="line"/>
      <point x="937.4138368771818" y="1434.4963503649635" type="line"/>
      <point x="1080.4700095207872" y="1401.7575372897493" type="line"/>
      <point x="425.3091082196128" y="623.1501110758488" type="line"/>
    </contour>
    <contour>
      <point x="1247.3167248492541" y="0.0" type="line"/>
      <point x="1254.668993970168" y="52.97238971754999" type="line"/>
      <point x="1171.324658838464" y="81.42684861948588" type="line"/>
      <point x="1123.0222151697876" y="117.27705490320533"/>
      <point x="1052.262456363059" y="308.23198984449385"/>
      <point x="969.400190415741" y="508.00063471913677" type="curve" smooth="yes"/>
      <point x="902.5994922246906" y="671.5610917169153"/>
      <point x="836.895271342431" y="829.0472865756901"/>
      <point x="789.4531894636623" y="944.4458901935893" type="curve"/>
      <point x="591.0101555061885" y="731.762297683275" type="line"/>
      <point x="633.1866074262138" y="626.0142811805777"/>
      <point x="713.6585211044113" y="382.59600126943826"/>
      <point x="752.8079974611235" y="282.32497619803235" type="curve" smooth="yes"/>
      <point x="817.681688352904" y="115.59758806728024"/>
      <point x="844.5845763249762" y="1.9942875277689627"/>
      <point x="897.675341161536" y="0.0" type="curve"/>
    </contour>
  </outline>
</glyph>
<glyph name="L" format="2">
  <advance width="1087.9371628054587"/>
  <unicode hex="004C"/>
  <anchor x="533.7575372897492" y="0.0" name="bottom"/>
  <anchor x="814.9587432561092" y="1110.0" name="car"/>
  <anchor x="906.6562995874325" y="1618.0" name="caron"/>
  <anchor x="384.4709615994922" y="743.0" name="center"/>
  <anchor x="460.11139320850526" y="1486.0" name="top"/>
  <anchor x="1203.6743760710885" y="1486.0" name="topright"/>
  <outline>
    <contour>
      <point x="-27.970802919708028" y="0.0" type="line"/>
      <point x="943.417962551571" y="0.0" type="line"/>
      <point x="1052.9060615677563" y="491.4389082830847" type="line"/>
      <point x="914.4541415423674" y="509.60266582037445" type="line"/>
      <point x="742.3748016502698" y="95.49698508410029" type="line"/>
      <point x="392.7457949857189" y="71.86290066645509" type="line"/>
      <point x="574.9857188194225" y="1402.3344969850843" type="line"/>
      <point x="716.7997461123454" y="1434.576324976198" type="line"/>
      <point x="722.8064106632814" y="1486.0" type="line"/>
      <point x="173.65344335131707" y="1486.0" type="line"/>
      <point x="167.13392573786098" y="1434.576324976198" type="line"/>
      <point x="292.19231989844496" y="1402.3344969850843" type="line"/>
      <point x="111.10250714059029" y="83.19422405585529" type="line"/>
      <point x="-21.371310695017456" y="52.44938114884164" type="line"/>
    </contour>
  </outline>
</glyph>
<glyph name="M" format="2">
  <advance width="1624.194858774992"/>
  <unicode hex="004D"/>
  <anchor x="794.7914947635671" y="0.0" name="bottom"/>
  <anchor x="1585.5882357981593" y="-0.07997461123452876" name="bottomright"/>
  <anchor x="974.084417645192" y="1486.0" name="top"/>
  <outline>
    <contour>
      <point x="-94.33735322119962" y="0.0" type="line"/>
      <point x="335.28371945414153" y="0.0" type="line"/>
      <point x="341.8032370675976" y="51.42367502380197" type="line"/>
      <point x="172.35829895271345" y="84.14566804189145" type="line"/>
      <point x="369.2104093938432" y="1036.111075848937" type="line"/>
      <point x="438.1329736591559" y="1374.246905744208" type="line"/>
      <point x="463.3005395112662" y="982.004760393526" type="line"/>
      <point x="548.0145985401459" y="0.0" type="line"/>
      <point x="754.8054585845763" y="-0.36559822278641696" type="line"/>
      <point x="1123.2592827673755" y="1039.4043160901301" type="line"/>
      <point x="1234.0831482069186" y="1371.9596953348146" type="line"/>
      <point x="1205.6220247540464" y="1021.1932719771501" type="line"/>
      <point x="1152.783243414789" y="80.90669628689304" type="line"/>
      <point x="1002.443986036179" y="49.15899714376389" type="line"/>
      <point x="996.2900666455095" y="0.0" type="line"/>
      <point x="1579.0034909552523" y="0.0" type="line"/>
      <point x="1584.9746112345288" y="52.44938114884164" type="line"/>
      <point x="1435.3389400190415" y="85.17137416693113" type="line"/>
      <point x="1497.180894953983" y="1401.9819105046017" type="line"/>
      <point x="1649.6674071723262" y="1434.0279276420183" type="line"/>
      <point x="1656.1869247857824" y="1486.0" type="line"/>
      <point x="1192.9847667407173" y="1486.0" type="line"/>
      <point x="859.7740399873056" y="538.5928276737543" type="line"/>
      <point x="777.6255157092987" y="270.17391304347825" type="line"/>
      <point x="759.2922881624881" y="546.0577594414472" type="line"/>
      <point x="696.6893049825452" y="1486.0" type="line"/>
      <point x="215.24880990161853" y="1486.0" type="line"/>
      <point x="208.1364646144081" y="1434.2523008568708" type="line"/>
      <point x="358.3605204696921" y="1401.3728974928595" type="line"/>
      <point x="49.212948270390356" y="83.69692161218661" type="line"/>
      <point x="-87.63503649635037" y="52.44938114884164" type="line"/>
    </contour>
  </outline>
</glyph>
<glyph name="N" format="2">
  <advance width="1310.263091082196"/>
  <unicode hex="004E"/>
  <anchor x="670.1186924785783" y="0.0" name="bottom"/>
  <anchor x="860.22881624881" y="1486.0" name="top"/>
  <outline>
    <contour>
      <point x="-22.329419231989846" y="0.0" type="line"/>
      <point x="404.97048556013965" y="0.0" type="line"/>
      <point x="411.38717867343706" y="50.89812757854649" type="line"/>
      <point x="242.2284988892415" y="83.8029197080292" type="line"/>
      <point x="390.9349412884798" y="1422.525230085687" type="line"/>
      <point x="343.3008568708347" y="1416.7781656616949" type="line"/>
      <point x="460.9965090447477" y="1054.864487464297" type="line"/>
      <point x="843.8511583624247" y="0.0" type="line"/>
      <point x="1066.0431609013012" y="0.0" type="line"/>
      <point x="1270.8203744842906" y="1401.2672167565852" type="line"/>
      <point x="1399.2780069819105" y="1434.576324976198" type="line"/>
      <point x="1404.3389400190415" y="1486.0" type="line"/>
      <point x="998.9635036496351" y="1486.0" type="line"/>
      <point x="992.5468105363376" y="1435.1018724214537" type="line"/>
      <point x="1156.064106632815" y="1400.6585211044112" type="line"/>
      <point x="1010.1583624246271" y="169.31482069184386" type="line"/>
      <point x="1052.5956839098699" y="211.0571247223104" type="line"/>
      <point x="952.3598857505553" y="513.6861313868613" type="line"/>
      <point x="603.6077435734687" y="1486.0" type="line"/>
      <point x="181.85909235163442" y="1486.0" type="line"/>
      <point x="174.82672167565852" y="1433.0377657886386" type="line"/>
      <point x="310.94350999682644" y="1401.3087908600446" type="line"/>
      <point x="120.80514122500793" y="83.19422405585529" type="line"/>
      <point x="-17.268486194858774" y="51.42367502380197" type="line"/>
    </contour>
  </outline>
</glyph>
<glyph name="O" format="2">
  <advance width="1237.7131069501745"/>
  <unicode hex="004F"/>
  <anchor x="560.0437956204379" y="0.0" name="bottom"/>
  <anchor x="660.8378292605522" y="743.7756267851476" name="center"/>
  <anchor x="673.8260869565217" y="0.0" name="ogonek"/>
  <anchor x="757.1037765788637" y="1486.0" name="top"/>
  <anchor x="146.84068549666773" y="1486.0" name="topleft"/>
  <anchor x="896.7442081878768" y="1486.0" name="topright"/>
  <outline>
    <contour>
      <point x="545.7226277372263" y="-22.500158679784196" type="curve" smooth="yes"/>
      <point x="993.5550618851158" y="-22.500158679784196"/>
      <point x="1227.292922881625" y="406.43129165344334"/>
      <point x="1232.9663598857505" y="887.3192637258014" type="curve" smooth="yes"/>
      <point x="1236.652491272612" y="1213.6702634084418"/>
      <point x="1116.0092034274833" y="1504.814027292923"/>
      <point x="755.625833068867" y="1504.814027292923" type="curve" smooth="yes"/>
      <point x="294.9720723579816" y="1504.814027292923"/>
      <point x="72.00412567438909" y="1075.8825769596954"/>
      <point x="66.33068867026341" y="597.0460171374167" type="curve" smooth="yes"/>
      <point x="62.644557283402094" y="270.1821643922564"/>
      <point x="183.64074896858142" y="-22.500158679784196"/>
    </contour>
    <contour>
      <point x="562.996826404316" y="47.85623611551888" type="curve" smooth="yes"/>
      <point x="398.3459219295462" y="47.85623611551888"/>
      <point x="364.06125039669945" y="322.58997143763884"/>
      <point x="366.7216756585211" y="558.4776261504285" type="curve" smooth="yes"/>
      <point x="372.17073944779435" y="1026.2757854649317"/>
      <point x="509.965090447477" y="1432.9190733100602"/>
      <point x="735.2745160266581" y="1434.45763249762" type="curve" smooth="yes"/>
      <point x="906.0796572516662" y="1435.4833386226594"/>
      <point x="934.7229450967947" y="1158.69819105046"/>
      <point x="932.5753728974928" y="926.9133608378293" type="curve" smooth="yes"/>
      <point x="928.1520152332592" y="452.9609647730879"/>
      <point x="791.7134243097429" y="47.85623611551888"/>
    </contour>
  </outline>
</glyph>
<glyph name="P" format="2">
  <advance width="1144.6839098698829"/>
  <unicode hex="0050"/>
  <anchor x="796.1466201205966" y="648.3640114249445" name="tick"/>
  <anchor x="740.1031418597271" y="1486.0" name="top"/>
  <outline>
    <contour>
      <point x="-27.970802919708028" y="0.0" type="line"/>
      <point x="610.1037765788639" y="0.0" type="line"/>
      <point x="616.0333227546811" y="51.42367502380197" type="line"/>
      <point x="392.0688670263408" y="89.28435417327833" type="line"/>
      <point x="578.3281497937163" y="1450.427800698191" type="line"/>
      <point x="537.1193271977149" y="1408.8114884163758" type="line"/>
      <point x="581.0980641066328" y="1422.271977150111"/>
      <point x="627.6582037448428" y="1431.1523325928276"/>
      <point x="676.8029197080292" y="1431.1523325928276" type="curve" smooth="yes"/>
      <point x="826.2392891145669" y="1431.1523325928276"/>
      <point x="885.8759124087591" y="1318.8578229133607"/>
      <point x="884.9784195493494" y="1121.33925737861" type="curve" smooth="yes"/>
      <point x="883.8565534750873" y="909.0831482069184"/>
      <point x="780.8406854966678" y="628.6864487464296"/>
      <point x="561.4646144081244" y="628.6864487464296" type="curve" smooth="yes"/>
      <point x="521.9063789273247" y="628.6864487464296"/>
      <point x="471.8692478578229" y="636.3795620437957"/>
      <point x="427.77372262773724" y="649.4655664868295" type="curve"/>
      <point x="422.74293874960335" y="567.9565217391305" type="line"/>
      <point x="459.58489368454457" y="559.7803871786735"/>
      <point x="530.0184068549667" y="553.3801967629324"/>
      <point x="584.417962551571" y="553.3801967629324" type="curve" smooth="yes"/>
      <point x="1005.860361789908" y="553.3801967629324"/>
      <point x="1172.691526499524" y="853.4639796889876"/>
      <point x="1174.0377657886386" y="1101.2684861948587" type="curve" smooth="yes"/>
      <point x="1174.9352586480484" y="1359.5579181212313"/>
      <point x="1050.271342430974" y="1502.0"/>
      <point x="730.4303395747382" y="1499.4357346874008" type="curve" smooth="yes"/>
      <point x="618.6439225642653" y="1498.410028562361"/>
      <point x="525.2535702951444" y="1486.0"/>
      <point x="436.2596001269439" y="1486.0" type="curve" smooth="yes"/>
      <point x="173.65344335131707" y="1486.0" type="line"/>
      <point x="167.13392573786098" y="1434.576324976198" type="line"/>
      <point x="292.19231989844496" y="1402.3344969850843" type="line"/>
      <point x="111.10250714059029" y="83.19422405585529" type="line"/>
      <point x="-21.371310695017456" y="52.44938114884164" type="line"/>
    </contour>
  </outline>
</glyph>
<glyph name="R" format="2">
  <advance width="1240.8454458901938"/>
  <unicode hex="0052"/>
  <anchor x="666.1716915264996" y="0.0" name="bottom"/>
  <anchor x="743.8362424627103" y="1486.0" name="top"/>
  <outline>
    <contour>
      <point x="-27.970802919708028" y="0.0" type="line"/>
      <point x="540.9460488733735" y="0.0" type="line"/>
      <point x="548.7956204379562" y="52.44938114884164" type="line"/>
      <point x="392.7991113932085" y="83.19422405585529" type="line"/>
      <point x="581.1869247857823" y="1454.3817835607742" type="line"/>
      <point x="545.7987940336401" y="1409.1037765788637" type="line"/>
      <point x="580.5556966042526" y="1425.1285306251984"/>
      <point x="638.5347508727388" y="1432.3608378292606"/>
      <point x="679.4487464297048" y="1432.3608378292606" type="curve" smooth="yes"/>
      <point x="821.781656616947" y="1432.3608378292606"/>
      <point x="882.3589336718502" y="1322.0076166296415"/>
      <point x="881.0447476991432" y="1142.819105046017" type="curve" smooth="yes"/>
      <point x="879.6505871152015" y="940.2316724849254"/>
      <point x="796.1688352903841" y="726.7635671215486"/>
      <point x="602.0926689939703" y="725.3284671532847" type="curve" smooth="yes"/>
      <point x="569.4928594097113" y="725.1713741669312"/>
      <point x="495.1827991113932" y="725.5785464931766"/>
      <point x="463.0225325293558" y="730.0628371945414" type="curve"/>
      <point x="451.9971437638844" y="650.2935576007617" type="line"/>
      <point x="495.98286258330694" y="649.6620120596635"/>
      <point x="570.3532211996192" y="650.190733100603"/>
      <point x="618.3738495715646" y="650.5563313233895" type="curve" smooth="yes"/>
      <point x="663.8454458901936" y="617.8962234211361"/>
      <point x="713.6702634084418" y="421.8787686448746"/>
      <point x="760.5772770549033" y="237.29609647730877" type="curve" smooth="yes"/>
      <point x="791.7000952078706" y="108.87146937480165"/>
      <point x="829.7613456045699" y="0.0"/>
      <point x="867.4557283402094" y="0.0" type="curve"/>
      <point x="1176.8111710568073" y="0.0" type="line"/>
      <point x="1183.715011107585" y="53.55506188511583" type="line"/>
      <point x="1102.0019041574103" y="62.9051094890511"/>
      <point x="1077.5287210409392" y="173.61789907965724"/>
      <point x="1028.7397651539193" y="334.8714693748017" type="curve" smooth="yes"/>
      <point x="984.330371310695" y="481.9609647730879"/>
      <point x="902.9089178038718" y="694.232941923199"/>
      <point x="750.7242145350682" y="705.2180260234845" type="curve"/>
      <point x="712.7486512218344" y="660.9111393208506" type="line"/>
      <point x="1011.6239289114566" y="697.7588067280229"/>
      <point x="1163.8794033640115" y="906.44969850841"/>
      <point x="1166.1707394477944" y="1131.4906378927326" type="curve" smooth="yes"/>
      <point x="1168.3821009203427" y="1361.6496350364962"/>
      <point x="1045.0606156775627" y="1500.4614408124405"/>
      <point x="723.5801332910188" y="1500.4614408124405" type="curve" smooth="yes"/>
      <point x="612.2748333862265" y="1500.4614408124405"/>
      <point x="539.2002538876548" y="1486.0"/>
      <point x="434.297048556014" y="1486.0" type="curve" smooth="yes"/>
      <point x="173.65344335131707" y="1486.0" type="line"/>
      <point x="167.13392573786098" y="1434.576324976198" type="line"/>
      <point x="292.19231989844496" y="1402.3344969850843" type="line"/>
      <point x="111.10250714059029" y="83.19422405585529" type="line"/>
      <point x="-21.371310695017456" y="52.44938114884164" type="line"/>
    </contour>
  </outline>
</glyph>
<glyph name="S" format="2">
  <advance width="1009.5534750872739"/>
  <unicode hex="0053"/>
  <anchor x="443.39035226912097" y="0.0" name="bottom"/>
  <anchor x="652.350682323072" y="1486.0" name="top"/>
  <outline>
    <contour>
      <point x="421.2043795620438" y="-23.02570612503967" type="curve" smooth="yes"/>
      <point x="759.8003808314821" y="-23.02570612503967"/>
      <point x="944.3037131069502" y="176.0704538241828"/>
      <point x="944.3037131069502" y="421.44969850841005" type="curve" smooth="yes"/>
      <point x="944.3037131069502" y="620.2253252935576"/>
      <point x="786.6962868930499" y="752.1767692795937"/>
      <point x="645.4928594097112" y="860.2929228816249" type="curve" smooth="yes"/>
      <point x="499.81720088860675" y="972.5576007616629"/>
      <point x="400.9060615677563" y="1045.1964455728341"/>
      <point x="401.63725801332913" y="1200.8286258330688" type="curve" smooth="yes"/>
      <point x="402.18565534750877" y="1352.9063789273246"/>
      <point x="501.7895906061568" y="1433.1977150111074"/>
      <point x="622.0009520787052" y="1433.1977150111074" type="curve" smooth="yes"/>
      <point x="711.2284988892416" y="1433.1977150111074"/>
      <point x="772.9669946048874" y="1395.396064741352"/>
      <point x="789.9558870199937" y="1347.35702951444" type="curve"/>
      <point x="803.5855284036813" y="1146.5985401459855" type="line"/>
      <point x="958.6950174547762" y="1146.5985401459855" type="line"/>
      <point x="1006.4516026658204" y="1428.9181212313554" type="line"/>
      <point x="952.1589971437639" y="1463.2478578229134"/>
      <point x="827.5293557600762" y="1503.391304347826"/>
      <point x="637.9895271342431" y="1503.391304347826" type="curve" smooth="yes"/>
      <point x="362.35607743573473" y="1503.391304347826"/>
      <point x="146.95303078387812" y="1350.7165979054266"/>
      <point x="146.95303078387812" y="1081.2472231037766" type="curve" smooth="yes"/>
      <point x="146.95303078387812" y="876.5166613773405"/>
      <point x="293.82767375436373" y="747.8064106632816"/>
      <point x="442.5823548079975" y="639.2795937797524" type="curve" smooth="yes"/>
      <point x="591.8648048238655" y="529.9431926372581"/>
      <point x="684.1983497302443" y="435.0704538241828"/>
      <point x="684.1983497302443" y="310.4138368771819" type="curve" smooth="yes"/>
      <point x="684.1983497302443" y="142.1053633767058"/>
      <point x="581.7407172326245" y="48.04633449698509"/>
      <point x="427.87051729609647" y="48.04633449698509" type="curve" smooth="yes"/>
      <point x="329.54681053633766" y="48.04633449698509"/>
      <point x="254.61377340526818" y="97.20818787686449"/>
      <point x="228.27007299270073" y="149.34973024436687" type="curve"/>
      <point x="217.6858140272929" y="368.71786734370045" type="line"/>
      <point x="58.05458584576325" y="368.71786734370045" type="line"/>
      <point x="3.9568390986988273" y="70.91812123135513" type="line"/>
      <point x="46.68422722945097" y="34.91812123135512"/>
      <point x="243.1999365280863" y="-23.02570612503967"/>
    </contour>
  </outline>
</glyph>
<glyph name="T" format="2">
  <advance width="1215.8041891463026"/>
  <unicode hex="0054"/>
  <anchor x="573.4884163757537" y="0.0" name="bottom"/>
  <anchor x="908.1739130434783" y="0.0" name="bottomright"/>
  <anchor x="651.3861564582672" y="743.0" name="center"/>
  <anchor x="766.6283719454142" y="1486.0" name="top"/>
  <outline>
    <contour>
      <point x="205.3141859727071" y="0.0" type="line"/>
      <point x="901.8670263408442" y="0.0" type="line"/>
      <point x="908.4665185655348" y="51.93652808632181" type="line"/>
      <point x="698.6937480165027" y="82.57569025706124" type="line"/>
      <point x="882.0720406220248" y="1419.3154554109806" type="line"/>
      <point x="1068.840050777531" y="1403.5839416058395" type="line"/>
      <point x="1120.1866074262139" y="976.8784512853063" type="line"/>
      <point x="1241.000952078705" y="977.2627737226277" type="line"/>
      <point x="1288.5506188511586" y="1486.0" type="line"/>
      <point x="200.563313233894" y="1486.0" type="line"/>
      <point x="104.7778483021263" y="977.2627737226277" type="line"/>
      <point x="238.30466518565535" y="977.8714693748016" type="line"/>
      <point x="406.61345604569976" y="1403.5839416058395" type="line"/>
      <point x="599.2786417010473" y="1419.3154554109806" type="line"/>
      <point x="415.9003490955252" y="82.57569025706124" type="line"/>
      <point x="211.9936528086322" y="51.93652808632181" type="line"/>
    </contour>
  </outline>
</glyph>
<glyph name="U" format="2">
  <advance width="1234.280863218026"/>
  <unicode hex="0055"/>
  <anchor x="617.0431609013011" y="0.0" name="bottom"/>
  <anchor x="715.2805458584577" y="20.0" name="ogonek"/>
  <anchor x="780.7169152649952" y="1486.0" name="top"/>
  <anchor x="1150.6061567756267" y="1486.0" name="topright"/>
  <outline>
    <contour>
      <point x="1209.2424627102507" y="1401.084417645192" type="line"/>
      <point x="1328.5718819422405" y="1434.576324976198" type="line"/>
      <point x="1333.552840368137" y="1486.0" type="line"/>
      <point x="955.9752459536655" y="1486.0" type="line"/>
      <point x="949.3757537289749" y="1434.576324976198" type="line"/>
      <point x="1099.572199301809" y="1400.7156458267216" type="line"/>
      <point x="1004.8438590923516" y="597.1932719771502" type="line" smooth="yes"/>
      <point x="965.7591240875912" y="262.5401459854014"/>
      <point x="874.3884481117105" y="84.06251983497302"/>
      <point x="652.6198032370676" y="84.06251983497302" type="curve" smooth="yes"/>
      <point x="472.17645192002533" y="84.06251983497302"/>
      <point x="414.41447159631866" y="206.3941605839416"/>
      <point x="414.41447159631866" y="394.63408441764517" type="curve" smooth="yes"/>
      <point x="414.41447159631866" y="454.8927324658838"/>
      <point x="420.03300539511264" y="522.1869247857823"/>
      <point x="430.16439225642654" y="594.9397016820058" type="curve" smooth="yes"/>
      <point x="541.1561409076484" y="1402.3344969850843" type="line"/>
      <point x="683.7699143129165" y="1434.576324976198" type="line"/>
      <point x="689.7765788638527" y="1486.0" type="line"/>
      <point x="150.06632814979372" y="1486.0" type="line"/>
      <point x="143.54681053633766" y="1434.3935258648048" type="line"/>
      <point x="258.3627419866709" y="1402.3344969850843" type="line"/>
      <point x="146.98667089812756" y="592.344969850841" type="line" smooth="yes"/>
      <point x="139.1021897810219" y="535.3367185020628"/>
      <point x="135.1793081561409" y="481.8286258330689"/>
      <point x="135.1793081561409" y="430.27832434147894" type="curve" smooth="yes"/>
      <point x="135.1793081561409" y="151.55728340209455"/>
      <point x="264.30498254522377" y="-20.0"/>
      <point x="577.5188828943193" y="-20.0" type="curve" smooth="yes"/>
      <point x="919.7689622342114" y="-20.0"/>
      <point x="1042.094890510949" y="198.8619485877499"/>
      <point x="1097.2538876547128" y="596.6804189146303" type="curve" smooth="yes"/>
    </contour>
  </outline>
</glyph>
<glyph name="V" format="2">
  <advance width="1158.9117740399872"/>
  <unicode hex="0056"/>
  <anchor x="892.6674071723262" y="1660.0" name="top"/>
  <outline>
    <contour>
      <point x="375.79720723579817" y="-6.078387813392575" type="line"/>
      <point x="617.994287527769" y="-5.095842589654079" type="line"/>
      <point x="1197.3944779435099" y="1405.6677245318945" type="line"/>
      <point x="1315.352269120914" y="1435.6020311012376" type="line"/>
      <point x="1321.9517613456046" y="1486.0" type="line"/>
      <point x="928.0012694382735" y="1486.0" type="line"/>
      <point x="921.9501745477626" y="1435.6020311012376" type="line"/>
      <point x="1076.148524278007" y="1405.0590288797207" type="line"/>
      <point x="670.8178356077435" y="345.24214535068234" type="line"/>
      <point x="576.308473500476" y="84.79054268486195" type="line"/>
      <point x="617.3408441764519" y="108.05775944144716" type="line"/>
      <point x="589.4328784512853" y="424.5747381783561" type="line"/>
      <point x="480.1174230403047" y="1402.6229768327514" type="line"/>
      <point x="630.659790542685" y="1433.1850206283718" type="line"/>
      <point x="636.4481117105681" y="1486.0" type="line"/>
      <point x="88.33291018724213" y="1486.0" type="line"/>
      <point x="82.32624563630593" y="1433.470644239924" type="line"/>
      <point x="191.5801332910187" y="1403.5204696921612" type="line"/>
    </contour>
  </outline>
</glyph>
<glyph name="W" format="2">
  <advance width="1745.469057442082"/>
  <unicode hex="0057"/>
  <anchor x="809.5417327832434" y="0.0" name="bottom"/>
  <anchor x="1050.693113297366" y="1486.0" name="top"/>
  <outline>
    <contour>
      <point x="336.49603300539513" y="-6.078387813392575" type="line"/>
      <point x="573.970802919708" y="-5.095842589654079" type="line"/>
      <point x="1099.98222786417" y="1347.950491907331" type="line"/>
      <point x="991.5661694700096" y="1350.2208822596" type="line"/>
      <point x="622.7664233576643" y="345.24214535068234" type="line"/>
      <point x="533.5601396382101" y="84.79054268486195" type="line"/>
      <point x="576.8997143763885" y="108.05775944144716" type="line"/>
      <point x="549.5515709298635" y="424.5747381783561" type="line"/>
      <point x="433.5826721675658" y="1402.6229768327514" type="line"/>
      <point x="582.0736274198666" y="1433.1850206283718" type="line"/>
      <point x="587.8619485877499" y="1486.0" type="line"/>
      <point x="41.06061567756269" y="1486.0" type="line"/>
      <point x="35.053951126626465" y="1433.470644239924" type="line"/>
      <point x="144.30783878133926" y="1403.5204696921612" type="line"/>
    </contour>
    <contour>
      <point x="1040.3605204696923" y="-6.078387813392575" type="line"/>
      <point x="1282.7810218978104" y="-5.095842589654079" type="line"/>
      <point x="1830.6290066645508" y="1405.6677245318945" type="line"/>
      <point x="1948.5867978419549" y="1435.6020311012376" type="line"/>
      <point x="1955.1862900666454" y="1486.0" type="line"/>
      <point x="1561.2357981593145" y="1486.0" type="line"/>
      <point x="1555.1847032688036" y="1435.6020311012376" type="line"/>
      <point x="1709.383052999048" y="1405.0590288797207" type="line"/>
      <point x="1332.4328784512852" y="345.6908917803872" type="line"/>
      <point x="1242.5848936845448" y="84.79054268486195" type="line"/>
      <point x="1281.9219295461758" y="108.05775944144716" type="line"/>
      <point x="1254.6537607108855" y="424.5747381783561" type="line"/>
      <point x="1149.5119009838145" y="1402.6229768327514" type="line"/>
      <point x="1295.566804189146" y="1433.1850206283718" type="line"/>
      <point x="1301.3551253570295" y="1486.0" type="line"/>
      <point x="755.9819105046017" y="1486.0" type="line"/>
      <point x="749.9752459536655" y="1433.470644239924" type="line"/>
      <point x="861.6651856553475" y="1403.5204696921612" type="line"/>
    </contour>
  </outline>
</glyph>
<glyph name="X" format="2">
  <advance width="1173.7949857188196"/>
  <unicode hex="0058"/>
  <anchor x="534.615994922247" y="0.0" name="bottom"/>
  <anchor x="1121.1466201205967" y="0.0" name="bottomright"/>
  <anchor x="616.7216756585211" y="746.0" name="center"/>
  <anchor x="784.337670580768" y="1570.7635671215487" name="top"/>
  <outline>
    <contour>
      <point x="-82.16312281815297" y="0.0" type="line"/>
      <point x="341.13011742304025" y="0.0" type="line"/>
      <point x="347.72960964773085" y="52.962234211361476" type="line"/>
      <point x="199.89336718502065" y="83.47254839733418" type="line"/>
      <point x="561.9397016820056" y="650.8102189781022" type="line"/>
      <point x="715.8175182481751" y="788.2526182164391" type="line"/>
      <point x="1158.9470009520787" y="1402.943192637258" type="line"/>
      <point x="1282.6680418914632" y="1434.576324976198" type="line"/>
      <point x="1289.4274833386226" y="1486.0" type="line"/>
      <point x="882.0602983179944" y="1486.0" type="line"/>
      <point x="875.9292288162488" y="1434.576324976198" type="line"/>
      <point x="1026.7695969533481" y="1402.1101237702317" type="line"/>
      <point x="680.5947318311646" y="856.8448111710568" type="line"/>
      <point x="526.1532846715328" y="726.5182481751825" type="line"/>
      <point x="66.36337670580768" y="82.86385274516027" type="line"/>
      <point x="-75.64360520469694" y="52.962234211361476" type="line"/>
    </contour>
    <contour>
      <point x="557.6248809901618" y="0.0" type="line"/>
      <point x="1115.1783560774356" y="0.0" type="line"/>
      <point x="1121.275150745795" y="52.962234211361476" type="line"/>
      <point x="1001.969216121866" y="83.47254839733418" type="line"/>
      <point x="732.8536972389717" y="823.7016820057124" type="line"/>
      <point x="710.943192637258" y="872.2304030466519" type="line"/>
      <point x="543.9933354490637" y="1403.1259917486511" type="line"/>
      <point x="692.2713424309743" y="1434.4963503649635" type="line"/>
      <point x="698.8479847667406" y="1486.0" type="line"/>
      <point x="135.17232624563633" y="1486.0" type="line"/>
      <point x="128.83560774357346" y="1434.3935258648048" type="line"/>
      <point x="240.02634084417647" y="1401.9501745477626" type="line"/>
      <point x="503.26118692478576" y="681.2608695652175" type="line"/>
      <point x="523.6299587432561" y="630.8410028562361" type="line"/>
      <point x="695.4601713741669" y="82.68105363376705" type="line"/>
      <point x="563.4360520469692" y="52.962234211361476" type="line"/>
    </contour>
  </outline>
</glyph>
<glyph name="Y" format="2">
  <advance width="1053.723262456363"/>
  <unicode hex="0059"/>
  <anchor x="475.4608060933037" y="0.0" name="bottom"/>
  <anchor x="536.9698508410029" y="469.0" name="center"/>
  <anchor x="738.5953665503015" y="1486.0" name="top"/>
  <anchor x="154.58521104411298" y="1486.0" name="topleft"/>
  <outline>
    <contour>
      <point x="151.1574103459219" y="0.0" type="line"/>
      <point x="796.701364646144" y="0.0" type="line"/>
      <point x="803.3008568708347" y="52.44938114884164" type="line"/>
      <point x="620.8191050460172" y="88.31259917486513" type="line"/>
      <point x="706.9235163440177" y="717.1666137734052" type="line"/>
      <point x="629.3503649635037" y="533.1291653443351" type="line"/>
      <point x="1109.3148206918438" y="1405.927642018407" type="line"/>
      <point x="1224.840050777531" y="1434.576324976198" type="line"/>
      <point x="1231.359568390987" y="1486.0" type="line"/>
      <point x="861.0793398920978" y="1486.0" type="line"/>
      <point x="854.4798476674073" y="1434.576324976198" type="line"/>
      <point x="984.5537924468422" y="1405.831799428753" type="line"/>
      <point x="705.0863218026025" y="841.3659155823548" type="line"/>
      <point x="592.2240558552841" y="611.2713424309743" type="line"/>
      <point x="670.0869565217391" y="659.6543954300222" type="line"/>
      <point x="618.3456045699778" y="868.5147572199302" type="line"/>
      <point x="474.39574738178356" y="1404.754998413202" type="line"/>
      <point x="608.987940336401" y="1435.6020311012376" type="line"/>
      <point x="615.5074579498573" y="1486.0" type="line"/>
      <point x="71.0666455093621" y="1486.0" type="line"/>
      <point x="64.46715328467153" y="1435.6020311012376" type="line"/>
      <point x="161.07267534116156" y="1406.8064106632814" type="line"/>
      <point x="444.1377340526817" y="516.3494128847984" type="line"/>
      <point x="428.64297048556006" y="749.7702316724848" type="line"/>
      <point x="338.0257061250397" y="88.31259917486513" type="line"/>
      <point x="157.676927959378" y="52.44938114884164" type="line"/>
    </contour>
  </outline>
</glyph>
<glyph name="Z" format="2">
  <advance width="1121.6172643605205"/>
  <unicode hex="005A"/>
  <anchor x="504.4446207553157" y="0.0" name="bottom"/>
  <anchor x="704.1012377023167" y="1486.0" name="top"/>
  <outline>
    <contour>
      <point x="-14.756585211044111" y="0.0" type="line"/>
      <point x="973.814979371628" y="0.0" type="line"/>
      <point x="1065.787369089178" y="420.50523643287846" type="line"/>
      <point x="932.0441129800064" y="445.43351317042215" type="line"/>
      <point x="770.2367502380197" y="95.1866074262139" type="line"/>
      <point x="276.4065376071088" y="69.00983814662013" type="line"/>
      <point x="407.87749920660116" y="232.54173278324342" type="line"/>
      <point x="1174.6594731831165" y="1442.8882894319265" type="line"/>
      <point x="1160.5975880672802" y="1486.0" type="line"/>
      <point x="233.28276737543638" y="1486.0" type="line"/>
      <point x="163.67883211678833" y="1090.99206601079" type="line"/>
      <point x="299.8390986988258" y="1083.6943827356397" type="line"/>
      <point x="430.12218343383057" y="1397.115201523326" type="line"/>
      <point x="867.3405268168835" y="1417.642653125992" type="line"/>
      <point x="736.2469057442082" y="1249.8013329101873" type="line"/>
      <point x="-29.645509362107266" y="43.57315138051412" type="line"/>
    </contour>
  </outline>
</glyph>
<glyph name="bracketleft" format="2">
  <advance width="769.566486829578"/>
  <unicode hex="005B"/>
  <outline>
    <contour>
      <point x="272.65153919390673" y="-272.107902253253" type="curve" smooth="yes"/>
      <point x="362.5785464931768" y="-272.107902253253"/>
      <point x="448.9711202792765" y="-253.83814662012057"/>
      <point x="526.1218660742622" y="-232.14852427800702" type="curve"/>
      <point x="533.5198349730244" y="-175.3624246271025" type="line"/>
      <point x="311.7695969533481" y="-174.83687718184703" type="line"/>
      <point x="551.2231037765789" y="1573.2129482703904" type="line"/>
      <point x="772.7178673437005" y="1573.2129482703904" type="line"/>
      <point x="780.676927959378" y="1628.2421453506824" type="line"/>
      <point x="728.9619168517931" y="1641.7362741986672"/>
      <point x="626.5093621072675" y="1667.9127261186925"/>
      <point x="538.4592192954618" y="1667.9127261186925" type="curve" smooth="yes"/>
      <point x="408.2599174865122" y="1667.9127261186925"/>
      <point x="328.9803237067598" y="1630.8127578546494"/>
      <point x="308.2040622024754" y="1478.2294509679466" type="curve" smooth="yes"/>
      <point x="94.43002221516979" y="-82.26467788003808" type="line" smooth="yes"/>
      <point x="73.73373532211997" y="-234.24246271025072"/>
      <point x="133.63218026023486" y="-272.107902253253"/>
    </contour>
  </outline>
</glyph>
<glyph name="backslash" format="2">
  <advance width="913.1491589971438"/>
  <unicode hex="005C"/>
  <outline>
    <contour>
      <point x="743.0476039352586" y="-354.0" type="line"/>
      <point x="853.2208822596001" y="-354.0" type="line"/>
      <point x="289.22088225960016" y="1566.1739130434783" type="line"/>
      <point x="180.43890828308474" y="1566.1739130434783" type="line"/>
    </contour>
  </outline>
</glyph>
<glyph name="asciicircum" format="2">
  <advance width="1105.0936210726754"/>
  <unicode hex="005E"/>
  <outline>
    <contour>
      <point x="619.7511900983814" y="1496.0" type="line"/>
      <point x="138.67883211678833" y="404.0" type="line"/>
      <point x="258.27895906061565" y="404.0" type="line"/>
      <point x="651.4258965407807" y="1312.0742621390034" type="line"/>
      <point x="810.5525230085688" y="404.0" type="line"/>
      <point x="936.2104093938432" y="404.0" type="line"/>
      <point x="727.9492224690574" y="1496.0" type="line"/>
    </contour>
  </outline>
</glyph>
<glyph name="grave" format="2">
  <advance width="798.0123770231672"/>
  <unicode hex="0060"/>
  <anchor x="626.2941923198985" y="1109.391304347826" name="_top"/>
  <anchor x="709.5801332910188" y="1687.608695652174" name="top"/>
  <outline>
    <contour>
      <point x="691.253252935576" y="1160.8533798794035" type="curve"/>
      <point x="737.5998095842589" y="1199.1117105680737" type="line"/>
      <point x="470.3855918755951" y="1655.8508410028562" type="line"/>
      <point x="289.4858774992066" y="1506.803554427166" type="line"/>
      <point x="381.15328467153284" y="1387.2935576007617"/>
      <point x="576.8606791494764" y="1231.0060298317994"/>
    </contour>
  </outline>
</glyph>
<glyph name="a" format="2">
  <advance width="1020.4462075531577"/>
  <unicode hex="0061"/>
  <anchor x="474.5702951443986" y="0.0" name="bottom"/>
  <anchor x="1084.0111075848936" y="1622.0" name="caron"/>
  <anchor x="805.104728657569" y="3.65598222786417" name="ogonek"/>
  <anchor x="642.491907331006" y="1108.448746429705" name="top"/>
  <outline>
    <contour>
      <point x="834.5645826721676" y="180.4858774992066" type="curve" smooth="yes"/>
      <point x="964.5880672802284" y="1052.4693748016502" type="line"/>
      <point x="814.2338940019042" y="1013.9152649952398" type="line"/>
      <point x="759.6934306569343" y="1036.799428752777"/>
      <point x="689.746747064424" y="1056.3154554109806"/>
      <point x="620.0215804506506" y="1056.3154554109806" type="curve" smooth="yes"/>
      <point x="264.62615042843544" y="1056.3154554109806"/>
      <point x="33.1973976515392" y="710.1713741669311"/>
      <point x="33.1973976515392" y="355.0907648365598" type="curve" smooth="yes"/>
      <point x="33.1973976515392" y="103.49952396064742"/>
      <point x="168.0815614090765" y="-21.76293240241193"/>
      <point x="321.7622976832751" y="-21.76293240241193" type="curve" smooth="yes"/>
      <point x="462.9558870199936" y="-21.76293240241193"/>
      <point x="557.1317042208823" y="93.85814027292923"/>
      <point x="603.0936210726753" y="214.39384322437323" type="curve"/>
      <point x="592.0783878133926" y="128.1053633767058" type="line"/>
      <point x="585.2399238337035" y="45.59631862900666"/>
      <point x="619.436686766106" y="-21.76293240241193"/>
      <point x="716.8400507775309" y="-21.76293240241193" type="curve" smooth="yes"/>
      <point x="848.5150745794986" y="-21.76293240241193"/>
      <point x="935.5750555379245" y="52.89051094890512"/>
      <point x="978.0488733735323" y="113.26245636305934" type="curve"/>
      <point x="955.3697238971755" y="161.7683275150746" type="line"/>
      <point x="921.3145033322754" y="125.47032688035543"/>
      <point x="890.234528721041" y="111.359568390987"/>
      <point x="868.2542050142812" y="111.359568390987" type="curve" smooth="yes"/>
      <point x="838.1148841637576" y="111.359568390987"/>
      <point x="827.574738178356" y="132.9641383687718"/>
    </contour>
    <contour>
      <point x="694.500793398921" y="946.9136781973978" type="curve"/>
      <point x="595.6797841954935" y="316.4982545223738" type="line"/>
      <point x="563.810853697239" y="205.2926055220565"/>
      <point x="489.1989844493811" y="98.95683909869884"/>
      <point x="418.8337035861631" y="98.95683909869884" type="curve" smooth="yes"/>
      <point x="351.43509996826407" y="98.95683909869884"/>
      <point x="314.2043795620438" y="169.31862900666454"/>
      <point x="314.2043795620438" y="329.63884481117105" type="curve" smooth="yes"/>
      <point x="314.2043795620438" y="611.9876229768328"/>
      <point x="412.8822596001269" y="990.4966677245319"/>
      <point x="608.8248175182481" y="990.4966677245319" type="curve" smooth="yes"/>
      <point x="648.9209774674706" y="990.4966677245319"/>
      <point x="682.6562995874325" y="970.3243414788956"/>
    </contour>
  </outline>
</glyph>
<glyph name="b" format="2">
  <advance width="1013.4157410345922"/>
  <unicode hex="0062"/>
  <anchor x="412.61853379879403" y="0.0" name="bottom"/>
  <anchor x="750.9692161218661" y="1109.4871469374802" name="top"/>
  <outline>
    <contour>
      <point x="424.3735322119962" y="866.9409711202793" type="curve"/>
      <point x="533.7353221199619" y="1607.9866708981274" type="line"/>
      <point x="497.5864804823865" y="1634.0" type="line"/>
      <point x="149.6125039669946" y="1587.318946366233" type="line"/>
      <point x="141.500793398921" y="1544.473183116471" type="line"/>
      <point x="263.1186924785783" y="1508.70612503967" type="line"/>
      <point x="37.76864487464298" y="-19.319263725801335" type="line"/>
      <point x="184.40399873056174" y="20.876229768327512" type="line"/>
      <point x="243.3284671532847" y="-2.451285306251984"/>
      <point x="319.00856870834656" y="-21.288479847667407"/>
      <point x="391.49888924151065" y="-21.288479847667407" type="curve" smooth="yes"/>
      <point x="753.6743890828309" y="-21.288479847667407"/>
      <point x="978.1117105680736" y="307.7473817835608"/>
      <point x="978.1117105680736" y="699.987940336401" type="curve" smooth="yes"/>
      <point x="978.1117105680736" y="926.2377023167248"/>
      <point x="866.9711202792764" y="1062.5017454776262"/>
      <point x="696.9454141542367" y="1062.5017454776262" type="curve" smooth="yes"/>
      <point x="578.8013329101872" y="1062.5017454776262"/>
      <point x="476.45668041891463" y="978.3643287845127"/>
    </contour>
    <contour>
      <point x="310.7984766740717" y="93.16788321167883" type="curve"/>
      <point x="402.58489368454457" y="716.4268486194859" type="line"/>
      <point x="446.00349095525223" y="867.880672802285"/>
      <point x="530.5430022215169" y="941.6604252618217"/>
      <point x="591.9984132021581" y="941.6604252618217" type="curve" smooth="yes"/>
      <point x="659.1580450650587" y="941.6604252618217"/>
      <point x="697.3291018724215" y="870.1418597270708"/>
      <point x="697.3291018724215" y="732.4874642970485" type="curve" smooth="yes"/>
      <point x="697.3291018724215" y="388.43636940653755"/>
      <point x="586.3697238971755" y="48.30910821961282"/>
      <point x="396.9206601079023" y="48.30910821961282" type="curve" smooth="yes"/>
      <point x="358.3087908600444" y="48.30910821961282"/>
      <point x="330.54554109806406" y="62.16121866074261"/>
    </contour>
  </outline>
</glyph>
<glyph name="c" format="2">
  <advance width="805.231355125357"/>
  <unicode hex="0063"/>
  <anchor x="385.86099650904475" y="0.0" name="bottom"/>
  <anchor x="596.1450333227547" y="1109.3398920977468" name="top"/>
  <outline>
    <contour>
      <point x="709.7638844811172" y="759.7261186924787" type="curve" smooth="yes"/>
      <point x="767.4693748016502" y="758.2066010790226" type="line"/>
      <point x="837.034909552523" y="1017.7394477943511" type="line"/>
      <point x="773.1171056807362" y="1044.075531577277"/>
      <point x="682.7369089178039" y="1060.1939066962868"/>
      <point x="609.2253252935576" y="1060.1939066962868" type="curve" smooth="yes"/>
      <point x="252.94319263725805" y="1060.1939066962868"/>
      <point x="37.31894636623294" y="724.8264043160902"/>
      <point x="37.31894636623294" y="399.5398286258331" type="curve" smooth="yes"/>
      <point x="37.31894636623294" y="126.54268486194857"/>
      <point x="168.53665503014918" y="-22.275785464931765"/>
      <point x="382.8156140907649" y="-22.275785464931765" type="curve" smooth="yes"/>
      <point x="549.1989844493812" y="-22.275785464931765"/>
      <point x="668.8930498254522" y="63.65312599174864"/>
      <point x="742.6927959377975" y="177.08314820691842" type="curve"/>
      <point x="713.3027610282451" y="231.2418279911139" type="line"/>
      <point x="654.330371310695" y="157.86797841954933"/>
      <point x="571.2316724849255" y="99.64392256426532"/>
      <point x="480.0837829260552" y="99.64392256426532" type="curve" smooth="yes"/>
      <point x="389.7032688035544" y="99.64392256426532"/>
      <point x="318.9060615677563" y="172.4547762615043"/>
      <point x="318.9060615677563" y="400.9444620755316" type="curve" smooth="yes"/>
      <point x="318.9060615677563" y="729.1612186607426"/>
      <point x="451.6908917803872" y="983.6994604887337"/>
      <point x="576.3300539511266" y="983.6994604887337" type="curve" smooth="yes"/>
      <point x="633.6740717232624" y="983.6994604887337"/>
      <point x="648.0434782608696" y="941.9444620755315"/>
    </contour>
  </outline>
</glyph>
<glyph name="d" format="2">
  <advance width="1026.5696604252619"/>
  <unicode hex="0064"/>
  <anchor x="415.3373532211996" y="0.0" name="bottom"/>
  <anchor x="1138.75150745795" y="1622.0" name="caron"/>
  <anchor x="324.1079022532529" y="1110.0" name="top"/>
  <outline>
    <contour>
      <point x="840.6753411615359" y="175.4817518248175" type="curve"/>
      <point x="1053.8257695969533" y="1607.9866708981274" type="line"/>
      <point x="1017.6769279593781" y="1634.0" type="line"/>
      <point x="657.5652173913044" y="1587.8317994287527" type="line"/>
      <point x="649.4535068232308" y="1544.7616629641386" type="line"/>
      <point x="782.9847667407173" y="1507.6804189146303" type="line"/>
      <point x="713.978102189781" y="1045.2510314185972" type="line"/>
      <point x="692.6245636305935" y="1054.3843224373215"/>
      <point x="650.6293240241193" y="1061.7229450967948"/>
      <point x="616.8590923516343" y="1061.7229450967948" type="curve" smooth="yes"/>
      <point x="250.99238337035862" y="1061.7229450967948"/>
      <point x="34.93779752459537" y="716.3087908600444"/>
      <point x="34.93779752459537" y="357.0060298317994" type="curve" smooth="yes"/>
      <point x="34.93779752459537" y="96.00476039352587"/>
      <point x="171.74071723262455" y="-21.76293240241193"/>
      <point x="327.2999047921295" y="-21.76293240241193" type="curve" smooth="yes"/>
      <point x="470.359568390987" y="-21.76293240241193"/>
      <point x="568.3913043478262" y="99.82830847350048"/>
      <point x="610.8686131386861" y="217.99143129165344" type="curve"/>
      <point x="598.9914312916534" y="128.9508092668994" type="line" smooth="yes"/>
      <point x="590.9098698825769" y="46.624563630593464"/>
      <point x="628.0282450015867" y="-21.76293240241193"/>
      <point x="728.1723262456363" y="-21.76293240241193" type="curve" smooth="yes"/>
      <point x="845.9130434782609" y="-21.76293240241193"/>
      <point x="935.7927642018407" y="47.37226277372263"/>
      <point x="981.5636305934624" y="113.30815614090764" type="curve"/>
      <point x="959.2272294509679" y="161.73405268168838" type="line"/>
      <point x="927.1377340526817" y="125.70168200571247"/>
      <point x="895.146937480165" y="111.359568390987"/>
      <point x="871.6033005395112" y="111.359568390987" type="curve" smooth="yes"/>
      <point x="843.809266899397" y="111.359568390987"/>
      <point x="834.7810218978103" y="132.87019993652808"/>
    </contour>
    <contour>
      <point x="698.8882894319264" y="942.2862583306886" type="curve"/>
      <point x="607.55030149159" y="325.73722627737226" type="line"/>
      <point x="571.8210092034276" y="189.24817518248173"/>
      <point x="489.47984766740717" y="98.77403998730563"/>
      <point x="426.2894319263726" y="98.77403998730563" type="curve" smooth="yes"/>
      <point x="359.85814027292923" y="98.77403998730563"/>
      <point x="315.7204062202475" y="169.20564900031735"/>
      <point x="315.7204062202475" y="328.1764519200254" type="curve" smooth="yes"/>
      <point x="315.7204062202475" y="634.857188194224"/>
      <point x="423.7277054903205" y="991.7597588067281"/>
      <point x="612.0199936528087" y="991.7597588067281" type="curve" smooth="yes"/>
      <point x="662.1472548397334" y="991.7597588067281"/>
      <point x="686.9270072992701" y="967.4335131704221"/>
    </contour>
  </outline>
</glyph>
<glyph name="e" format="2">
  <advance width="878.6655030149159"/>
  <unicode hex="0065"/>
  <anchor x="441.3335449063789" y="0.0" name="bottom"/>
  <anchor x="510.2999047921295" y="0.0" name="ogonek"/>
  <anchor x="576.9654078070454" y="1108.8143446524914" name="top"/>
  <outline>
    <contour>
      <point x="785.67058076801" y="180.78356077435737" type="curve"/>
      <point x="755.190733100603" y="234.6509044747699" type="line"/>
      <point x="683.2281815296731" y="145.81085369723897"/>
      <point x="592.3951126626467" y="98.43509996826403"/>
      <point x="500.6610599809584" y="98.43509996826403" type="curve" smooth="yes"/>
      <point x="342.765471278959" y="98.43509996826403"/>
      <point x="306.95683909869877" y="241.58679784195493"/>
      <point x="322.0847350047604" y="456.8133925737861" type="curve"/>
      <point x="546.1253570295145" y="460.5188828943193"/>
      <point x="878.8070453824182" y="549.1628054585846"/>
      <point x="878.8070453824182" y="842.9657251666138" type="curve" smooth="yes"/>
      <point x="878.8070453824182" y="962.7039035226913"/>
      <point x="792.2843541732783" y="1062.1050460171375"/>
      <point x="602.3430656934307" y="1062.1050460171375" type="curve" smooth="yes"/>
      <point x="275.8730561726436" y="1062.1050460171375"/>
      <point x="38.48460806093303" y="760.1691526499524"/>
      <point x="38.48460806093303" y="382.6417010472866" type="curve" smooth="yes"/>
      <point x="38.48460806093303" y="152.62139003490958"/>
      <point x="152.0745794985719" y="-22.26372580133291"/>
      <point x="405.81085369723894" y="-22.26372580133291" type="curve" smooth="yes"/>
      <point x="597.099016185338" y="-22.26372580133291"/>
      <point x="721.5664868295778" y="85.61409076483656"/>
    </contour>
    <contour>
      <point x="561.2649952396064" y="991.2415106315456" type="curve" smooth="yes"/>
      <point x="603.9019358933672" y="991.2415106315456"/>
      <point x="633.4522373849572" y="954.5960012694383"/>
      <point x="633.4522373849572" y="873.9644557283403" type="curve" smooth="yes"/>
      <point x="633.4522373849572" y="674.7753094255792"/>
      <point x="507.37194541415425" y="530.0904474769915"/>
      <point x="325.5715645826722" y="506.24880990161853" type="curve"/>
      <point x="344.73722627737226" y="698.9898444938115"/>
      <point x="433.4062202475405" y="991.2415106315456"/>
    </contour>
  </outline>
</glyph>
<glyph name="f" format="2">
  <advance width="589.4046334496985"/>
  <unicode hex="0066"/>
  <anchor x="233.66264677880037" y="1485.629958743256" name="top"/>
  <outline>
    <contour>
      <point x="222.00761662964138" y="1140.288162488099" type="curve" smooth="yes"/>
      <point x="207.06854966677244" y="1032.7486512218343" type="line"/>
      <point x="93.70009520787052" y="975.9552523008568" type="line"/>
      <point x="85.92383370358617" y="929.1447159631863" type="line"/>
      <point x="192.27959377975245" y="929.1447159631863" type="line"/>
      <point x="69.50047603935258" y="-73.51190098381466" type="line" smooth="yes"/>
      <point x="39.70898127578546" y="-312.63662329419236"/>
      <point x="-8.190098381466198" y="-420.8181529673119"/>
      <point x="-81.35385591875595" y="-420.8181529673119" type="curve" smooth="yes"/>
      <point x="-118.77975245953665" y="-420.8181529673119"/>
      <point x="-155.94763567121547" y="-398.7108854331958"/>
      <point x="-191.34338305299903" y="-362.96635988575053" type="curve"/>
      <point x="-228.1167883211679" y="-478.74198667089814" type="line"/>
      <point x="-187.40558552840366" y="-496.1475721993018"/>
      <point x="-143.00698191050458" y="-502.60869565217394"/>
      <point x="-94.61091716915264" y="-502.60869565217394" type="curve" smooth="yes"/>
      <point x="162.0704538241828" y="-502.60869565217394"/>
      <point x="296.36781973976514" y="-297.99206601079027"/>
      <point x="346.7959377975246" y="108.89431926372578" type="curve" smooth="yes"/>
      <point x="448.06283719454143" y="929.1447159631863" type="line"/>
      <point x="611.2440495080928" y="929.1447159631863" type="line"/>
      <point x="624.883211678832" y="1032.7740399873057" type="line"/>
      <point x="461.8708346556649" y="1032.7740399873057" type="line"/>
      <point x="488.45255474452557" y="1249.8736908917804" type="line" smooth="yes"/>
      <point x="512.9841320215804" y="1448.7826086956522"/>
      <point x="579.2434147889559" y="1545.585211044113"/>
      <point x="662.6620120596635" y="1545.585211044113" type="curve" smooth="yes"/>
      <point x="707.8930498254522" y="1545.585211044113"/>
      <point x="741.6683592510313" y="1513.459219295462"/>
      <point x="774.2999047921294" y="1472.1564582672167" type="curve"/>
      <point x="816.9936528086322" y="1600.8073627419867" type="line"/>
      <point x="772.0444303395748" y="1619.4290701364646"/>
      <point x="725.2811805775945" y="1629.7756267851476"/>
      <point x="661.400190415741" y="1629.7756267851476" type="curve" smooth="yes"/>
      <point x="412.32751507457954" y="1629.7756267851476"/>
      <point x="259.2875277689622" y="1406.4709615994923"/>
    </contour>
  </outline>
</glyph>
<glyph name="g" format="2">
  <advance width="997.594097112028"/>
  <unicode hex="0067"/>
  <anchor x="353.81656616947" y="0.0" name="bottom"/>
  <anchor x="666.5807232624563" y="580.0" name="tbar"/>
  <anchor x="616.2177086639163" y="1108.731196445573" name="top"/>
  <outline>
    <contour>
      <point x="803.2037448429071" y="-68.14693748016502" type="curve" smooth="yes"/>
      <point x="964.231355125357" y="1052.5493494128848" type="line"/>
      <point x="809.2983179942875" y="1014.3963821009203" type="line"/>
      <point x="760.2465883846398" y="1036.2967311964458"/>
      <point x="693.7918121231355" y="1056.4982545223738"/>
      <point x="616.200571247223" y="1056.4982545223738" type="curve" smooth="yes"/>
      <point x="246.02792764201843" y="1056.4982545223738"/>
      <point x="35.450650587115206" y="730.4655664868296"/>
      <point x="35.450650587115206" y="353.23325928276734" type="curve" smooth="yes"/>
      <point x="35.450650587115206" y="112.84576324976197"/>
      <point x="155.83529038400508" y="-21.76293240241193"/>
      <point x="326.7064423992383" y="-21.76293240241193" type="curve" smooth="yes"/>
      <point x="437.74071723262455" y="-21.76293240241193"/>
      <point x="537.6943827356396" y="64.43541732783243"/>
      <point x="590.4125674389082" y="171.01650269755632" type="curve"/>
      <point x="548.6356712154872" y="-118.0742621390035" type="line" smooth="yes"/>
      <point x="517.0298317994287" y="-337.2681688352904"/>
      <point x="455.37289749285935" y="-430.29070136464617"/>
      <point x="339.1110758489369" y="-430.29070136464617" type="curve" smooth="yes"/>
      <point x="235.27102507140592" y="-430.29070136464617"/>
      <point x="125.9076483655982" y="-337.9130434782609"/>
      <point x="81.11615360203109" y="-226.93684544589019" type="curve"/>
      <point x="6.782926055220564" y="-418.295461758172" type="line"/>
      <point x="77.20755315772772" y="-470.24024119327197"/>
      <point x="182.33068867026344" y="-501.27356394795305"/>
      <point x="325.5699777848302" y="-501.27356394795305" type="curve" smooth="yes"/>
      <point x="565.840050777531" y="-501.27356394795305"/>
      <point x="759.1812123135512" y="-375.8286258330688"/>
    </contour>
    <contour>
      <point x="691.7626150428435" y="947.1351951761345" type="curve"/>
      <point x="608.0441129800064" y="323.81466201205967" type="line"/>
      <point x="571.0095207870518" y="197.22818152967312"/>
      <point x="493.3148206918439" y="98.77403998730563"/>
      <point x="421.5934623928912" y="98.77403998730563" type="curve" smooth="yes"/>
      <point x="374.34719136781973" y="98.77403998730563"/>
      <point x="316.23325928276734" y="135.6553475087274"/>
      <point x="316.23325928276734" y="337.7584893684545" type="curve" smooth="yes"/>
      <point x="316.23325928276734" y="611.3411615360203"/>
      <point x="409.69565217391306" y="990.942240558553"/>
      <point x="607.7718184703268" y="990.942240558553" type="curve" smooth="yes"/>
      <point x="653.5855284036813" y="990.942240558553"/>
      <point x="679.4046334496985" y="970.7553157727706"/>
    </contour>
  </outline>
</glyph>
<glyph name="h" format="2">
  <advance width="1050.1945414154236"/>
  <unicode hex="0068"/>
  <anchor x="475.94636623294195" y="0.0" name="bottom"/>
  <anchor x="895.1700387178674" y="0.0" name="bottomright"/>
  <anchor x="220.4157410345922" y="1814.0" name="cap"/>
  <anchor x="323.9854065376071" y="1292.0" name="tbar"/>
  <anchor x="373.0320533164075" y="1530.7051729609648" name="top"/>
  <outline>
    <contour>
      <point x="401.4811171056807" y="716.9339892097747" type="curve"/>
      <point x="533.2481751824818" y="1607.9866708981274" type="line"/>
      <point x="497.09933354490636" y="1634.0" type="line"/>
      <point x="147.51317042208822" y="1587.318946366233" type="line"/>
      <point x="139.4014598540146" y="1544.473183116471" type="line"/>
      <point x="262.8143446524913" y="1508.70612503967" type="line"/>
      <point x="40.41002856236115" y="0.0" type="line"/>
      <point x="296.98159314503334" y="0.0" type="line"/>
      <point x="378.35480799746114" y="569.6198032370676" type="line"/>
      <point x="457.0971120279276" y="769.7857822913361"/>
      <point x="552.8000634719136" y="886.3259282767376"/>
      <point x="625.3722627737226" y="886.3259282767376" type="curve" smooth="yes"/>
      <point x="674.5804506505872" y="886.3259282767376"/>
      <point x="690.2992700729927" y="853.2567438908283"/>
      <point x="690.2992700729927" y="780.5588701999366" type="curve" smooth="yes"/>
      <point x="690.2992700729927" y="711.8241827991114"/>
      <point x="667.0837829260553" y="555.1466201205966"/>
      <point x="650.5280863218027" y="442.5915582354808" type="curve" smooth="yes"/>
      <point x="632.4614408124405" y="322.07553157727705"/>
      <point x="606.5496667724532" y="157.29006664550937"/>
      <point x="606.5496667724532" y="103.87845128530627" type="curve" smooth="yes"/>
      <point x="606.5496667724532" y="19.797841954934942"/>
      <point x="655.4966677245319" y="-22.275785464931765"/>
      <point x="733.4671532846716" y="-22.275785464931765" type="curve" smooth="yes"/>
      <point x="881.1754998413202" y="-22.275785464931765"/>
      <point x="980.3065693430657" y="63.469374801650275"/>
      <point x="1018.5940971120278" y="113.29546175817201" type="curve"/>
      <point x="997.1291653443351" y="160.63122818152965" type="line"/>
      <point x="961.6864487464297" y="124.13138686131389"/>
      <point x="933.5944144715963" y="111.359568390987"/>
      <point x="912.091716915265" y="111.359568390987" type="curve" smooth="yes"/>
      <point x="893.8895588702" y="111.359568390987"/>
      <point x="879.5417327832433" y="123.83878133925738"/>
      <point x="879.5417327832433" y="169.0041256743891" type="curve" smooth="yes"/>
      <point x="883.644557283402" y="233.5636305934624"/>
      <point x="904.7676927959378" y="375.5541098064107"/>
      <point x="920.3056172643604" y="484.57632497619807" type="curve" smooth="yes"/>
      <point x="936.987940336401" y="603.1218660742621"/>
      <point x="959.4646144081244" y="736.1504284354174"/>
      <point x="959.4646144081244" y="832.3313233894002" type="curve" smooth="yes"/>
      <point x="959.4646144081244" y="970.1859727070771"/>
      <point x="886.0869565217391" y="1058.5912408759125"/>
      <point x="755.6121866074262" y="1058.5912408759125" type="curve" smooth="yes"/>
      <point x="591.2043795620438" y="1058.5912408759125"/>
      <point x="475.77530942557917" y="898.5769596953347"/>
    </contour>
  </outline>
</glyph>
<glyph name="k" format="2">
  <advance width="985.0403046651855"/>
  <unicode hex="006B"/>
  <anchor x="459.4884163757537" y="0.0" name="bottom"/>
  <anchor x="323.9854065376071" y="1292.0" name="tbar"/>
  <anchor x="751.6524912726118" y="1465.0434782608695" name="top"/>
  <outline>
    <contour>
      <point x="40.41002856236115" y="0.0" type="line"/>
      <point x="296.98159314503334" y="0.0" type="line"/>
      <point x="533.2481751824818" y="1607.9866708981274" type="line"/>
      <point x="497.61218660742617" y="1634.0" type="line"/>
      <point x="147.51317042208822" y="1587.318946366233" type="line"/>
      <point x="139.4014598540146" y="1544.473183116471" type="line"/>
      <point x="262.8143446524913" y="1508.70612503967" type="line"/>
    </contour>
    <contour>
      <point x="728.5274516026658" y="-21.397334179625517" type="curve" smooth="yes"/>
      <point x="835.5360203110124" y="-21.397334179625517"/>
      <point x="929.9105046017138" y="38.153284671532845"/>
      <point x="989.2310377657888" y="121.5674389082831" type="curve"/>
      <point x="965.7692795937799" y="167.27895906061568" type="line"/>
      <point x="933.3532211996192" y="128.88543319581083"/>
      <point x="901.7048556013964" y="113.03459219295463"/>
      <point x="876.4420818787686" y="113.03459219295463" type="curve" smooth="yes"/>
      <point x="849.5912408759124" y="113.03459219295463"/>
      <point x="835.5236432878452" y="128.31418597270707"/>
      <point x="801.1961282132655" y="207.01904157410345" type="curve" smooth="yes"/>
      <point x="602.2995874325611" y="658.0783878133925" type="line"/>
      <point x="487.39892097746747" y="568.2862583306887" type="line"/>
      <point x="639.2478578229134" y="635.269438273564"/>
      <point x="800.935893367185" y="729.7895906061568"/>
      <point x="871.7410345921929" y="801.0631545541098" type="curve" smooth="yes"/>
      <point x="921.7296096477309" y="846.1783560774358"/>
      <point x="956.4379562043796" y="897.1853379879403"/>
      <point x="956.4379562043796" y="963.4928594097113" type="curve" smooth="yes"/>
      <point x="956.4379562043796" y="1022.4728657569026"/>
      <point x="919.4890510948904" y="1064.0263408441765"/>
      <point x="852.6947000952078" y="1064.0263408441765" type="curve" smooth="yes"/>
      <point x="799.3567121548714" y="1064.0263408441765"/>
      <point x="737.0736274198666" y="1037.2326245636307"/>
      <point x="720.1148841637576" y="927.6033005395112" type="curve" smooth="yes"/>
      <point x="712.8778165661694" y="878.7841954934942"/>
      <point x="708.0571247223104" y="819.3763884481117"/>
      <point x="670.6861313868613" y="763.1973976515392" type="curve" smooth="yes"/>
      <point x="624.6575690257063" y="694.1675658521104"/>
      <point x="563.6804189146303" y="648.3360837829259"/>
      <point x="396.98794033640115" y="548.1764519200254" type="curve"/>
      <point x="543.7026340844177" y="142.7327832434148" type="line" smooth="yes"/>
      <point x="587.0517296096477" y="15.70644239923834"/>
      <point x="629.0910821961281" y="-21.397334179625517"/>
    </contour>
  </outline>
</glyph>
<glyph name="l" format="2">
  <advance width="506.7835607743573"/>
  <unicode hex="006C"/>
  <anchor x="218.07870517296095" y="0.0" name="bottom"/>
  <anchor x="632.5185655347508" y="1619.3659155823548" name="caron"/>
  <anchor x="393.9276420184068" y="1608.2891145668043" name="top"/>
  <outline>
    <contour>
      <point x="319.60393525864805" y="176.69501745477626" type="curve" smooth="yes"/>
      <point x="531.4842907013647" y="1607.9866708981274" type="line"/>
      <point x="495.5182481751825" y="1634.0" type="line"/>
      <point x="145.50936210726755" y="1587.318946366233" type="line"/>
      <point x="137.3976515391939" y="1544.473183116471" type="line"/>
      <point x="261.0504601713742" y="1508.70612503967" type="line"/>
      <point x="72.3805141225008" y="231.22373849571565" type="line" smooth="yes"/>
      <point x="63.57315138051412" y="171.88257695969534"/>
      <point x="58.8489368454459" y="124.29736591558236"/>
      <point x="58.8489368454459" y="102.90066645509363" type="curve" smooth="yes"/>
      <point x="58.8489368454459" y="13.756585211044111"/>
      <point x="114.02348460806093" y="-22.275785464931765"/>
      <point x="192.60520469692162" y="-22.275785464931765" type="curve" smooth="yes"/>
      <point x="316.93874960330055" y="-22.275785464931765"/>
      <point x="404.42907013646465" y="39.39987305617264"/>
      <point x="464.66740717232625" y="113.77530942557918" type="curve"/>
      <point x="442.4370041256744" y="159.7426213900349" type="line"/>
      <point x="404.31831164709615" y="121.15645826721675"/>
      <point x="376.0929863535386" y="108.79530307838782"/>
      <point x="353.4116153602031" y="108.79530307838782" type="curve" smooth="yes"/>
      <point x="330.7860996509045" y="108.79530307838782"/>
      <point x="316.3414788955887" y="123.79847667407174"/>
    </contour>
  </outline>
</glyph>
<glyph name="m" format="2">
  <advance width="1592.5798159314504"/>
  <unicode hex="006D"/>
  <anchor x="724.3173595683911" y="0.0" name="bottom"/>
  <anchor x="1455.0552205648999" y="0.0" name="bottomright"/>
  <anchor x="962.7546810536337" y="1108.9742938749603" name="top"/>
  <outline>
    <contour>
      <point x="445.7204062202476" y="1026.7695969533481" type="line"/>
      <point x="406.92446842272295" y="1057.2450015867978" type="line"/>
      <point x="90.20628371945415" y="998.528403681371" type="line"/>
      <point x="82.96286893049827" y="954.2659473183116" type="line"/>
      <point x="177.79688987622978" y="912.6112345287211" type="line"/>
      <point x="51.2713424309743" y="0.0" type="line"/>
      <point x="309.84608060933044" y="0.0" type="line"/>
      <point x="387.297048556014" y="569.9397016820056" type="line"/>
      <point x="452.4385909235163" y="736.7511900983815"/>
      <point x="549.6835925103142" y="886.3259282767376"/>
      <point x="627.590923516344" y="886.3259282767376" type="curve" smooth="yes"/>
      <point x="673.6705807680102" y="886.3259282767376"/>
      <point x="692.5255474452554" y="855.0618851158363"/>
      <point x="692.5255474452554" y="785.6569343065694" type="curve" smooth="yes"/>
      <point x="692.5255474452554" y="725.3033957473818"/>
      <point x="674.8013329101873" y="579.1072675341162"/>
      <point x="662.546175817201" y="488.2354807997461" type="curve" smooth="yes"/>
      <point x="597.4176451920026" y="0.0" type="line"/>
      <point x="855.912408759124" y="0.0" type="line"/>
      <point x="922.1682005712473" y="516.1301174230402" type="line" smooth="yes"/>
      <point x="928.0695017454776" y="562.9266899397016"/>
      <point x="932.6286893049825" y="604.4052681688354"/>
      <point x="933.7657886385275" y="633.5845763249762" type="curve"/>
      <point x="902.9028879720723" y="512.7813392573786" type="line"/>
      <point x="994.9974611234529" y="767.0793398920978"/>
      <point x="1095.4128847984769" y="886.3259282767376"/>
      <point x="1171.225642653126" y="886.3259282767376" type="curve" smooth="yes"/>
      <point x="1219.4376388448113" y="886.3259282767376"/>
      <point x="1236.5547445255474" y="852.5026975563313"/>
      <point x="1236.5547445255474" y="785.174547762615" type="curve" smooth="yes"/>
      <point x="1236.5547445255474" y="718.416375753729"/>
      <point x="1216.8397334179626" y="574.4662012059664"/>
      <point x="1197.0434782608695" y="442.9914312916535" type="curve" smooth="yes"/>
      <point x="1178.5125357029517" y="321.23738495715645"/>
      <point x="1152.9736591558235" y="154.6966042526182"/>
      <point x="1152.9736591558235" y="103.4900031735957" type="curve" smooth="yes"/>
      <point x="1152.9736591558235" y="19.649317676927964"/>
      <point x="1203.4449381148843" y="-22.275785464931765"/>
      <point x="1280.5798159314504" y="-22.275785464931765" type="curve" smooth="yes"/>
      <point x="1425.4363694065376" y="-22.275785464931765"/>
      <point x="1523.8305299904791" y="65.12091399555698"/>
      <point x="1560.9793716280544" y="112.78260869565217" type="curve"/>
      <point x="1539.5144398603618" y="160.11837511900984" type="line"/>
      <point x="1504.03744842907" y="122.89146302761029"/>
      <point x="1471.4246271025072" y="111.359568390987"/>
      <point x="1455.6150428435415" y="111.359568390987" type="curve" smooth="yes"/>
      <point x="1435.3963821009202" y="111.359568390987"/>
      <point x="1421.9270072992701" y="123.29450967946684"/>
      <point x="1421.9270072992701" y="169.19517613456046" type="curve" smooth="yes"/>
      <point x="1425.516978736909" y="231.5642653125992"/>
      <point x="1445.5858457632498" y="371.20247540463345"/>
      <point x="1462.370993335449" y="482.81688352903836" type="curve" smooth="yes"/>
      <point x="1476.8705172960963" y="576.5474452554744"/>
      <point x="1501.947318311647" y="734.6080609330371"/>
      <point x="1501.947318311647" y="829.6121866074262" type="curve" smooth="yes"/>
      <point x="1501.947318311647" y="969.3862265947319"/>
      <point x="1433.5293557600762" y="1058.5912408759125"/>
      <point x="1301.718184703269" y="1058.5912408759125" type="curve" smooth="yes"/>
      <point x="1104.6626467788005" y="1058.5912408759125"/>
      <point x="985.0663281497938" y="834.8235480799747"/>
      <point x="912.1174230403046" y="630.7746747064425" type="curve"/>
      <point x="934.5931450333227" y="623.7077118375119" type="line"/>
      <point x="945.8216439225642" y="706.3649635036497"/>
      <point x="954.3957473817835" y="783.2907013646461"/>
      <point x="954.3957473817835" y="837.2681688352903" type="curve" smooth="yes"/>
      <point x="954.3957473817835" y="976.0672802284989"/>
      <point x="881.4468422722945" y="1058.5912408759125"/>
      <point x="756.1742304030466" y="1058.5912408759125" type="curve" smooth="yes"/>
      <point x="593.0374484290701" y="1058.5912408759125"/>
      <point x="476.2148524278007" y="887.2980006347192"/>
      <point x="406.8524278006982" y="713.0583941605839" type="curve"/>
    </contour>
  </outline>
</glyph>
<glyph name="n" format="2">
  <advance width="1059.1596318629008"/>
  <unicode hex="006E"/>
  <anchor x="486.6559822278641" y="0.0" name="bottom"/>
  <anchor x="918.4423992383371" y="0.0" name="bottomright"/>
  <anchor x="630.1348778165661" y="1110.0" name="top"/>
  <outline>
    <contour>
      <point x="407.2180260234846" y="712.7956204379561" type="curve"/>
      <point x="447.0" y="1026.7695969533481" type="line"/>
      <point x="407.7968898762298" y="1057.2450015867978" type="line"/>
      <point x="90.38908283084736" y="998.528403681371" type="line"/>
      <point x="82.96286893049827" y="954.2659473183116" type="line"/>
      <point x="177.97968898762295" y="912.6112345287211" type="line"/>
      <point x="52.99270072992701" y="0.0" type="line"/>
      <point x="309.51602665820377" y="0.0" type="line"/>
      <point x="387.54712789590604" y="569.8597270707712" type="line"/>
      <point x="457.88828943192635" y="747.6480482386544"/>
      <point x="558.4112980006347" y="886.3259282767376"/>
      <point x="636.5715645826722" y="886.3259282767376" type="curve" smooth="yes"/>
      <point x="685.7442081878769" y="886.3259282767376"/>
      <point x="703.0371310695017" y="853.2567438908283"/>
      <point x="703.0371310695017" y="782.9047921294826" type="curve" smooth="yes"/>
      <point x="703.0371310695017" y="719.5017454776262"/>
      <point x="679.2681688352905" y="570.6845445890193"/>
      <point x="661.4684227229451" y="453.1939066962869" type="curve" smooth="yes"/>
      <point x="642.3405268168835" y="329.021897810219"/>
      <point x="616.5404633449699" y="155.09647730879084"/>
      <point x="616.5404633449699" y="103.87845128530627" type="curve" smooth="yes"/>
      <point x="616.5404633449699" y="19.797841954934942"/>
      <point x="666.0003173595685" y="-22.275785464931765"/>
      <point x="742.5794985718819" y="-22.275785464931765" type="curve" smooth="yes"/>
      <point x="892.8876547127895" y="-22.275785464931765"/>
      <point x="989.2716597905427" y="63.469374801650275"/>
      <point x="1027.5591875595048" y="113.29546175817201" type="curve"/>
      <point x="1005.5814027292923" y="160.63122818152965" type="line"/>
      <point x="970.6515391939066" y="123.90701364646145"/>
      <point x="940.8606791494763" y="111.359568390987"/>
      <point x="921.5696604252619" y="111.359568390987" type="curve" smooth="yes"/>
      <point x="901.8289431926372" y="111.359568390987"/>
      <point x="889.0196762932402" y="123.61440812440496"/>
      <point x="889.0196762932402" y="168.55537924468425" type="curve" smooth="yes"/>
      <point x="892.0967946683593" y="229.8245001586798"/>
      <point x="913.5499841320216" y="375.32973659155823"/>
      <point x="929.2707077118375" y="484.57632497619807" type="curve" smooth="yes"/>
      <point x="946.1358298952713" y="603.1218660742621"/>
      <point x="971.6896223421136" y="737.4300222151699"/>
      <point x="971.6896223421136" y="828.3097429387495" type="curve" smooth="yes"/>
      <point x="971.6896223421136" y="970.1859727070771"/>
      <point x="902.0847350047604" y="1058.5912408759125"/>
      <point x="766.740399873056" y="1058.5912408759125" type="curve" smooth="yes"/>
      <point x="604.669628689305" y="1058.5912408759125"/>
      <point x="484.2592827673754" y="899.6788321167884"/>
    </contour>
  </outline>
</glyph>
<glyph name="o" format="2">
  <advance width="989.559187559505"/>
  <unicode hex="006F"/>
  <anchor x="416.78959060615676" y="-0.5255474452554745" name="bottom"/>
  <anchor x="496.07013646461445" y="518.6413836877182" name="center"/>
  <anchor x="537.4350999682641" y="9.7429387496033" name="ogonek"/>
  <anchor x="598.2338940019041" y="1110.0" name="top"/>
  <anchor x="726.3202158045065" y="1032.5912408759125" name="topright"/>
  <outline>
    <contour>
      <point x="575.4160583941606" y="1061.2967311964453" type="curve" smooth="yes"/>
      <point x="254.19644557283405" y="1061.2967311964453"/>
      <point x="39.117740399873064" y="749.3227546810537"/>
      <point x="39.117740399873064" y="400.85972707077116" type="curve" smooth="yes"/>
      <point x="39.117740399873064" y="140.4262139003491"/>
      <point x="162.49444620755315" y="-25.565217391304348"/>
      <point x="416.4160583941606" y="-25.565217391304348" type="curve" smooth="yes"/>
      <point x="738.3252935576007" y="-25.565217391304348"/>
      <point x="951.2586480482387" y="286.81973976515394"/>
      <point x="951.2586480482387" y="637.7080291970802" type="curve" smooth="yes"/>
      <point x="951.2586480482387" y="897.6417010472866"/>
      <point x="825.0453824182799" y="1061.2967311964453"/>
    </contour>
    <contour>
      <point x="566.3344969850841" y="992.3532211996192" type="curve" smooth="yes"/>
      <point x="645.8340209457315" y="992.3532211996192"/>
      <point x="675.6953348143446" y="887.5039669946049"/>
      <point x="675.6953348143446" y="739.5880672802285" type="curve" smooth="yes"/>
      <point x="675.6953348143446" y="400.3773405268169"/>
      <point x="584.5077753094256" y="43.29831799428753"/>
      <point x="423.03237067597587" y="43.29831799428753" type="curve" smooth="yes"/>
      <point x="351.4652491272612" y="43.29831799428753"/>
      <point x="314.681053633767" y="132.43192637258014"/>
      <point x="314.681053633767" y="293.2173913043478" type="curve" smooth="yes"/>
      <point x="314.681053633767" y="631.777530942558"/>
      <point x="406.12821326563" y="992.3532211996192"/>
    </contour>
  </outline>
</glyph>
<glyph name="p" format="2">
  <advance width="1021.5817200888606"/>
  <unicode hex="0070"/>
  <anchor x="614.3532211996192" y="81.50301491589971" name="tick"/>
  <anchor x="628.22881624881" y="1108.9742938749603" name="top"/>
  <outline>
    <contour>
      <point x="-17.251348778165664" y="-507.55125357029516" type="line"/>
      <point x="237.87749920660107" y="-507.55125357029516" type="line"/>
      <point x="307.18565534750877" y="-9.607743573468738" type="line"/>
      <point x="338.26150428435415" y="-17.359568390986986"/>
      <point x="372.1843859092352" y="-21.02570612503967"/>
      <point x="403.8797207235798" y="-21.02570612503967" type="curve" smooth="yes"/>
      <point x="775.9501745477626" y="-21.02570612503967"/>
      <point x="986.4604887337354" y="324.0225325293558"/>
      <point x="986.4604887337354" y="697.039035226912" type="curve" smooth="yes"/>
      <point x="986.4604887337354" y="921.724849254205"/>
      <point x="880.6750238019677" y="1062.5017454776262"/>
      <point x="707.3005395112664" y="1062.5017454776262" type="curve" smooth="yes"/>
      <point x="581.0780704538242" y="1062.5017454776262"/>
      <point x="478.42018406854964" y="969.285623611552"/>
      <point x="424.02665820374483" y="854.5668041891463" type="curve"/>
      <point x="446.5128530625198" y="1026.7695969533481" type="line"/>
      <point x="407.0853697238972" y="1057.2450015867978" type="line"/>
      <point x="90.34750872738812" y="998.528403681371" type="line"/>
      <point x="82.92129482703905" y="954.2659473183116" type="line"/>
      <point x="177.93811488416375" y="912.6112345287211" type="line"/>
    </contour>
    <contour>
      <point x="320.90701364646145" y="93.45668041891464" type="curve"/>
      <point x="407.96286893049825" y="712.7727705490321" type="line"/>
      <point x="455.3567121548715" y="864.410663281498"/>
      <point x="538.6499523960647" y="941.6604252618217"/>
      <point x="601.5299904792129" y="941.6604252618217" type="curve" smooth="yes"/>
      <point x="667.7213582989527" y="941.6604252618217"/>
      <point x="706.190733100603" y="874.5439543002223"/>
      <point x="706.190733100603" y="731.6045699777848" type="curve" smooth="yes"/>
      <point x="706.190733100603" y="418.18470326880356"/>
      <point x="603.4823865439542" y="47.28340209457315"/>
      <point x="406.2218343383053" y="47.28340209457315" type="curve" smooth="yes"/>
      <point x="369.2995874325611" y="47.28340209457315"/>
      <point x="339.07108854331955" y="62.45858457632497"/>
    </contour>
  </outline>
</glyph>
<glyph name="q" format="2">
  <advance width="1011.0663281497937"/>
  <unicode hex="0071"/>
  <anchor x="430.29450967946684" y="1580.0" name="cr"/>
  <anchor x="630.0504601713742" y="1139.4560456997779" name="top"/>
  <outline>
    <contour>
      <point x="777.5036496350366" y="-310.27229450967945" type="curve" smooth="yes"/>
      <point x="971.9882576959695" y="1052.5493494128848" type="line"/>
      <point x="819.2894319263727" y="1014.3963821009203" type="line"/>
      <point x="766.3532211996192" y="1038.0330053951127"/>
      <point x="701.1840685496668" y="1056.5782291336084"/>
      <point x="622.3548079974611" y="1056.5782291336084" type="curve" smooth="yes"/>
      <point x="256.65344335131704" y="1056.5782291336084"/>
      <point x="35.08187876864487" y="741.1082196128214"/>
      <point x="35.08187876864487" y="349.64138368771813" type="curve" smooth="yes"/>
      <point x="35.08187876864487" y="114.73341796255157"/>
      <point x="158.7527768962234" y="-21.76293240241193"/>
      <point x="329.6232941923199" y="-21.76293240241193" type="curve" smooth="yes"/>
      <point x="432.9203427483339" y="-21.76293240241193"/>
      <point x="536.526816883529" y="55.309425579181216"/>
      <point x="592.0152332592827" y="170.83370358616313" type="curve"/>
      <point x="518.0669628689305" y="-338.0602983179943" type="line" smooth="yes"/>
      <point x="503.5537924468423" y="-438.0983814662012"/>
      <point x="539.4998413202159" y="-504.075531577277"/>
      <point x="648.5731513805142" y="-504.075531577277" type="curve" smooth="yes"/>
      <point x="777.509679466836" y="-504.075531577277"/>
      <point x="871.3522691209141" y="-436.38813075214216"/>
      <point x="918.2554744525547" y="-373.52269120913996" type="curve"/>
      <point x="896.6689939701682" y="-323.94287527768955" type="line"/>
      <point x="865.025071405903" y="-358.781656616947"/>
      <point x="832.1028245001587" y="-373.5182481751825"/>
      <point x="807.7626150428435" y="-373.5182481751825" type="curve" smooth="yes"/>
      <point x="786.4620755315773" y="-373.5182481751825"/>
      <point x="770.6635988575056" y="-359.50206283719456"/>
    </contour>
    <contour>
      <point x="699.5195176134561" y="946.6864487464297" type="curve"/>
      <point x="609.133925737861" y="322.66074262139" type="line"/>
      <point x="563.7822913360837" y="171.95525230085687"/>
      <point x="487.68613138686135" y="98.85401459854013"/>
      <point x="422.234528721041" y="98.85401459854013" type="curve" smooth="yes"/>
      <point x="369.74611234528726" y="98.85401459854013"/>
      <point x="315.5601396382101" y="152.14947635671217"/>
      <point x="315.5601396382101" y="325.3218026023485" type="curve" smooth="yes"/>
      <point x="315.5601396382101" y="652.5464931767693"/>
      <point x="423.1263091082196" y="990.7822913360837"/>
      <point x="611.2335766423358" y="990.942240558553" type="curve" smooth="yes"/>
      <point x="657.6893049825452" y="990.942240558553"/>
      <point x="686.7778483021262" y="972.9022532529355"/>
    </contour>
  </outline>
</glyph>
<glyph name="r" format="2">
  <advance width="712.3046651856554"/>
  <unicode hex="0072"/>
  <anchor x="198.59949222469055" y="0.0" name="bottom"/>
  <anchor x="457.07965725166616" y="1110.0" name="top"/>
  <outline>
    <contour>
      <point x="398.79784195493494" y="709.3233894001904" type="curve"/>
      <point x="419.45541098064103" y="849.6337670580768" type="line"/>
      <point x="440.0891780387179" y="1025.1015550618852" type="line"/>
      <point x="401.033322754681" y="1057.2450015867978" type="line"/>
      <point x="90.38908283084736" y="998.528403681371" type="line"/>
      <point x="82.96286893049827" y="954.2659473183116" type="line"/>
      <point x="177.97968898762295" y="912.6112345287211" type="line"/>
      <point x="52.83275150745795" y="0.0" type="line"/>
      <point x="311.4074896858141" y="0.0" type="line"/>
      <point x="397.3824182799111" y="637.8416375753729" type="line"/>
      <point x="438.50523643287846" y="707.5185655347508"/>
      <point x="517.2148524278007" y="789.74357346874"/>
      <point x="604.6804189146302" y="789.74357346874" type="curve" smooth="yes"/>
      <point x="649.7889558870199" y="789.74357346874"/>
      <point x="688.9447794350999" y="770.726436052047"/>
      <point x="701.6750238019677" y="758.735322119962" type="curve"/>
      <point x="757.3135512535704" y="1041.571247223104" type="line"/>
      <point x="744.0618851158362" y="1050.308473500476"/>
      <point x="723.8854331958108" y="1057.5337987940336"/>
      <point x="689.9917486512218" y="1057.5337987940336" type="curve" smooth="yes"/>
      <point x="554.0050777530943" y="1057.5337987940336"/>
      <point x="460.6547127895906" y="877.3227546810537"/>
    </contour>
  </outline>
</glyph>
<glyph name="s" format="2">
  <advance width="748.9187559504919"/>
  <unicode hex="0073"/>
  <anchor x="316.3046651856553" y="0.0" name="bottom"/>
  <anchor x="471.82926055220565" y="1108.9742938749603" name="top"/>
  <outline>
    <contour>
      <point x="684.1669311329737" y="828.2097746747064" type="line"/>
      <point x="725.5245953665503" y="1024.059980958426" type="line"/>
      <point x="683.809266899397" y="1042.1951761345604"/>
      <point x="577.9660425261822" y="1059.6394795303079"/>
      <point x="486.1856553475087" y="1059.6394795303079" type="curve" smooth="yes"/>
      <point x="264.1885115836243" y="1059.6394795303079"/>
      <point x="91.27515074579499" y="934.0971120279276"/>
      <point x="91.27515074579499" y="737.65090447477" type="curve" smooth="yes"/>
      <point x="91.27515074579499" y="587.9257378609966"/>
      <point x="184.0777530942558" y="504.8083148206918"/>
      <point x="286.6020311012377" y="426.54173278324345" type="curve" smooth="yes"/>
      <point x="394.46874008251353" y="344.94319263725805"/>
      <point x="458.4671532846715" y="288.8406854966678"/>
      <point x="458.4671532846715" y="194.1228181529673" type="curve" smooth="yes"/>
      <point x="458.4671532846715" y="101.38146620120598"/>
      <point x="391.224055855284" y="50.28974928594098"/>
      <point x="304.7680101555062" y="50.28974928594098" type="curve" smooth="yes"/>
      <point x="200.03173595683907" y="50.28974928594098"/>
      <point x="114.77150111075849" y="119.43351317042209"/>
      <point x="83.99206601079023" y="241.62424627102507" type="curve"/>
      <point x="42.94509679466836" y="241.62424627102507" type="line"/>
      <point x="-1.5994922246905716" y="44.309108219612824" type="line"/>
      <point x="43.03586163122819" y="11.938114884163756"/>
      <point x="162.22691209139956" y="-24.026658203744844"/>
      <point x="284.548714693748" y="-24.026658203744844" type="curve" smooth="yes"/>
      <point x="501.86766105998095" y="-24.026658203744844"/>
      <point x="686.3468740082513" y="99.08536972389717"/>
      <point x="686.3468740082513" y="323.27546810536336" type="curve" smooth="yes"/>
      <point x="686.3468740082513" y="454.5858457632498"/>
      <point x="602.0580768010154" y="531.2354807997461"/>
      <point x="466.71628054585847" y="639.2732465883847" type="curve" smooth="yes"/>
      <point x="366.53284671532845" y="719.6499523960647"/>
      <point x="313.7638844811171" y="764.8448111710568"/>
      <point x="313.7638844811171" y="844.583624246271" type="curve" smooth="yes"/>
      <point x="313.7638844811171" y="935.4049508092669"/>
      <point x="380.5350682323072" y="986.163122818153"/>
      <point x="463.3097429387496" y="986.163122818153" type="curve" smooth="yes"/>
      <point x="549.692478578229" y="986.163122818153"/>
      <point x="618.5042843541733" y="930.7118375119011"/>
      <point x="640.2059663598858" y="828.2097746747064" type="curve"/>
    </contour>
  </outline>
</glyph>
<glyph name="t" format="2">
  <advance width="602.3189463662329"/>
  <unicode hex="0074"/>
  <anchor x="261.8648048238654" y="0.0" name="bottom"/>
  <anchor x="661.0244366867662" y="1250.021897810219" name="car"/>
  <anchor x="625.1412250079339" y="1612.2304030466519" name="caron"/>
  <anchor x="229.4907699143129" y="580.0" name="tbar"/>
  <anchor x="443.1113932085052" y="1362.0" name="top"/>
  <outline>
    <contour>
      <point x="364.4443033957474" y="369.3052999047921" type="curve" smooth="yes"/>
      <point x="441.5220564900032" y="932.7346874008251" type="line"/>
      <point x="614.0777530942557" y="932.7346874008251" type="line"/>
      <point x="627.8156140907648" y="1032.5912408759125" type="line"/>
      <point x="455.71152015233264" y="1032.5912408759125" type="line"/>
      <point x="498.31450333227554" y="1330.8429070136465" type="line"/>
      <point x="384.0983814662012" y="1330.8429070136465" type="line"/>
      <point x="349.0936210726753" y="1240.370041256744"/>
      <point x="265.5026975563313" y="1090.4065376071087"/>
      <point x="204.11139320850523" y="1033.6556648682958" type="curve"/>
      <point x="90.80133291018724" y="975.9552523008568" type="line"/>
      <point x="82.69501745477626" y="932.2218343383054" type="line"/>
      <point x="186.0019041574103" y="932.2218343383054" type="line"/>
      <point x="109.17486512218345" y="381.5385591875595" type="line" smooth="yes"/>
      <point x="92.70675975880673" y="262.4855601396382"/>
      <point x="78.74103459219295" y="164.8317994287528"/>
      <point x="77.20247540463345" y="130.95207870517297" type="curve" smooth="yes"/>
      <point x="71.04823865439542" y="26.486194858774994"/>
      <point x="138.91939066962868" y="-22.05141225007934"/>
      <point x="242.01840685496668" y="-22.05141225007934" type="curve" smooth="yes"/>
      <point x="369.0066645509362" y="-22.05141225007934"/>
      <point x="485.9105046017138" y="27.843859092351636"/>
      <point x="562.5452237384958" y="127.79879403364012" type="curve"/>
      <point x="542.0517296096477" y="180.49666772453187" type="line"/>
      <point x="497.72548397334174" y="134.68613138686132"/>
      <point x="444.9105046017137" y="112.42748333862265"/>
      <point x="399.01301174230406" y="112.42748333862265" type="curve" smooth="yes"/>
      <point x="364.68137099333546" y="112.42748333862265"/>
      <point x="341.72929228816247" y="130.20533164074897"/>
      <point x="341.72929228816247" y="171.25293557600762" type="curve" smooth="yes"/>
      <point x="341.72929228816247" y="201.2713424309743"/>
      <point x="350.5407807045383" y="269.20723579815933"/>
    </contour>
  </outline>
</glyph>
<glyph name="u" format="2">
  <advance width="1051.4249444620755"/>
  <unicode hex="0075"/>
  <anchor x="445.97080291970804" y="0.0" name="bottom"/>
  <anchor x="901.8416375753728" y="0.0" name="bottomright"/>
  <anchor x="815.579498571882" y="0.0" name="ogonek"/>
  <anchor x="601.6115518882895" y="1110.0" name="top"/>
  <anchor x="893.1586797841954" y="1036.292922881625" name="topright"/>
  <outline>
    <contour>
      <point x="284.86543954300225" y="-22.275785464931765" type="curve" smooth="yes"/>
      <point x="453.4550936210727" y="-22.275785464931765"/>
      <point x="572.3237067597588" y="121.4535068232307"/>
      <point x="639.6356712154872" y="298.2332592827674" type="curve"/>
      <point x="641.5683909869882" y="297.86766105998095" type="line"/>
      <point x="627.8562361155189" y="214.36052046969215"/>
      <point x="615.2891145668042" y="134.49349412884797"/>
      <point x="617.1171056807362" y="91.73595683909869" type="curve" smooth="yes"/>
      <point x="620.5902887972072" y="24.72929228816249"/>
      <point x="657.5382418279911" y="-21.76293240241193"/>
      <point x="746.6616947000952" y="-21.76293240241193" type="curve" smooth="yes"/>
      <point x="866.4246271025072" y="-21.76293240241193"/>
      <point x="954.8940019041573" y="43.00158679784195"/>
      <point x="1008.2100920342747" y="113.62805458584576" type="curve"/>
      <point x="985.9381148841638" y="162.133925737861" type="line"/>
      <point x="954.7315138051412" y="127.03332275468107"/>
      <point x="922.2596001269438" y="111.359568390987"/>
      <point x="897.1272611869248" y="111.359568390987" type="curve" smooth="yes"/>
      <point x="870.777530942558" y="111.359568390987"/>
      <point x="860.1691526499524" y="132.18978102189783"/>
      <point x="866.6175817200888" y="177.07648365598223" type="curve" smooth="yes"/>
      <point x="993.5033322754681" y="1037.0012694382738" type="line"/>
      <point x="737.5658521104411" y="1037.0012694382738" type="line"/>
      <point x="646.1802602348461" y="429.0666455093621" type="line"/>
      <point x="583.6953348143446" y="259.5052364328784"/>
      <point x="499.30498254522365" y="143.5458584576325"/>
      <point x="412.54014598540147" y="143.5458584576325" type="curve" smooth="yes"/>
      <point x="367.21739130434787" y="143.5458584576325"/>
      <point x="347.3728974928594" y="177.10758489368456"/>
      <point x="347.3728974928594" y="244.2370675975881" type="curve" smooth="yes"/>
      <point x="347.3728974928594" y="287.3855918755951"/>
      <point x="368.28625833068867" y="456.30720406220246"/>
      <point x="385.435099968264" y="579.7080291970802" type="curve" smooth="yes"/>
      <point x="447.5969533481435" y="1026.7695969533481" type="line"/>
      <point x="408.39384322437326" y="1057.2450015867978" type="line"/>
      <point x="88.62710250714059" y="998.528403681371" type="line"/>
      <point x="81.2008886067915" y="954.2659473183116" type="line"/>
      <point x="175.7048556013964" y="912.6112345287211" type="line"/>
      <point x="123.36559822278643" y="541.3678197397652" type="line" smooth="yes"/>
      <point x="109.06125039669946" y="441.4328784512853"/>
      <point x="83.26562995874326" y="273.97810218978105"/>
      <point x="83.26562995874326" y="196.53189463662332" type="curve" smooth="yes"/>
      <point x="83.26562995874326" y="57.38559187559505"/>
      <point x="163.67438908283083" y="-22.275785464931765"/>
    </contour>
  </outline>
</glyph>
<glyph name="v" format="2">
  <advance width="865.5395112662646"/>
  <unicode hex="0076"/>
  <anchor x="522.1583624246272" y="1108.9742938749603" name="top"/>
  <outline>
    <contour>
      <point x="105.58045065058712" y="870.7991113932085" type="curve" smooth="yes"/>
      <point x="176.96159949222468" y="377.2180260234846" type="line"/>
      <point x="235.069819105046" y="-20.0" type="line"/>
      <point x="394.1059980958426" y="-6.384322437321486" type="line"/>
      <point x="540.6531259917487" y="191.1094890510949" type="line" smooth="yes"/>
      <point x="773.7756267851476" y="501.64297048556017"/>
      <point x="874.0244366867661" y="710.7019993652809"/>
      <point x="874.0244366867661" y="877.0926689939702" type="curve" smooth="yes"/>
      <point x="874.0244366867661" y="968.3795620437955"/>
      <point x="842.1907331006029" y="1064.9060615677563"/>
      <point x="734.7311964455729" y="1064.9060615677563" type="curve" smooth="yes"/>
      <point x="669.2383370358616" y="1064.9060615677563"/>
      <point x="620.0945731513805" y="1012.2056490003173"/>
      <point x="620.0945731513805" y="941.0986988257696" type="curve" smooth="yes"/>
      <point x="620.0945731513805" y="860.5607743573469"/>
      <point x="692.5522056490003" y="805.1932719771501"/>
      <point x="692.5522056490003" y="695.9923833703585" type="curve" smooth="yes"/>
      <point x="692.5522056490003" y="570.2894319263726"/>
      <point x="623.3706759758807" y="439.4446207553158"/>
      <point x="524.8584576324976" y="288.05617264360524" type="curve" smooth="yes"/>
      <point x="380.41129800063476" y="61.92097746747065" type="line"/>
      <point x="454.09774674706443" y="111.02031101237702" type="line"/>
      <point x="419.02634084417645" y="437.27673754363695" type="line"/>
      <point x="373.0250714059029" y="882.679466835925" type="line" smooth="yes"/>
      <point x="360.6528086321802" y="1002.5826721675659"/>
      <point x="323.3306886702634" y="1064.3932085052363"/>
      <point x="219.4538241827991" y="1064.3932085052363" type="curve" smooth="yes"/>
      <point x="119.21802602348463" y="1064.3932085052363"/>
      <point x="37.69533481434465" y="1010.3665503014915"/>
      <point x="-12.252300856870836" y="953.581085369724" type="curve"/>
      <point x="8.510948905109489" y="908.9568390986989" type="line"/>
      <point x="28.552205649000314" y="925.0199936528087"/>
      <point x="46.23072040622024" y="934.364328784513"/>
      <point x="63.83529038400509" y="934.364328784513" type="curve" smooth="yes"/>
      <point x="87.00729927007299" y="934.364328784513"/>
      <point x="98.58045065058712" y="919.2123135512535"/>
    </contour>
  </outline>
</glyph>
<glyph name="w" format="2">
  <advance width="1432.6848619485877"/>
  <unicode hex="0077"/>
  <guideline x="786.9390669628689" y="185.4976198032371" angle="0.0"/>
  <anchor x="805.0599809584259" y="1108.9742938749603" name="top"/>
  <outline>
    <contour>
      <point x="240.35226912091397" y="-20.0" type="line"/>
      <point x="458.10250714059026" y="-4.416058394160584" type="line"/>
      <point x="602.8930498254523" y="407.7635671215487" type="line"/>
      <point x="693.7676927959378" y="665.9228816248809" type="line"/>
      <point x="738.7362741986672" y="840.052046969216" type="line"/>
      <point x="746.9384322437321" y="666.5315772770549" type="line"/>
      <point x="767.5496667724532" y="388.835290384005" type="line"/>
      <point x="799.1104411298" y="-19.02570612503967" type="line"/>
      <point x="981.0888606791497" y="-7.1986670898127585" type="line"/>
      <point x="1136.9209774674707" y="225.7486512218343" type="line" smooth="yes"/>
      <point x="1339.3300539511267" y="526.7518248175182"/>
      <point x="1431.601396382101" y="718.1342430974294"/>
      <point x="1431.601396382101" y="880.8965407807045" type="curve" smooth="yes"/>
      <point x="1431.601396382101" y="981.5522056490004"/>
      <point x="1395.2561091716916" y="1064.6816883529038"/>
      <point x="1293.215804506506" y="1064.6816883529038" type="curve" smooth="yes"/>
      <point x="1228.9371628054587" y="1064.6816883529038"/>
      <point x="1179.828943192637" y="1007.9765153919391"/>
      <point x="1179.828943192637" y="941.6696286893051" type="curve" smooth="yes"/>
      <point x="1179.828943192637" y="861.8419549349413"/>
      <point x="1253.793081561409" y="793.5264995239606"/>
      <point x="1253.793081561409" y="697.3678197397652" type="curve" smooth="yes"/>
      <point x="1253.793081561409" y="602.7194541415423"/>
      <point x="1209.6163122818152" y="480.98984449381146"/>
      <point x="1104.7438908283082" y="305.61504284354174" type="curve" smooth="yes"/>
      <point x="965.0745794985719" y="71.91399555696603" type="line"/>
      <point x="1026.1482069184385" y="117.23833703586163" type="line"/>
      <point x="1000.9730244366866" y="437.2075531577277" type="line"/>
      <point x="956.673754363694" y="1041.0066645509364" type="line"/>
      <point x="728.4985718819422" y="1041.0066645509364" type="line"/>
      <point x="531.4487464297049" y="424.7350047603935" type="line"/>
      <point x="415.9260552205649" y="62.36305934623928" type="line"/>
      <point x="453.30942557918127" y="75.92034274833387" type="line"/>
      <point x="427.72389717549987" y="418.4722310377658" type="line"/>
      <point x="396.02189781021895" y="886.8828943192638" type="line" smooth="yes"/>
      <point x="388.14376388448113" y="1002.6969216121868"/>
      <point x="346.0717232624564" y="1064.3932085052363"/>
      <point x="242.75214217708663" y="1064.3932085052363" type="curve" smooth="yes"/>
      <point x="145.8984449381149" y="1064.3932085052363"/>
      <point x="59.96858140272929" y="1006.745160266582"/>
      <point x="12.992383370358615" y="953.3567121548715" type="curve"/>
      <point x="34.268486194858774" y="908.7324658838464" type="line"/>
      <point x="54.27419866708981" y="924.9428752776896"/>
      <point x="70.32116788321167" y="934.364328784513"/>
      <point x="88.68867026340844" y="934.364328784513" type="curve" smooth="yes"/>
      <point x="112.32910187242145" y="934.364328784513"/>
      <point x="125.60393525864805" y="917.3427483338622"/>
      <point x="131.27673754363695" y="868.1583624246271" type="curve" smooth="yes"/>
      <point x="190.92859409711204" y="380.2637258013329" type="line"/>
    </contour>
  </outline>
</glyph>
<glyph name="x" format="2">
  <advance width="943.7245318946367"/>
  <unicode hex="0078"/>
  <anchor x="804.9888924151064" y="0.0" name="bottomright"/>
  <anchor x="473.5033322754681" y="518.7254839733419" name="center"/>
  <anchor x="592.6112345287211" y="1139.4560456997779" name="top"/>
  <outline>
    <contour>
      <point x="658.3494128847984" y="-20.192319898444936" type="curve" smooth="yes"/>
      <point x="755.7388130752142" y="-20.192319898444936"/>
      <point x="842.3938432243732" y="23.265312599174862"/>
      <point x="902.8800380831482" y="108.15867978419548" type="curve"/>
      <point x="879.7235798159314" y="152.6159949222469" type="line"/>
      <point x="858.7645192002539" y="128.08759124087592"/>
      <point x="831.6156775626786" y="107.57632497619802"/>
      <point x="805.4801650269756" y="107.57632497619802" type="curve" smooth="yes"/>
      <point x="779.5452237384957" y="107.57632497619802"/>
      <point x="769.2665820374485" y="121.90701364646145"/>
      <point x="745.8635353855918" y="176.49793716280547" type="curve" smooth="yes"/>
      <point x="563.008886067915" y="612.6001269438274" type="line"/>
      <point x="524.4741351951761" y="490.5576007616629" type="line"/>
      <point x="986.5119009838147" y="1032.5912408759125" type="line"/>
      <point x="733.9876229768327" y="1032.5912408759125" type="line"/>
      <point x="511.8686131386861" y="553.5150745794986" type="line"/>
      <point x="564.1501110758489" y="579.3417962551571" type="line"/>
      <point x="479.4112980006347" y="891.0901301174231" type="line" smooth="yes"/>
      <point x="446.3167248492542" y="1009.9755633132338"/>
      <point x="411.23897175499843" y="1057.6432878451285"/>
      <point x="309.62551570929867" y="1057.6432878451285" type="curve" smooth="yes"/>
      <point x="192.0872738813075" y="1057.6432878451285"/>
      <point x="97.61758172008885" y="990.3224373214854"/>
      <point x="53.106315455410986" y="933.3237067597588" type="curve"/>
      <point x="77.05522056490003" y="889.9403364011425" type="line"/>
      <point x="98.08187876864488" y="911.8276737543637"/>
      <point x="123.25928276737542" y="930.7327832434148"/>
      <point x="149.00095207870518" y="930.7327832434148" type="curve" smooth="yes"/>
      <point x="176.922881624881" y="930.7327832434148"/>
      <point x="186.27546810536336" y="916.1920025388765"/>
      <point x="210.13614725483973" y="858.0444303395747" type="curve" smooth="yes"/>
      <point x="383.25769596953353" y="438.6125039669946" type="line"/>
      <point x="408.451285306252" y="536.1780387178673" type="line"/>
      <point x="-39.388448111710574" y="-1.02570612503967" type="line"/>
      <point x="218.5975880672802" y="0.0" type="line"/>
      <point x="439.8406854966677" y="495.1685179308156" type="line"/>
      <point x="376.1678832116788" y="496.3859092351634" type="line"/>
      <point x="478.864487464297" y="136.52396064741353" type="line" smooth="yes"/>
      <point x="513.7991113932086" y="13.009520787051729"/>
      <point x="565.741034592193" y="-20.192319898444936"/>
    </contour>
  </outline>
</glyph>
<glyph name="y" format="2">
  <advance width="923.8552840368136"/>
  <unicode hex="0079"/>
  <anchor x="815.1107584893684" y="0.0" name="bottom"/>
  <anchor x="542.9416058394161" y="1110.0" name="top"/>
  <outline>
    <contour>
      <point x="135.76071088543318" y="870.6137734052681" type="curve" smooth="yes"/>
      <point x="290.5030149158997" y="-39.996826404316096" type="line"/>
      <point x="446.2849888924151" y="-39.996826404316096" type="line"/>
      <point x="347.8276737543637" y="-215.98857505553792"/>
      <point x="278.65534750872735" y="-329.21358298952714"/>
      <point x="161.75753728974928" y="-329.21358298952714" type="curve" smooth="yes"/>
      <point x="93.68200571247223" y="-329.21358298952714"/>
      <point x="43.107584893684546" y="-286.99682640431604"/>
      <point x="12.832116788321166" y="-261.0174547762615" type="curve"/>
      <point x="-50.02189781021897" y="-452.3525864804824" type="line"/>
      <point x="-5.0107902253252945" y="-475.98159314503334"/>
      <point x="35.384005077753095" y="-492.9079657251666"/>
      <point x="95.91463027610283" y="-492.9079657251666" type="curve" smooth="yes"/>
      <point x="216.65725166613774" y="-492.9079657251666"/>
      <point x="309.6639162170739" y="-389.90193589336724"/>
      <point x="431.09330371310693" y="-197.08695652173913" type="curve" smooth="yes"/>
      <point x="557.9184385909235" y="-0.6382100920342708"/>
      <point x="668.7829260552206" y="210.46810536337668"/>
      <point x="766.7127895906061" y="391.94636623294184" type="curve" smooth="yes"/>
      <point x="862.9701682005714" y="572.1269438273563"/>
      <point x="931.77118375119" y="730.8746429704856"/>
      <point x="931.2227864170104" y="878.1824817518249" type="curve" smooth="yes"/>
      <point x="930.4915899714376" y="978.0406220247539"/>
      <point x="887.8847984766741" y="1064.9060615677563"/>
      <point x="784.8064106632816" y="1064.9060615677563" type="curve" smooth="yes"/>
      <point x="725.5595049190733" y="1064.9060615677563"/>
      <point x="673.0834655664868" y="1016.5074579498572"/>
      <point x="673.8146620120597" y="940.774357346874" type="curve" smooth="yes"/>
      <point x="674.1802602348461" y="861.2843541732784"/>
      <point x="745.4677880038083" y="797.6077435734688"/>
      <point x="747.4074896858141" y="689.4214535068232" type="curve" smooth="yes"/>
      <point x="748.6515391939067" y="580.5201523325928"/>
      <point x="704.5033322754681" y="450.86448746429704"/>
      <point x="607.0206283719453" y="259.9647730879086" type="curve" smooth="yes"/>
      <point x="505.6052046969216" y="60.903205331640734" type="line"/>
      <point x="477.46715328467155" y="293.94668359251034" type="line"/>
      <point x="455.6439225642653" y="483.49539828625836"/>
      <point x="420.9289114566804" y="731.9581085369723"/>
      <point x="402.9425579181212" y="882.401777213583" type="curve" smooth="yes"/>
      <point x="387.13741669311327" y="1002.6747064423992"/>
      <point x="348.34401777213577" y="1064.3932085052363"/>
      <point x="247.66804189146305" y="1064.3932085052363" type="curve" smooth="yes"/>
      <point x="137.76134560456998" y="1064.3932085052363"/>
      <point x="54.88511583624246" y="1005.4665185655347"/>
      <point x="7.637575372897491" y="948.2849888924152" type="curve"/>
      <point x="28.779117740399876" y="902.4205014281181" type="line"/>
      <point x="52.610599809584265" y="923.4563630593461"/>
      <point x="73.12599174865122" y="933.8514757219931"/>
      <point x="93.14566804189147" y="933.8514757219931" type="curve" smooth="yes"/>
      <point x="113.76356712154873" y="933.8514757219931"/>
      <point x="127.47223103776578" y="918.0647413519517"/>
    </contour>
  </outline>
</glyph>
<glyph name="z" format="2">
  <advance width="839.6394795303079"/>
  <unicode hex="007A"/>
  <anchor x="383.79276420184067" y="0.0" name="bottom"/>
  <anchor x="523.384005077753" y="1110.0" name="top"/>
  <outline>
    <contour>
      <point x="641.9885750555379" y="828.2008886067914" type="curve"/>
      <point x="539.7061250396699" y="715.4316090130119" type="line"/>
      <point x="-36.64487464297048" y="11.622976832751505" type="line"/>
      <point x="0.8010155506188532" y="-24.275785464931765" type="line"/>
      <point x="26.23072040622025" y="-1.3976515391939068"/>
      <point x="41.483338622659474" y="7.916217073944781"/>
      <point x="85.61282132656298" y="7.916217073944781" type="curve" smooth="yes"/>
      <point x="197.4690574420819" y="7.916217073944781"/>
      <point x="445.3125991748651" y="-20.702634084417646"/>
      <point x="589.4744525547445" y="-20.702634084417646" type="curve" smooth="yes"/>
      <point x="635.9362107267534" y="-20.702634084417646"/>
      <point x="668.1802602348461" y="-12.831164709615996"/>
      <point x="683.6674071723263" y="-2.177086639162171" type="curve" smooth="yes"/>
      <point x="750.9806410663282" y="44.87051729609647"/>
      <point x="771.2707077118374" y="271.07299270072997"/>
      <point x="770.6531259917487" y="367.13043478260875" type="curve"/>
      <point x="719.6994604887337" y="367.13043478260875" type="line"/>
      <point x="703.3027610282451" y="271.06791494763564"/>
      <point x="653.1059980958426" y="205.12567438908283"/>
      <point x="560.2884798476674" y="204.22818152967312" type="curve" smooth="yes"/>
      <point x="472.2116788321168" y="203.77943509996828"/>
      <point x="307.9968264043161" y="204.9647730879086"/>
      <point x="213.84385909235164" y="204.59600126943826" type="curve"/>
      <point x="313.260552205649" y="315.3068867026341" type="line"/>
      <point x="890.6305934623929" y="1021.18343383053" type="line"/>
      <point x="858.1199619168518" y="1055.739447794351" type="line"/>
      <point x="830.3160901301175" y="1031.611234528721"/>
      <point x="810.2519834973025" y="1026.3862265947319"/>
      <point x="764.3970168200572" y="1026.3862265947319" type="curve" smooth="yes"/>
      <point x="648.2868930498254" y="1026.3862265947319"/>
      <point x="425.4671532846715" y="1056.2367502380198"/>
      <point x="286.8352903840051" y="1056.2367502380198" type="curve" smooth="yes"/>
      <point x="239.0019041574103" y="1056.2367502380198"/>
      <point x="213.78260869565216" y="1046.402729292288"/>
      <point x="197.85972707077119" y="1036.0955252300857" type="curve" smooth="yes"/>
      <point x="134.21548714693748" y="994.4087591240876"/>
      <point x="109.80355442716599" y="758.589336718502"/>
      <point x="116.76007616629641" y="671.1367819739766" type="curve"/>
      <point x="168.75214217708665" y="671.1367819739766" type="line"/>
      <point x="179.62424627102507" y="754.2148524278007"/>
      <point x="216.09647730879084" y="825.9873056172643"/>
      <point x="312.8410028562362" y="828.710250714059" type="curve" smooth="yes"/>
      <point x="392.2700729927007" y="830.9844493811488"/>
      <point x="559.3033957473817" y="828.6493176769279"/>
    </contour>
  </outline>
</glyph>
<glyph name="braceleft" format="2">
  <advance width="862.3237067597588"/>
  <unicode hex="007B"/>
  <outline>
    <contour>
      <point x="402.5683909869883" y="-269.58298952713426" type="curve" smooth="yes"/>
      <point x="483.1459854014599" y="-269.58298952713426"/>
      <point x="559.4093938432243" y="-250.16502697556328"/>
      <point x="629.0545858457632" y="-228.6264677880038" type="curve"/>
      <point x="637.9523960647414" y="-167.55918755950495" type="line"/>
      <point x="610.1609013011742" y="-169.4722310377658"/>
      <point x="563.1259917486511" y="-171.38527451602667"/>
      <point x="535.4887337353222" y="-171.38527451602667" type="curve" smooth="yes"/>
      <point x="448.0768010155506" y="-171.38527451602667"/>
      <point x="377.4119327197715" y="-132.8663916217074"/>
      <point x="397.8152967311965" y="6.167565852110446" type="curve" smooth="yes"/>
      <point x="415.32116788321173" y="122.95017454776261"/>
      <point x="497.57219930180895" y="317.8092668993971"/>
      <point x="517.4849254205014" y="450.79149476356713" type="curve" smooth="yes"/>
      <point x="541.9562043795621" y="613.5001586797842"/>
      <point x="418.5001586797842" y="674.0031735956838"/>
      <point x="280.4677880038083" y="695.9076483655982" type="curve"/>
      <point x="425.4201840685497" y="719.1164709615996"/>
      <point x="565.7549984132021" y="769.4176451920025"/>
      <point x="590.659155823548" y="933.0238019676294" type="curve" smooth="yes"/>
      <point x="611.0047603935259" y="1067.3973341796257"/>
      <point x="582.573786099651" y="1278.3833703586163"/>
      <point x="600.2396064741353" y="1394.4703268803555" type="curve" smooth="yes"/>
      <point x="620.9473183116471" y="1530.8955887019995"/>
      <point x="702.146937480165" y="1571.4144715963187"/>
      <point x="788.5401459854014" y="1571.4144715963187" type="curve" smooth="yes"/>
      <point x="815.8828943192638" y="1571.4144715963187"/>
      <point x="866.0266582037449" y="1570.292922881625"/>
      <point x="893.2894319263726" y="1568.379879403364" type="curve"/>
      <point x="901.8600444303395" y="1626.4817518248176" type="line"/>
      <point x="833.214217708664" y="1649.5588701999366"/>
      <point x="773.1923198984449" y="1666.829577911774"/>
      <point x="691.2043795620439" y="1666.829577911774" type="curve" smooth="yes"/>
      <point x="491.7105680736274" y="1666.829577911774"/>
      <point x="379.5128530625198" y="1570.3947953030784"/>
      <point x="354.50999682640435" y="1404.2208822596" type="curve" smooth="yes"/>
      <point x="326.6740717232625" y="1220.3078387813391"/>
      <point x="404.6350364963503" y="1049.2481751824816"/>
      <point x="382.02951443986035" y="900.2948270390352" type="curve" smooth="yes"/>
      <point x="366.82481751824815" y="800.7188194224055"/>
      <point x="318.89241510631547" y="742.1348778165661"/>
      <point x="139.44271659790542" y="742.74357346874" type="curve"/>
      <point x="126.84385909235165" y="660.6229768327514" type="line"/>
      <point x="307.1107584893685" y="661.2316724849254"/>
      <point x="334.21834338305297" y="585.0799746112344"/>
      <point x="319.0936210726753" y="483.3979688987623" type="curve" smooth="yes"/>
      <point x="296.119327197715" y="334.95747381783565"/>
      <point x="176.30593462392892" y="176.15614090764836"/>
      <point x="148.4858774992066" y="-7.669946048873371" type="curve" smooth="yes"/>
      <point x="123.05014281180578" y="-172.53951126626467"/>
      <point x="204.94985718819422" y="-269.58298952713426"/>
    </contour>
  </outline>
</glyph>
<glyph name="bar" format="2">
  <advance width="772.6191685179308"/>
  <unicode hex="007C"/>
  <outline>
    <contour>
      <point x="360.9225642653126" y="1738.0" type="line"/>
      <point x="360.9225642653126" y="-182.0" type="line"/>
      <point x="477.29387496032996" y="-182.0" type="line"/>
      <point x="477.29387496032996" y="1738.0" type="line"/>
    </contour>
  </outline>
</glyph>
<glyph name="asciitilde" format="2">
  <advance width="1132.8314820691846"/>
  <unicode hex="007E"/>
  <outline>
    <contour>
      <point x="170.83338622659474" y="641.608060933037" type="curve"/>
      <point x="215.26499523960646" y="573.6286893049825" type="line"/>
      <point x="273.80450650587113" y="659.5331640748968"/>
      <point x="316.2415106315455" y="704.2031101237702"/>
      <point x="399.6445572834021" y="704.2031101237702" type="curve" smooth="yes"/>
      <point x="540.1900983814661" y="704.2031101237702"/>
      <point x="577.1726436052046" y="508.0393525864805"/>
      <point x="752.3002221516979" y="508.0393525864805" type="curve" smooth="yes"/>
      <point x="870.304347826087" y="508.0393525864805"/>
      <point x="966.6674071723263" y="580.4468422722946"/>
      <point x="1001.8454458901937" y="682.5947318311647" type="curve"/>
      <point x="949.2773722627737" y="755.8375119009838" type="line"/>
      <point x="894.2754681053634" y="667.361155188829"/>
      <point x="855.6947000952077" y="620.5661694700094"/>
      <point x="770.6981910504601" y="620.5661694700094" type="curve" smooth="yes"/>
      <point x="628.6613773405268" y="620.5661694700094"/>
      <point x="592.0901301174231" y="814.7419866708981"/>
      <point x="418.93367185020634" y="814.7419866708981" type="curve" smooth="yes"/>
      <point x="301.0323706759759" y="814.7419866708981"/>
      <point x="205.25134877816566" y="742.5058711520152"/>
    </contour>
  </outline>
</glyph>
<glyph name="cent" format="2">
  <advance width="874.8121231355126"/>
  <unicode hex="00A2"/>
  <outline>
    <contour>
      <point x="278.3855918755951" y="-277.32973659155823" type="line"/>
      <point x="373.67248492542046" y="-277.32973659155823" type="line"/>
      <point x="428.44842907013646" y="-20.605839416058394" type="line"/>
      <point x="596.5937797524596" y="-9.830529990479214"/>
      <point x="712.0809266899397" y="91.18375119009839"/>
      <point x="767.4027292922881" y="177.48302126309108" type="curve"/>
      <point x="735.2656299587433" y="232.54300222151696" type="line"/>
      <point x="683.2408759124087" y="169.55442716597904"/>
      <point x="613.3037131069502" y="104.31164709615994"/>
      <point x="525.7305617264361" y="102.2602348460806" type="curve" smooth="yes"/>
      <point x="429.6718502062837" y="100.20882259600127"/>
      <point x="359.8229133608378" y="171.55728340209458"/>
      <point x="359.8229133608378" y="402.64170104728663" type="curve" smooth="yes"/>
      <point x="359.8229133608378" y="700.9860361789908"/>
      <point x="479.9758806728023" y="982.4014598540145"/>
      <point x="597.8806728022851" y="982.4014598540145" type="curve" smooth="yes"/>
      <point x="656.1754998413202" y="982.4014598540145"/>
      <point x="669.8898762297683" y="917.5452237384957"/>
      <point x="712.0875912408758" y="756.9530307838781" type="curve"/>
      <point x="779.8114884163757" y="756.793081561409" type="line"/>
      <point x="852.1152015233259" y="1017.2399238337036" type="line"/>
      <point x="799.780069819105" y="1040.2716597905428"/>
      <point x="723.0333227546811" y="1056.129800063472"/>
      <point x="647.9834973024438" y="1057.694065376071" type="curve"/>
      <point x="706.1726436052047" y="1331.1012377023164" type="line"/>
      <point x="611.8314820691844" y="1331.1012377023164" type="line"/>
      <point x="552.1098064106633" y="1050.969216121866" type="line"/>
      <point x="259.37416693113295" y="1004.107902253253"/>
      <point x="93.0704538241828" y="687.3659155823549"/>
      <point x="92.15645826721675" y="383.90669628689307" type="curve" smooth="yes"/>
      <point x="91.42526182164393" y="152.35798159314504"/>
      <point x="179.95239606474138" y="10.799111393208506"/>
      <point x="334.0171374166932" y="-16.75944144715963" type="curve"/>
    </contour>
  </outline>
</glyph>
<glyph name="sterling" format="2">
  <advance width="1310.3897175499842"/>
  <unicode hex="00A3"/>
  <outline>
    <contour>
      <point x="763.1926372580133" y="-15.89654078070454" type="curve" smooth="yes"/>
      <point x="1026.4836559822277" y="-15.89654078070454"/>
      <point x="1228.092351634402" y="169.59377975245954"/>
      <point x="1228.3322754681053" y="380.14408124404946" type="curve" smooth="yes"/>
      <point x="1228.4922246905744" y="470.94192319898445"/>
      <point x="1189.9698508410029" y="522.9025706125041"/>
      <point x="1152.922881624881" y="555.9225642653126" type="curve"/>
      <point x="923.9600126943826" y="516.0837829260553" type="line"/>
      <point x="955.3890828308473" y="473.71564582672164"/>
      <point x="976.2421453506823" y="424.05617264360524"/>
      <point x="976.2421453506823" y="350.0888606791495" type="curve" smooth="yes"/>
      <point x="976.2421453506823" y="190.3586163122818"/>
      <point x="897.2338940019042" y="69.0491907331006"/>
      <point x="736.3716280545858" y="69.0491907331006" type="curve" smooth="yes"/>
      <point x="621.1488416375753" y="69.0491907331006"/>
      <point x="539.3430656934306" y="139.07933989209772"/>
      <point x="416.8048238654396" y="181.51856553475088" type="curve"/>
      <point x="496.3306886702634" y="270.2818152967312"/>
      <point x="546.1529673119645" y="360.32148524278006"/>
      <point x="586.5582354807998" y="580.653443351317" type="curve" smooth="yes"/>
      <point x="595.2186607426215" y="634.5655347508726"/>
      <point x="605.0076166296413" y="693.3560774357346"/>
      <point x="615.2066010790226" y="758.0380831482069" type="curve"/>
      <point x="867.2221516978736" y="758.0380831482069" type="line"/>
      <point x="878.3344969850841" y="853.5823548079975" type="line"/>
      <point x="629.1939066962868" y="853.5823548079975" type="line"/>
      <point x="637.4598540145986" y="915.8682957791178"/>
      <point x="645.1329736591558" y="974.077118375119"/>
      <point x="653.3989209774676" y="1029.1831164709615" type="curve" smooth="yes"/>
      <point x="698.8267216756586" y="1331.8562361155189"/>
      <point x="764.0891780387179" y="1428.6651856553476"/>
      <point x="866.8099016185338" y="1428.6651856553476" type="curve" smooth="yes"/>
      <point x="971.1424944462076" y="1428.6651856553476"/>
      <point x="1027.1056807362743" y="1330.8362424627103"/>
      <point x="1060.5388765471278" y="1236.8965407807045" type="curve"/>
      <point x="1190.5896540780705" y="1411.5861631228183" type="line"/>
      <point x="1131.3560774357347" y="1468.8248175182482"/>
      <point x="1029.25642653126" y="1506.7375436369407"/>
      <point x="911.797841954935" y="1506.7375436369407" type="curve" smooth="yes"/>
      <point x="621.4912726118692" y="1506.7375436369407"/>
      <point x="437.1269438273564" y="1302.4776261504285"/>
      <point x="382.78863852745167" y="939.9473183116471" type="curve" smooth="yes"/>
      <point x="380.3459219295462" y="920.8000634719136"/>
      <point x="374.04252618216435" y="879.3605204696922"/>
      <point x="370.60679149476357" y="853.5823548079975" type="curve"/>
      <point x="201.48619485877498" y="853.5823548079975" type="line"/>
      <point x="189.33544906378927" y="758.0380831482069" type="line"/>
      <point x="357.37226277372264" y="758.0380831482069" type="line"/>
      <point x="335.53760710885433" y="597.9266899397016"/>
      <point x="326.7473817835608" y="524.4966677245319"/>
      <point x="318.13614725483967" y="466.20247540463345" type="curve" smooth="yes"/>
      <point x="297.37384957156456" y="323.66074262139"/>
      <point x="282.18057759441444" y="254.61377340526818"/>
      <point x="258.40368137099335" y="211.9225642653126" type="curve"/>
      <point x="145.17549984132023" y="206.95430022215172"/>
      <point x="30.291018724214535" y="152.2043795620438"/>
      <point x="30.291018724214535" y="68.05902887972073" type="curve" smooth="yes"/>
      <point x="30.291018724214535" y="24.356394795303075"/>
      <point x="61.2780069819105" y="-3.735956839098698"/>
      <point x="125.85623611551887" y="-3.735956839098698" type="curve" smooth="yes"/>
      <point x="203.401777213583" y="-3.735956839098698"/>
      <point x="276.0139638210092" y="45.26880355442715"/>
      <point x="330.04855601396383" y="104.11488416375754" type="curve"/>
      <point x="434.9111393208505" y="89.99047921294827"/>
      <point x="567.2516661377341" y="-15.89654078070454"/>
    </contour>
  </outline>
</glyph>
